<svg id="visual" viewBox="0 0 900 600" width="900" height="600" xmlns="http://www.w3.org/2000/svg" xmlns:xlink="http://www.w3.org/1999/xlink" version="1.1"><rect x="0" y="0" width="900" height="600" fill="#FF0066"></rect><g transform="translate(455.5136959168059 341.92177060169274)"><path d="M57.4 -93.4C57.4 -68.4 28.7 -34.2 24 -11.5C19.3 11.2 38.7 22.3 40.9 28.3C43 34.2 28 35 15.7 36.7C3.3 38.5 -6.4 41.3 -24.6 44.6C-42.8 47.9 -69.4 51.7 -68.4 44.1C-67.4 36.4 -38.6 17.3 -35.2 -7C-31.8 -31.3 -53.8 -60.8 -52.2 -85.6C-50.6 -110.3 -25.3 -130.1 1.7 -132.2C28.7 -134.2 57.4 -118.4 57.4 -93.4" fill="#baa400"></path></g></svg>