<svg id="visual" viewBox="0 0 900 600" width="900" height="600" xmlns="http://www.w3.org/2000/svg" xmlns:xlink="http://www.w3.org/1999/xlink" version="1.1"><rect x="0" y="0" width="900" height="600" fill="#000000"></rect><defs><linearGradient id="grad1_0" x1="33.3%" y1="0%" x2="100%" y2="100%"><stop offset="20%" stop-color="#d71b1b" stop-opacity="1"></stop><stop offset="80%" stop-color="#d71b1b" stop-opacity="1"></stop></linearGradient></defs><defs><linearGradient id="grad1_1" x1="33.3%" y1="0%" x2="100%" y2="100%"><stop offset="20%" stop-color="#d71b1b" stop-opacity="1"></stop><stop offset="80%" stop-color="#8d0000" stop-opacity="1"></stop></linearGradient></defs><defs><linearGradient id="grad1_2" x1="33.3%" y1="0%" x2="100%" y2="100%"><stop offset="20%" stop-color="#000000" stop-opacity="1"></stop><stop offset="80%" stop-color="#8d0000" stop-opacity="1"></stop></linearGradient></defs><defs><linearGradient id="grad2_0" x1="0%" y1="0%" x2="66.7%" y2="100%"><stop offset="20%" stop-color="#d71b1b" stop-opacity="1"></stop><stop offset="80%" stop-color="#d71b1b" stop-opacity="1"></stop></linearGradient></defs><defs><linearGradient id="grad2_1" x1="0%" y1="0%" x2="66.7%" y2="100%"><stop offset="20%" stop-color="#8d0000" stop-opacity="1"></stop><stop offset="80%" stop-color="#d71b1b" stop-opacity="1"></stop></linearGradient></defs><defs><linearGradient id="grad2_2" x1="0%" y1="0%" x2="66.7%" y2="100%"><stop offset="20%" stop-color="#8d0000" stop-opacity="1"></stop><stop offset="80%" stop-color="#000000" stop-opacity="1"></stop></linearGradient></defs><g transform="translate(900, 0)"><path d="M0 540.8C-110.3 535.7 -220.6 530.7 -270.4 468.4C-320.3 406.1 -309.7 286.6 -344.7 199C-379.7 111.4 -460.3 55.7 -540.8 0L0 0Z" fill="#6c0000"></path><path d="M0 360.6C-73.5 357.2 -147 353.8 -180.3 312.2C-213.5 270.7 -206.5 191.1 -229.8 132.7C-253.1 74.3 -306.8 37.1 -360.6 0L0 0Z" fill="#b20000"></path><path d="M0 180.3C-36.8 178.6 -73.5 176.9 -90.1 156.1C-106.8 135.4 -103.2 95.5 -114.9 66.3C-126.6 37.1 -153.4 18.6 -180.3 0L0 0Z" fill="#d71b1b"></path></g><g transform="translate(0, 600)"><path d="M0 -540.8C82.6 -506.9 165.3 -473 249.5 -432.1C333.7 -391.3 419.6 -343.6 468.4 -270.4C517.2 -197.2 529 -98.6 540.8 0L0 0Z" fill="#6c0000"></path><path d="M0 -360.6C55.1 -337.9 110.2 -315.3 166.3 -288.1C222.5 -260.9 279.7 -229.1 312.2 -180.3C344.8 -131.5 352.7 -65.7 360.6 0L0 0Z" fill="#b20000"></path><path d="M0 -180.3C27.5 -169 55.1 -157.7 83.2 -144C111.2 -130.4 139.9 -114.5 156.1 -90.1C172.4 -65.7 176.3 -32.9 180.3 0L0 0Z" fill="#d71b1b"></path></g></svg>