<svg id="visual" viewBox="0 0 900 600" width="900" height="600" xmlns="http://www.w3.org/2000/svg" xmlns:xlink="http://www.w3.org/1999/xlink" version="1.1"><rect x="0" y="0" width="900" height="600" fill="#000000"></rect><defs><linearGradient id="grad1_0" x1="33.3%" y1="0%" x2="100%" y2="100%"><stop offset="20%" stop-color="#d71b1b" stop-opacity="1"></stop><stop offset="80%" stop-color="#d71b1b" stop-opacity="1"></stop></linearGradient></defs><defs><linearGradient id="grad1_1" x1="33.3%" y1="0%" x2="100%" y2="100%"><stop offset="20%" stop-color="#d71b1b" stop-opacity="1"></stop><stop offset="80%" stop-color="#8d0000" stop-opacity="1"></stop></linearGradient></defs><defs><linearGradient id="grad1_2" x1="33.3%" y1="0%" x2="100%" y2="100%"><stop offset="20%" stop-color="#000000" stop-opacity="1"></stop><stop offset="80%" stop-color="#8d0000" stop-opacity="1"></stop></linearGradient></defs><defs><linearGradient id="grad2_0" x1="0%" y1="0%" x2="66.7%" y2="100%"><stop offset="20%" stop-color="#d71b1b" stop-opacity="1"></stop><stop offset="80%" stop-color="#d71b1b" stop-opacity="1"></stop></linearGradient></defs><defs><linearGradient id="grad2_1" x1="0%" y1="0%" x2="66.7%" y2="100%"><stop offset="20%" stop-color="#8d0000" stop-opacity="1"></stop><stop offset="80%" stop-color="#d71b1b" stop-opacity="1"></stop></linearGradient></defs><defs><linearGradient id="grad2_2" x1="0%" y1="0%" x2="66.7%" y2="100%"><stop offset="20%" stop-color="#8d0000" stop-opacity="1"></stop><stop offset="80%" stop-color="#000000" stop-opacity="1"></stop></linearGradient></defs><g transform="translate(900, 0)"><path d="M0 540.8C-66.1 478.3 -132.2 415.7 -218.5 378.5C-304.8 341.2 -411.3 329.3 -468.4 270.4C-525.5 211.6 -533.1 105.8 -540.8 0L0 0Z" fill="#6c0000"></path><path d="M0 360.6C-44.1 318.8 -88.1 277.1 -145.7 252.3C-203.2 227.5 -274.2 219.5 -312.2 180.3C-350.3 141 -355.4 70.5 -360.6 0L0 0Z" fill="#b20000"></path><path d="M0 180.3C-22 159.4 -44.1 138.6 -72.8 126.2C-101.6 113.7 -137.1 109.8 -156.1 90.1C-175.2 70.5 -177.7 35.3 -180.3 0L0 0Z" fill="#d71b1b"></path></g><g transform="translate(0, 600)"><path d="M0 -540.8C97 -528.1 194 -515.3 270.4 -468.4C346.8 -421.4 402.6 -340.3 444.3 -256.5C485.9 -172.7 513.4 -86.4 540.8 0L0 0Z" fill="#6c0000"></path><path d="M0 -360.6C64.7 -352.1 129.3 -343.6 180.3 -312.2C231.2 -280.9 268.4 -226.8 296.2 -171C323.9 -115.2 342.2 -57.6 360.6 0L0 0Z" fill="#b20000"></path><path d="M0 -180.3C32.3 -176 64.7 -171.8 90.1 -156.1C115.6 -140.5 134.2 -113.4 148.1 -85.5C162 -57.6 171.1 -28.8 180.3 0L0 0Z" fill="#d71b1b"></path></g></svg>