<svg id="visual" viewBox="0 0 900 600" width="900" height="600" xmlns="http://www.w3.org/2000/svg" xmlns:xlink="http://www.w3.org/1999/xlink" version="1.1"><rect x="0" y="0" width="900" height="600" fill="#931C1C"></rect><path d="M0 358L39 475L78 314L117 319L157 360L196 374L235 330L274 477L313 429L352 380L391 307L430 346L470 460L509 296L548 372L587 470L626 438L665 323L704 409L743 442L783 374L822 339L861 400L900 292L900 601L861 601L822 601L783 601L743 601L704 601L665 601L626 601L587 601L548 601L509 601L470 601L430 601L391 601L352 601L313 601L274 601L235 601L196 601L157 601L117 601L78 601L39 601L0 601Z" fill="#f5730a"></path><path d="M0 473L39 401L78 370L117 482L157 339L196 471L235 432L274 425L313 417L352 404L391 390L430 355L470 468L509 417L548 362L587 509L626 505L665 490L704 498L743 376L783 355L822 447L861 394L900 490L900 601L861 601L822 601L783 601L743 601L704 601L665 601L626 601L587 601L548 601L509 601L470 601L430 601L391 601L352 601L313 601L274 601L235 601L196 601L157 601L117 601L78 601L39 601L0 601Z" fill="#da5b09"></path><path d="M0 493L39 443L78 401L117 481L157 440L196 408L235 417L274 427L313 460L352 523L391 472L430 461L470 480L509 409L548 518L587 431L626 504L665 474L704 403L743 450L783 461L822 396L861 404L900 416L900 601L861 601L822 601L783 601L743 601L704 601L665 601L626 601L587 601L548 601L509 601L470 601L430 601L391 601L352 601L313 601L274 601L235 601L196 601L157 601L117 601L78 601L39 601L0 601Z" fill="#be4407"></path><path d="M0 484L39 473L78 444L117 505L157 446L196 446L235 462L274 449L313 468L352 476L391 513L430 460L470 511L509 528L548 454L587 464L626 494L665 546L704 506L743 457L783 534L822 501L861 504L900 521L900 601L861 601L822 601L783 601L743 601L704 601L665 601L626 601L587 601L548 601L509 601L470 601L430 601L391 601L352 601L313 601L274 601L235 601L196 601L157 601L117 601L78 601L39 601L0 601Z" fill="#a32d04"></path><path d="M0 494L39 562L78 539L117 560L157 534L196 506L235 532L274 544L313 553L352 508L391 557L430 512L470 562L509 507L548 503L587 508L626 531L665 557L704 552L743 530L783 554L822 518L861 498L900 514L900 601L861 601L822 601L783 601L743 601L704 601L665 601L626 601L587 601L548 601L509 601L470 601L430 601L391 601L352 601L313 601L274 601L235 601L196 601L157 601L117 601L78 601L39 601L0 601Z" fill="#871400"></path></svg>