<svg id="visual" viewBox="0 0 900 600" width="900" height="600" xmlns="http://www.w3.org/2000/svg" xmlns:xlink="http://www.w3.org/1999/xlink" version="1.1"><rect x="0" y="0" width="900" height="600" fill="#931C1C"></rect><path d="M0 314L39 380L78 410L117 410L157 311L196 293L235 372L274 336L313 444L352 292L391 370L430 470L470 374L509 421L548 453L587 304L626 343L665 373L704 365L743 286L783 403L822 456L861 427L900 399L900 601L861 601L822 601L783 601L743 601L704 601L665 601L626 601L587 601L548 601L509 601L470 601L430 601L391 601L352 601L313 601L274 601L235 601L196 601L157 601L117 601L78 601L39 601L0 601Z" fill="#f5730a"></path><path d="M0 465L39 380L78 415L117 410L157 349L196 490L235 346L274 453L313 341L352 453L391 454L430 472L470 475L509 371L548 363L587 439L626 385L665 409L704 509L743 417L783 343L822 426L861 341L900 358L900 601L861 601L822 601L783 601L743 601L704 601L665 601L626 601L587 601L548 601L509 601L470 601L430 601L391 601L352 601L313 601L274 601L235 601L196 601L157 601L117 601L78 601L39 601L0 601Z" fill="#da5b09"></path><path d="M0 469L39 504L78 469L117 522L157 500L196 415L235 438L274 457L313 408L352 506L391 433L430 496L470 427L509 501L548 529L587 445L626 420L665 501L704 487L743 443L783 513L822 423L861 488L900 409L900 601L861 601L822 601L783 601L743 601L704 601L665 601L626 601L587 601L548 601L509 601L470 601L430 601L391 601L352 601L313 601L274 601L235 601L196 601L157 601L117 601L78 601L39 601L0 601Z" fill="#be4407"></path><path d="M0 503L39 467L78 510L117 447L157 496L196 454L235 530L274 503L313 464L352 463L391 510L430 478L470 531L509 496L548 527L587 545L626 480L665 454L704 498L743 499L783 545L822 448L861 444L900 459L900 601L861 601L822 601L783 601L743 601L704 601L665 601L626 601L587 601L548 601L509 601L470 601L430 601L391 601L352 601L313 601L274 601L235 601L196 601L157 601L117 601L78 601L39 601L0 601Z" fill="#a32d04"></path><path d="M0 511L39 521L78 499L117 562L157 554L196 513L235 558L274 562L313 496L352 505L391 505L430 514L470 508L509 512L548 536L587 497L626 557L665 514L704 508L743 498L783 528L822 525L861 496L900 553L900 601L861 601L822 601L783 601L743 601L704 601L665 601L626 601L587 601L548 601L509 601L470 601L430 601L391 601L352 601L313 601L274 601L235 601L196 601L157 601L117 601L78 601L39 601L0 601Z" fill="#871400"></path></svg>