<svg id="visual" viewBox="0 0 900 600" width="900" height="600" xmlns="http://www.w3.org/2000/svg" xmlns:xlink="http://www.w3.org/1999/xlink" version="1.1"><rect x="0" y="0" width="900" height="600" fill="#140021"></rect><path d="M536 600L585 600L585 574L507 574L507 548L604 548L604 522L482 522L482 496L631 496L631 470L574 470L574 443L541 443L541 417L509 417L509 391L509 391L509 365L625 365L625 339L555 339L555 313L481 313L481 287L462 287L462 261L577 261L577 235L536 235L536 209L572 209L572 183L629 183L629 157L580 157L580 130L488 130L488 104L579 104L579 78L486 78L486 52L460 52L460 26L547 26L547 0L900 0L900 26L900 26L900 52L900 52L900 78L900 78L900 104L900 104L900 130L900 130L900 157L900 157L900 183L900 183L900 209L900 209L900 235L900 235L900 261L900 261L900 287L900 287L900 313L900 313L900 339L900 339L900 365L900 365L900 391L900 391L900 417L900 417L900 443L900 443L900 470L900 470L900 496L900 496L900 522L900 522L900 548L900 548L900 574L900 574L900 600L900 600Z" fill="#9900ff"></path><path d="M679 600L571 600L571 574L631 574L631 548L716 548L716 522L611 522L611 496L676 496L676 470L718 470L718 443L668 443L668 417L710 417L710 391L564 391L564 365L547 365L547 339L609 339L609 313L686 313L686 287L574 287L574 261L610 261L610 235L543 235L543 209L556 209L556 183L659 183L659 157L692 157L692 130L719 130L719 104L717 104L717 78L621 78L621 52L616 52L616 26L698 26L698 0L900 0L900 26L900 26L900 52L900 52L900 78L900 78L900 104L900 104L900 130L900 130L900 157L900 157L900 183L900 183L900 209L900 209L900 235L900 235L900 261L900 261L900 287L900 287L900 313L900 313L900 339L900 339L900 365L900 365L900 391L900 391L900 417L900 417L900 443L900 443L900 470L900 470L900 496L900 496L900 522L900 522L900 548L900 548L900 574L900 574L900 600L900 600Z" fill="#8200d9"></path><path d="M716 600L747 600L747 574L726 574L726 548L777 548L777 522L711 522L711 496L758 496L758 470L799 470L799 443L724 443L724 417L791 417L791 391L791 391L791 365L653 365L653 339L727 339L727 313L771 313L771 287L678 287L678 261L785 261L785 235L769 235L769 209L689 209L689 183L793 183L793 157L740 157L740 130L732 130L732 104L810 104L810 78L645 78L645 52L753 52L753 26L772 26L772 0L900 0L900 26L900 26L900 52L900 52L900 78L900 78L900 104L900 104L900 130L900 130L900 157L900 157L900 183L900 183L900 209L900 209L900 235L900 235L900 261L900 261L900 287L900 287L900 313L900 313L900 339L900 339L900 365L900 365L900 391L900 391L900 417L900 417L900 443L900 443L900 470L900 470L900 496L900 496L900 522L900 522L900 548L900 548L900 574L900 574L900 600L900 600Z" fill="#6c00b4"></path><path d="M760 600L773 600L773 574L731 574L731 548L891 548L891 522L833 522L833 496L767 496L767 470L869 470L869 443L885 443L885 417L741 417L741 391L797 391L797 365L845 365L845 339L734 339L734 313L723 313L723 287L781 287L781 261L770 261L770 235L842 235L842 209L879 209L879 183L880 183L880 157L887 157L887 130L769 130L769 104L819 104L819 78L834 78L834 52L870 52L870 26L874 26L874 0L900 0L900 26L900 26L900 52L900 52L900 78L900 78L900 104L900 104L900 130L900 130L900 157L900 157L900 183L900 183L900 209L900 209L900 235L900 235L900 261L900 261L900 287L900 287L900 313L900 313L900 339L900 339L900 365L900 365L900 391L900 391L900 417L900 417L900 443L900 443L900 470L900 470L900 496L900 496L900 522L900 522L900 548L900 548L900 574L900 574L900 600L900 600Z" fill="#560090"></path></svg>