<svg id="visual" viewBox="0 0 900 600" width="900" height="600" xmlns="http://www.w3.org/2000/svg" xmlns:xlink="http://www.w3.org/1999/xlink" version="1.1"><g stroke-width="1" stroke-linejoin="bevel"><path d="M412 290L507 230L375 220Z" fill="#297ea6" stroke="#297ea6"></path><path d="M507 230L383 136L375 220Z" fill="#246688" stroke="#246688"></path><path d="M383 136L332 194L375 220Z" fill="#1d4e6b" stroke="#1d4e6b"></path><path d="M375 220L326 366L412 290Z" fill="#297ea6" stroke="#297ea6"></path><path d="M412 290L509 332L507 230Z" fill="#112e42" stroke="#112e42"></path><path d="M618 284L572 204L507 230Z" fill="#0c2435" stroke="#0c2435"></path><path d="M507 230L520 109L383 136Z" fill="#297ea6" stroke="#297ea6"></path><path d="M572 204L520 109L507 230Z" fill="#0c2435" stroke="#0c2435"></path><path d="M262 338L326 366L375 220Z" fill="#277297" stroke="#277297"></path><path d="M412 290L412 414L509 332Z" fill="#246688" stroke="#246688"></path><path d="M383 136L289 132L332 194Z" fill="#297ea6" stroke="#297ea6"></path><path d="M332 194L262 338L375 220Z" fill="#297ea6" stroke="#297ea6"></path><path d="M374 0L289 132L383 136Z" fill="#15384f" stroke="#15384f"></path><path d="M509 332L618 284L507 230Z" fill="#277297" stroke="#277297"></path><path d="M572 204L580 81L520 109Z" fill="#297ea6" stroke="#297ea6"></path><path d="M326 366L412 414L412 290Z" fill="#297ea6" stroke="#297ea6"></path><path d="M509 332L577 382L618 284Z" fill="#297ea6" stroke="#297ea6"></path><path d="M412 414L525 410L509 332Z" fill="#0c2435" stroke="#0c2435"></path><path d="M668 218L580 81L572 204Z" fill="#277297" stroke="#277297"></path><path d="M520 109L374 0L383 136Z" fill="#112e42" stroke="#112e42"></path><path d="M525 410L577 382L509 332Z" fill="#246688" stroke="#246688"></path><path d="M185 200L262 338L332 194Z" fill="#00101c" stroke="#00101c"></path><path d="M406 519L492 491L412 414Z" fill="#081a28" stroke="#081a28"></path><path d="M715 313L668 218L618 284Z" fill="#0c2435" stroke="#0c2435"></path><path d="M618 284L668 218L572 204Z" fill="#00101c" stroke="#00101c"></path><path d="M531 0L374 0L520 109Z" fill="#081a28" stroke="#081a28"></path><path d="M565 0L531 0L580 81Z" fill="#19435d" stroke="#19435d"></path><path d="M580 81L531 0L520 109Z" fill="#00101c" stroke="#00101c"></path><path d="M267 0L213 131L289 132Z" fill="#277297" stroke="#277297"></path><path d="M289 132L185 200L332 194Z" fill="#0c2435" stroke="#0c2435"></path><path d="M213 131L185 200L289 132Z" fill="#1d4e6b" stroke="#1d4e6b"></path><path d="M724 0L565 0L580 81Z" fill="#0c2435" stroke="#0c2435"></path><path d="M412 414L492 491L525 410Z" fill="#00101c" stroke="#00101c"></path><path d="M525 410L628 481L577 382Z" fill="#00101c" stroke="#00101c"></path><path d="M406 519L412 414L262 497Z" fill="#297ea6" stroke="#297ea6"></path><path d="M185 200L162 285L262 338Z" fill="#205a7a" stroke="#205a7a"></path><path d="M262 497L412 414L326 366Z" fill="#19435d" stroke="#19435d"></path><path d="M720 400L715 313L577 382Z" fill="#00101c" stroke="#00101c"></path><path d="M577 382L715 313L618 284Z" fill="#0c2435" stroke="#0c2435"></path><path d="M668 218L737 76L580 81Z" fill="#246688" stroke="#246688"></path><path d="M374 0L267 0L289 132Z" fill="#297ea6" stroke="#297ea6"></path><path d="M262 497L326 366L262 338Z" fill="#0c2435" stroke="#0c2435"></path><path d="M103 85L134 220L185 200Z" fill="#205a7a" stroke="#205a7a"></path><path d="M185 200L134 220L162 285Z" fill="#1d4e6b" stroke="#1d4e6b"></path><path d="M103 85L185 200L213 131Z" fill="#246688" stroke="#246688"></path><path d="M94 337L169 384L162 285Z" fill="#1d4e6b" stroke="#1d4e6b"></path><path d="M162 285L169 384L262 338Z" fill="#081a28" stroke="#081a28"></path><path d="M492 491L628 481L525 410Z" fill="#205a7a" stroke="#205a7a"></path><path d="M520 600L628 481L492 491Z" fill="#277297" stroke="#277297"></path><path d="M224 486L262 497L262 338Z" fill="#277297" stroke="#277297"></path><path d="M628 481L720 400L577 382Z" fill="#00101c" stroke="#00101c"></path><path d="M769 108L737 76L668 218Z" fill="#15384f" stroke="#15384f"></path><path d="M769 108L668 218L798 223Z" fill="#277297" stroke="#277297"></path><path d="M169 384L224 486L262 338Z" fill="#277297" stroke="#277297"></path><path d="M798 223L668 218L715 313Z" fill="#0c2435" stroke="#0c2435"></path><path d="M267 0L171 0L213 131Z" fill="#19435d" stroke="#19435d"></path><path d="M832 337L798 223L715 313Z" fill="#112e42" stroke="#112e42"></path><path d="M134 220L94 337L162 285Z" fill="#00101c" stroke="#00101c"></path><path d="M169 384L128 438L224 486Z" fill="#081a28" stroke="#081a28"></path><path d="M0 269L94 337L134 220Z" fill="#19435d" stroke="#19435d"></path><path d="M762 0L724 0L737 76Z" fill="#205a7a" stroke="#205a7a"></path><path d="M737 76L724 0L580 81Z" fill="#15384f" stroke="#15384f"></path><path d="M171 0L103 85L213 131Z" fill="#297ea6" stroke="#297ea6"></path><path d="M286 600L403 600L406 519Z" fill="#205a7a" stroke="#205a7a"></path><path d="M406 519L520 600L492 491Z" fill="#081a28" stroke="#081a28"></path><path d="M286 600L406 519L262 497Z" fill="#00101c" stroke="#00101c"></path><path d="M835 479L785 372L720 400Z" fill="#1d4e6b" stroke="#1d4e6b"></path><path d="M720 400L785 372L715 313Z" fill="#081a28" stroke="#081a28"></path><path d="M94 337L128 438L169 384Z" fill="#297ea6" stroke="#297ea6"></path><path d="M174 600L286 600L262 497Z" fill="#246688" stroke="#246688"></path><path d="M403 600L520 600L406 519Z" fill="#297ea6" stroke="#297ea6"></path><path d="M628 481L716 522L720 400Z" fill="#00101c" stroke="#00101c"></path><path d="M900 0L762 0L769 108Z" fill="#246688" stroke="#246688"></path><path d="M769 108L762 0L737 76Z" fill="#15384f" stroke="#15384f"></path><path d="M174 600L262 497L224 486Z" fill="#0c2435" stroke="#0c2435"></path><path d="M630 600L716 522L628 481Z" fill="#112e42" stroke="#112e42"></path><path d="M785 372L832 337L715 313Z" fill="#246688" stroke="#246688"></path><path d="M798 223L900 177L769 108Z" fill="#205a7a" stroke="#205a7a"></path><path d="M900 410L832 337L785 372Z" fill="#205a7a" stroke="#205a7a"></path><path d="M520 600L630 600L628 481Z" fill="#112e42" stroke="#112e42"></path><path d="M171 0L75 0L103 85Z" fill="#081a28" stroke="#081a28"></path><path d="M0 182L0 269L134 220Z" fill="#205a7a" stroke="#205a7a"></path><path d="M128 438L108 510L224 486Z" fill="#15384f" stroke="#15384f"></path><path d="M0 414L108 510L128 438Z" fill="#081a28" stroke="#081a28"></path><path d="M0 182L134 220L103 85Z" fill="#297ea6" stroke="#297ea6"></path><path d="M94 337L0 414L128 438Z" fill="#19435d" stroke="#19435d"></path><path d="M0 102L0 182L103 85Z" fill="#0c2435" stroke="#0c2435"></path><path d="M108 510L174 600L224 486Z" fill="#00101c" stroke="#00101c"></path><path d="M75 0L0 102L103 85Z" fill="#246688" stroke="#246688"></path><path d="M900 410L900 281L832 337Z" fill="#00101c" stroke="#00101c"></path><path d="M832 337L900 281L798 223Z" fill="#081a28" stroke="#081a28"></path><path d="M900 281L900 177L798 223Z" fill="#277297" stroke="#277297"></path><path d="M630 600L724 600L716 522Z" fill="#277297" stroke="#277297"></path><path d="M716 522L835 479L720 400Z" fill="#205a7a" stroke="#205a7a"></path><path d="M794 600L835 479L716 522Z" fill="#277297" stroke="#277297"></path><path d="M900 177L900 125L769 108Z" fill="#0c2435" stroke="#0c2435"></path><path d="M0 269L0 414L94 337Z" fill="#00101c" stroke="#00101c"></path><path d="M108 510L112 600L174 600Z" fill="#19435d" stroke="#19435d"></path><path d="M900 473L900 410L835 479Z" fill="#277297" stroke="#277297"></path><path d="M835 479L900 410L785 372Z" fill="#0c2435" stroke="#0c2435"></path><path d="M0 529L112 600L108 510Z" fill="#1d4e6b" stroke="#1d4e6b"></path><path d="M75 0L0 0L0 102Z" fill="#112e42" stroke="#112e42"></path><path d="M724 600L794 600L716 522Z" fill="#1d4e6b" stroke="#1d4e6b"></path><path d="M900 125L900 0L769 108Z" fill="#297ea6" stroke="#297ea6"></path><path d="M900 600L900 473L835 479Z" fill="#00101c" stroke="#00101c"></path><path d="M0 414L0 529L108 510Z" fill="#246688" stroke="#246688"></path><path d="M0 529L0 600L112 600Z" fill="#205a7a" stroke="#205a7a"></path><path d="M794 600L900 600L835 479Z" fill="#246688" stroke="#246688"></path></g></svg>