<svg id="visual" viewBox="0 0 900 600" width="900" height="600" xmlns="http://www.w3.org/2000/svg" xmlns:xlink="http://www.w3.org/1999/xlink" version="1.1"><g stroke-width="1" stroke-linejoin="bevel"><path d="M465.3 256.8L457.1 253.6L421.3 269.2Z" fill="#bbab57" stroke="#bbab57"></path><path d="M457.1 253.6L421.9 267.1L421.3 269.2Z" fill="#e8debf" stroke="#e8debf"></path><path d="M465.3 256.8L440.7 240.1L457.1 253.6Z" fill="#e0d4aa" stroke="#e0d4aa"></path><path d="M457.1 253.6L440.7 240.1L421.9 267.1Z" fill="#e0d4aa" stroke="#e0d4aa"></path><path d="M421.3 269.2L417.6 339.2L465.3 256.8Z" fill="#ffffff" stroke="#ffffff"></path><path d="M417.6 339.2L515.7 314.8L465.3 256.8Z" fill="#ffffff" stroke="#ffffff"></path><path d="M440.7 240.1L398.9 230.9L421.9 267.1Z" fill="#d7c995" stroke="#d7c995"></path><path d="M421.9 267.1L372.3 258.9L421.3 269.2Z" fill="#a69729" stroke="#a69729"></path><path d="M421.3 269.2L351.2 315.2L417.6 339.2Z" fill="#bbab57" stroke="#bbab57"></path><path d="M499.4 350.1L512.7 330.2L515.7 314.8Z" fill="#bbab57" stroke="#bbab57"></path><path d="M512.7 330.2L521.8 323.4L515.7 314.8Z" fill="#b1a141" stroke="#b1a141"></path><path d="M417.6 339.2L499.4 350.1L515.7 314.8Z" fill="#c5b56b" stroke="#c5b56b"></path><path d="M512.7 330.2L511.7 367.4L521.8 323.4Z" fill="#e8debf" stroke="#e8debf"></path><path d="M398.9 230.9L372.3 258.9L421.9 267.1Z" fill="#f0e9d4" stroke="#f0e9d4"></path><path d="M465.3 256.8L435.1 186.9L440.7 240.1Z" fill="#e0d4aa" stroke="#e0d4aa"></path><path d="M440.7 240.1L435.1 186.9L398.9 230.9Z" fill="#d7c995" stroke="#d7c995"></path><path d="M398.9 230.9L364.2 211.9L372.3 258.9Z" fill="#cebf80" stroke="#cebf80"></path><path d="M537.8 225.5L435.1 186.9L465.3 256.8Z" fill="#f8f4e9" stroke="#f8f4e9"></path><path d="M537.8 225.5L465.3 256.8L515.7 314.8Z" fill="#ffffff" stroke="#ffffff"></path><path d="M472.9 390.5L511.7 367.4L499.4 350.1Z" fill="#f8f4e9" stroke="#f8f4e9"></path><path d="M499.4 350.1L511.7 367.4L512.7 330.2Z" fill="#bbab57" stroke="#bbab57"></path><path d="M372.3 258.9L351.2 315.2L421.3 269.2Z" fill="#e8debf" stroke="#e8debf"></path><path d="M364.9 354.4L378.9 361.2L417.6 339.2Z" fill="#f0e9d4" stroke="#f0e9d4"></path><path d="M417.6 339.2L472.9 390.5L499.4 350.1Z" fill="#e8debf" stroke="#e8debf"></path><path d="M566.8 299.2L537.8 225.5L515.7 314.8Z" fill="#b1a141" stroke="#b1a141"></path><path d="M397.7 411.5L472.9 390.5L417.6 339.2Z" fill="#ffffff" stroke="#ffffff"></path><path d="M351.2 315.2L364.9 354.4L417.6 339.2Z" fill="#e8debf" stroke="#e8debf"></path><path d="M381.3 186.5L364.2 211.9L398.9 230.9Z" fill="#cebf80" stroke="#cebf80"></path><path d="M323.6 226.6L335.3 322.1L351.2 315.2Z" fill="#d7c995" stroke="#d7c995"></path><path d="M588.4 345.9L566.8 299.2L521.8 323.4Z" fill="#e8debf" stroke="#e8debf"></path><path d="M521.8 323.4L566.8 299.2L515.7 314.8Z" fill="#d7c995" stroke="#d7c995"></path><path d="M351.2 315.2L335.3 322.1L364.9 354.4Z" fill="#d7c995" stroke="#d7c995"></path><path d="M323.6 226.6L351.2 315.2L372.3 258.9Z" fill="#ffffff" stroke="#ffffff"></path><path d="M435.1 186.9L381.3 186.5L398.9 230.9Z" fill="#c5b56b" stroke="#c5b56b"></path><path d="M588.8 266.9L547.7 206.9L537.8 225.5Z" fill="#ffffff" stroke="#ffffff"></path><path d="M537.8 225.5L547.7 206.9L435.1 186.9Z" fill="#b1a141" stroke="#b1a141"></path><path d="M476.3 424.7L495.1 403.1L472.9 390.5Z" fill="#f8f4e9" stroke="#f8f4e9"></path><path d="M472.9 390.5L495.1 403.1L511.7 367.4Z" fill="#e8debf" stroke="#e8debf"></path><path d="M511.7 367.4L588.4 345.9L521.8 323.4Z" fill="#c5b56b" stroke="#c5b56b"></path><path d="M566.8 299.2L578.1 270.2L537.8 225.5Z" fill="#ffffff" stroke="#ffffff"></path><path d="M325.8 415.1L397.7 411.5L378.9 361.2Z" fill="#cebf80" stroke="#cebf80"></path><path d="M378.9 361.2L397.7 411.5L417.6 339.2Z" fill="#f0e9d4" stroke="#f0e9d4"></path><path d="M325.8 415.1L378.9 361.2L364.9 354.4Z" fill="#a69729" stroke="#a69729"></path><path d="M330.3 129.3L323.6 226.6L364.2 211.9Z" fill="#f0e9d4" stroke="#f0e9d4"></path><path d="M364.2 211.9L323.6 226.6L372.3 258.9Z" fill="#e8debf" stroke="#e8debf"></path><path d="M566.8 299.2L588.8 266.9L578.1 270.2Z" fill="#f0e9d4" stroke="#f0e9d4"></path><path d="M578.1 270.2L588.8 266.9L537.8 225.5Z" fill="#f8f4e9" stroke="#f8f4e9"></path><path d="M440.7 432.7L476.3 424.7L472.9 390.5Z" fill="#cebf80" stroke="#cebf80"></path><path d="M525.7 139.2L417.9 145.8L435.1 186.9Z" fill="#cebf80" stroke="#cebf80"></path><path d="M435.1 186.9L417.9 145.8L381.3 186.5Z" fill="#cebf80" stroke="#cebf80"></path><path d="M381.3 186.5L363.6 141.5L364.2 211.9Z" fill="#f0e9d4" stroke="#f0e9d4"></path><path d="M588.8 266.9L557.1 189.8L547.7 206.9Z" fill="#f0e9d4" stroke="#f0e9d4"></path><path d="M547.7 206.9L525.7 139.2L435.1 186.9Z" fill="#cebf80" stroke="#cebf80"></path><path d="M397.7 411.5L440.7 432.7L472.9 390.5Z" fill="#e0d4aa" stroke="#e0d4aa"></path><path d="M523.1 418.4L511.7 367.4L495.1 403.1Z" fill="#ffffff" stroke="#ffffff"></path><path d="M551.1 417.5L588.4 345.9L511.7 367.4Z" fill="#cebf80" stroke="#cebf80"></path><path d="M566.8 299.2L621.2 324.9L588.8 266.9Z" fill="#a69729" stroke="#a69729"></path><path d="M551.1 417.5L523.1 418.4L522.3 436.4Z" fill="#a69729" stroke="#a69729"></path><path d="M522.3 436.4L523.1 418.4L495.1 403.1Z" fill="#f0e9d4" stroke="#f0e9d4"></path><path d="M607.4 383.2L597.4 341.4L588.4 345.9Z" fill="#f0e9d4" stroke="#f0e9d4"></path><path d="M588.4 345.9L597.4 341.4L566.8 299.2Z" fill="#f8f4e9" stroke="#f8f4e9"></path><path d="M557.1 189.8L525.7 139.2L547.7 206.9Z" fill="#f0e9d4" stroke="#f0e9d4"></path><path d="M522.3 436.4L495.1 403.1L476.3 424.7Z" fill="#ffffff" stroke="#ffffff"></path><path d="M523.1 418.4L551.1 417.5L511.7 367.4Z" fill="#d7c995" stroke="#d7c995"></path><path d="M275.5 280.1L297.8 355.4L335.3 322.1Z" fill="#c5b56b" stroke="#c5b56b"></path><path d="M335.3 322.1L297.8 355.4L364.9 354.4Z" fill="#e8debf" stroke="#e8debf"></path><path d="M468.4 510.5L522.3 436.4L476.3 424.7Z" fill="#b1a141" stroke="#b1a141"></path><path d="M330.3 129.3L363.6 141.5L342.3 101.6Z" fill="#d7c995" stroke="#d7c995"></path><path d="M417.9 145.8L363.6 141.5L381.3 186.5Z" fill="#d7c995" stroke="#d7c995"></path><path d="M566.7 135.6L551.4 149.6L602.1 151.5Z" fill="#cebf80" stroke="#cebf80"></path><path d="M557.1 189.8L551.4 149.6L525.7 139.2Z" fill="#e0d4aa" stroke="#e0d4aa"></path><path d="M270.2 273.1L275.5 280.1L275.8 231.5Z" fill="#a69729" stroke="#a69729"></path><path d="M323.6 226.6L275.5 280.1L335.3 322.1Z" fill="#b1a141" stroke="#b1a141"></path><path d="M607.4 383.2L621.2 324.9L597.4 341.4Z" fill="#d7c995" stroke="#d7c995"></path><path d="M597.4 341.4L621.2 324.9L566.8 299.2Z" fill="#f0e9d4" stroke="#f0e9d4"></path><path d="M588.8 266.9L617.8 179.8L557.1 189.8Z" fill="#d7c995" stroke="#d7c995"></path><path d="M297.8 355.4L325.8 415.1L364.9 354.4Z" fill="#a69729" stroke="#a69729"></path><path d="M397.7 411.5L372.2 491.7L440.7 432.7Z" fill="#a69729" stroke="#a69729"></path><path d="M653.2 397.4L625.2 322.8L621.2 324.9Z" fill="#f0e9d4" stroke="#f0e9d4"></path><path d="M621.2 324.9L631.2 278.2L588.8 266.9Z" fill="#cebf80" stroke="#cebf80"></path><path d="M275.8 231.5L275.5 280.1L323.6 226.6Z" fill="#f0e9d4" stroke="#f0e9d4"></path><path d="M247.5 317.4L285.6 361.1L297.8 355.4Z" fill="#cebf80" stroke="#cebf80"></path><path d="M247.5 317.4L297.8 355.4L275.5 280.1Z" fill="#e8debf" stroke="#e8debf"></path><path d="M297.8 355.4L285.6 361.1L325.8 415.1Z" fill="#e0d4aa" stroke="#e0d4aa"></path><path d="M625.2 322.8L631.2 278.2L621.2 324.9Z" fill="#e8debf" stroke="#e8debf"></path><path d="M260.6 220.8L275.8 231.5L289.2 148.3Z" fill="#d7c995" stroke="#d7c995"></path><path d="M573.4 431.7L607.4 383.2L551.1 417.5Z" fill="#f0e9d4" stroke="#f0e9d4"></path><path d="M551.1 417.5L607.4 383.2L588.4 345.9Z" fill="#a69729" stroke="#a69729"></path><path d="M602.1 151.5L551.4 149.6L557.1 189.8Z" fill="#ffffff" stroke="#ffffff"></path><path d="M551.4 149.6L566.7 135.6L525.7 139.2Z" fill="#f0e9d4" stroke="#f0e9d4"></path><path d="M342.3 101.6L363.6 141.5L383.9 78.2Z" fill="#a69729" stroke="#a69729"></path><path d="M522.3 436.4L573.4 431.7L551.1 417.5Z" fill="#e0d4aa" stroke="#e0d4aa"></path><path d="M383.9 78.2L417.9 145.8L476.7 44.5Z" fill="#c5b56b" stroke="#c5b56b"></path><path d="M363.6 141.5L330.3 129.3L364.2 211.9Z" fill="#b1a141" stroke="#b1a141"></path><path d="M631.2 278.2L617.8 179.8L588.8 266.9Z" fill="#cebf80" stroke="#cebf80"></path><path d="M289.2 148.3L275.8 231.5L323.6 226.6Z" fill="#b1a141" stroke="#b1a141"></path><path d="M275.8 231.5L249.6 256.9L270.2 273.1Z" fill="#ffffff" stroke="#ffffff"></path><path d="M270.2 273.1L247.5 317.4L275.5 280.1Z" fill="#bbab57" stroke="#bbab57"></path><path d="M625.2 322.8L650.4 278.8L631.2 278.2Z" fill="#f8f4e9" stroke="#f8f4e9"></path><path d="M631.2 278.2L660.4 184.5L617.8 179.8Z" fill="#b1a141" stroke="#b1a141"></path><path d="M679.8 334.1L650.4 278.8L625.2 322.8Z" fill="#e0d4aa" stroke="#e0d4aa"></path><path d="M245.2 248.6L249.6 256.9L275.8 231.5Z" fill="#f0e9d4" stroke="#f0e9d4"></path><path d="M617.8 179.8L602.1 151.5L557.1 189.8Z" fill="#a69729" stroke="#a69729"></path><path d="M330.6 460.4L341.3 457.5L325.8 415.1Z" fill="#d7c995" stroke="#d7c995"></path><path d="M325.8 415.1L341.3 457.5L397.7 411.5Z" fill="#d7c995" stroke="#d7c995"></path><path d="M440.7 432.7L468.4 510.5L476.3 424.7Z" fill="#cebf80" stroke="#cebf80"></path><path d="M522.3 436.4L573.2 480.5L573.4 431.7Z" fill="#bbab57" stroke="#bbab57"></path><path d="M249.6 256.9L247.5 317.4L270.2 273.1Z" fill="#d7c995" stroke="#d7c995"></path><path d="M283.6 437.7L330.6 460.4L325.8 415.1Z" fill="#ffffff" stroke="#ffffff"></path><path d="M260.6 220.8L245.2 248.6L275.8 231.5Z" fill="#a69729" stroke="#a69729"></path><path d="M249.6 256.9L233.1 318.8L247.5 317.4Z" fill="#e0d4aa" stroke="#e0d4aa"></path><path d="M330.3 129.3L289.2 148.3L323.6 226.6Z" fill="#f0e9d4" stroke="#f0e9d4"></path><path d="M193.1 243.6L194.8 245.6L189.7 209.9Z" fill="#f8f4e9" stroke="#f8f4e9"></path><path d="M261.8 409.2L325.8 415.1L285.6 361.1Z" fill="#f0e9d4" stroke="#f0e9d4"></path><path d="M341.3 457.5L372.2 491.7L397.7 411.5Z" fill="#e8debf" stroke="#e8debf"></path><path d="M590.8 123.2L569.8 110.6L566.7 135.6Z" fill="#e8debf" stroke="#e8debf"></path><path d="M566.7 135.6L569.8 110.6L525.7 139.2Z" fill="#e0d4aa" stroke="#e0d4aa"></path><path d="M383.9 78.2L363.6 141.5L417.9 145.8Z" fill="#f8f4e9" stroke="#f8f4e9"></path><path d="M330.3 129.3L290.9 124.6L289.2 148.3Z" fill="#c5b56b" stroke="#c5b56b"></path><path d="M616.1 107.2L596.1 130.3L602.1 151.5Z" fill="#d7c995" stroke="#d7c995"></path><path d="M602.1 151.5L596.1 130.3L566.7 135.6Z" fill="#e8debf" stroke="#e8debf"></path><path d="M596.1 130.3L590.8 123.2L566.7 135.6Z" fill="#f0e9d4" stroke="#f0e9d4"></path><path d="M290.9 124.6L283.2 148.8L289.2 148.3Z" fill="#c5b56b" stroke="#c5b56b"></path><path d="M289.2 148.3L283.2 148.8L260.6 220.8Z" fill="#e0d4aa" stroke="#e0d4aa"></path><path d="M476.7 44.5L417.9 145.8L525.7 139.2Z" fill="#cebf80" stroke="#cebf80"></path><path d="M194.8 245.6L233.1 318.8L249.6 256.9Z" fill="#f0e9d4" stroke="#f0e9d4"></path><path d="M247.5 317.4L232.8 327.9L285.6 361.1Z" fill="#e8debf" stroke="#e8debf"></path><path d="M350.9 488.7L372.2 491.7L341.3 457.5Z" fill="#b1a141" stroke="#b1a141"></path><path d="M233.1 318.8L232.8 327.9L247.5 317.4Z" fill="#f0e9d4" stroke="#f0e9d4"></path><path d="M232.8 327.9L261.8 409.2L285.6 361.1Z" fill="#e8debf" stroke="#e8debf"></path><path d="M330.6 460.4L350.9 488.7L341.3 457.5Z" fill="#ffffff" stroke="#ffffff"></path><path d="M261.8 409.2L283.6 437.7L325.8 415.1Z" fill="#bbab57" stroke="#bbab57"></path><path d="M291.9 116.3L330.3 129.3L342.3 101.6Z" fill="#e8debf" stroke="#e8debf"></path><path d="M291.9 116.3L290.9 124.6L330.3 129.3Z" fill="#ffffff" stroke="#ffffff"></path><path d="M283.2 148.8L201.1 160.5L260.6 220.8Z" fill="#e0d4aa" stroke="#e0d4aa"></path><path d="M372.2 491.7L468.4 510.5L440.7 432.7Z" fill="#ffffff" stroke="#ffffff"></path><path d="M315.2 477.4L350.9 488.7L330.6 460.4Z" fill="#cebf80" stroke="#cebf80"></path><path d="M372.2 491.7L358.6 523.5L468.4 510.5Z" fill="#bbab57" stroke="#bbab57"></path><path d="M468.4 510.5L573.2 480.5L522.3 436.4Z" fill="#ffffff" stroke="#ffffff"></path><path d="M644.5 427.4L653.2 397.4L607.4 383.2Z" fill="#c5b56b" stroke="#c5b56b"></path><path d="M607.4 383.2L653.2 397.4L621.2 324.9Z" fill="#e8debf" stroke="#e8debf"></path><path d="M289.9 0L291.9 116.3L342.3 101.6Z" fill="#e8debf" stroke="#e8debf"></path><path d="M290.9 124.6L272.2 133.5L283.2 148.8Z" fill="#ffffff" stroke="#ffffff"></path><path d="M644.5 427.4L607.4 383.2L573.4 431.7Z" fill="#e0d4aa" stroke="#e0d4aa"></path><path d="M291.9 116.3L272.2 133.5L290.9 124.6Z" fill="#bbab57" stroke="#bbab57"></path><path d="M686.2 271.1L660.4 184.5L650.4 278.8Z" fill="#cebf80" stroke="#cebf80"></path><path d="M650.4 278.8L660.4 184.5L631.2 278.2Z" fill="#ffffff" stroke="#ffffff"></path><path d="M617.8 179.8L670.5 139.8L602.1 151.5Z" fill="#a69729" stroke="#a69729"></path><path d="M596.1 130.3L616.1 107.2L590.8 123.2Z" fill="#f0e9d4" stroke="#f0e9d4"></path><path d="M283.6 437.7L315.2 477.4L330.6 460.4Z" fill="#b1a141" stroke="#b1a141"></path><path d="M653.2 397.4L679.8 334.1L625.2 322.8Z" fill="#b1a141" stroke="#b1a141"></path><path d="M679.8 334.1L686.2 271.1L650.4 278.8Z" fill="#d7c995" stroke="#d7c995"></path><path d="M612.8 499.5L644.5 427.4L573.4 431.7Z" fill="#b1a141" stroke="#b1a141"></path><path d="M653.2 397.4L701.5 390.1L679.8 334.1Z" fill="#bbab57" stroke="#bbab57"></path><path d="M512.7 23.3L476.7 44.5L569.8 110.6Z" fill="#c5b56b" stroke="#c5b56b"></path><path d="M569.8 110.6L476.7 44.5L525.7 139.2Z" fill="#c5b56b" stroke="#c5b56b"></path><path d="M686.2 271.1L670.2 184.5L660.4 184.5Z" fill="#f0e9d4" stroke="#f0e9d4"></path><path d="M670.5 139.8L616.1 107.2L602.1 151.5Z" fill="#a69729" stroke="#a69729"></path><path d="M670.5 139.8L617.8 179.8L660.4 184.5Z" fill="#b1a141" stroke="#b1a141"></path><path d="M590.8 123.2L616.1 107.2L569.8 110.6Z" fill="#bbab57" stroke="#bbab57"></path><path d="M254.8 463.8L277.5 460.2L283.6 437.7Z" fill="#bbab57" stroke="#bbab57"></path><path d="M283.6 437.7L277.5 460.2L315.2 477.4Z" fill="#e8debf" stroke="#e8debf"></path><path d="M254.8 463.8L283.6 437.7L261.8 409.2Z" fill="#f0e9d4" stroke="#f0e9d4"></path><path d="M476.7 44.5L407.9 42.5L383.9 78.2Z" fill="#cebf80" stroke="#cebf80"></path><path d="M383.9 78.2L367.6 31.2L342.3 101.6Z" fill="#c5b56b" stroke="#c5b56b"></path><path d="M249.6 529.8L358.6 523.5L315.2 477.4Z" fill="#e8debf" stroke="#e8debf"></path><path d="M315.2 477.4L358.6 523.5L350.9 488.7Z" fill="#d7c995" stroke="#d7c995"></path><path d="M350.9 488.7L358.6 523.5L372.2 491.7Z" fill="#e8debf" stroke="#e8debf"></path><path d="M194.8 245.6L245.2 248.6L189.7 209.9Z" fill="#ffffff" stroke="#ffffff"></path><path d="M245.2 248.6L194.8 245.6L249.6 256.9Z" fill="#a69729" stroke="#a69729"></path><path d="M233.1 318.8L161.1 351.1L232.8 327.9Z" fill="#e0d4aa" stroke="#e0d4aa"></path><path d="M205.2 468.5L254.8 463.8L261.8 409.2Z" fill="#d7c995" stroke="#d7c995"></path><path d="M189.7 209.9L245.2 248.6L260.6 220.8Z" fill="#e0d4aa" stroke="#e0d4aa"></path><path d="M144.7 294.2L161.1 351.1L233.1 318.8Z" fill="#f0e9d4" stroke="#f0e9d4"></path><path d="M158.7 361.1L261.8 409.2L232.8 327.9Z" fill="#c5b56b" stroke="#c5b56b"></path><path d="M277.5 460.2L249.6 529.8L315.2 477.4Z" fill="#e0d4aa" stroke="#e0d4aa"></path><path d="M670.2 184.5L670.5 139.8L660.4 184.5Z" fill="#a69729" stroke="#a69729"></path><path d="M736.3 128.6L670.5 139.8L748.2 145.6Z" fill="#e0d4aa" stroke="#e0d4aa"></path><path d="M703.9 454.8L676.9 423.7L644.5 427.4Z" fill="#ffffff" stroke="#ffffff"></path><path d="M644.5 427.4L676.9 423.7L653.2 397.4Z" fill="#e0d4aa" stroke="#e0d4aa"></path><path d="M743.9 258.6L712.5 240.6L686.2 271.1Z" fill="#c5b56b" stroke="#c5b56b"></path><path d="M740.5 322.9L686.2 271.1L679.8 334.1Z" fill="#cebf80" stroke="#cebf80"></path><path d="M686.2 271.1L712.5 240.6L670.2 184.5Z" fill="#f8f4e9" stroke="#f8f4e9"></path><path d="M408.7 0L367.6 31.2L407.9 42.5Z" fill="#f8f4e9" stroke="#f8f4e9"></path><path d="M407.9 42.5L367.6 31.2L383.9 78.2Z" fill="#ffffff" stroke="#ffffff"></path><path d="M291.9 116.3L240.6 105.3L272.2 133.5Z" fill="#b1a141" stroke="#b1a141"></path><path d="M468.4 510.5L557.1 531.8L573.2 480.5Z" fill="#b1a141" stroke="#b1a141"></path><path d="M573.2 480.5L612.8 499.5L573.4 431.7Z" fill="#e0d4aa" stroke="#e0d4aa"></path><path d="M516.3 600L557.1 531.8L468.4 510.5Z" fill="#f0e9d4" stroke="#f0e9d4"></path><path d="M581.4 536.8L612.8 499.5L573.2 480.5Z" fill="#c5b56b" stroke="#c5b56b"></path><path d="M569.2 31.3L569.8 110.6L616.1 107.2Z" fill="#d7c995" stroke="#d7c995"></path><path d="M569.2 31.3L512.7 23.3L569.8 110.6Z" fill="#e0d4aa" stroke="#e0d4aa"></path><path d="M476.7 44.5L466.3 5.2L407.9 42.5Z" fill="#cebf80" stroke="#cebf80"></path><path d="M201.1 160.5L189.7 209.9L260.6 220.8Z" fill="#f0e9d4" stroke="#f0e9d4"></path><path d="M201.1 160.5L283.2 148.8L272.2 133.5Z" fill="#e8debf" stroke="#e8debf"></path><path d="M676.9 423.7L701.5 390.1L653.2 397.4Z" fill="#cebf80" stroke="#cebf80"></path><path d="M272.6 0L240.6 105.3L291.9 116.3Z" fill="#e8debf" stroke="#e8debf"></path><path d="M581.4 536.8L569.2 535.8L585.2 590.7Z" fill="#ffffff" stroke="#ffffff"></path><path d="M557.1 531.8L569.2 535.8L573.2 480.5Z" fill="#ffffff" stroke="#ffffff"></path><path d="M240.6 105.3L201.1 160.5L272.2 133.5Z" fill="#e0d4aa" stroke="#e0d4aa"></path><path d="M512.7 23.3L466.3 5.2L476.7 44.5Z" fill="#bbab57" stroke="#bbab57"></path><path d="M646.5 83.5L569.2 31.3L616.1 107.2Z" fill="#f8f4e9" stroke="#f8f4e9"></path><path d="M512.7 23.3L518.3 0L466.3 5.2Z" fill="#d7c995" stroke="#d7c995"></path><path d="M670.5 139.8L646.5 83.5L616.1 107.2Z" fill="#bbab57" stroke="#bbab57"></path><path d="M602.1 552.7L581.4 536.8L585.2 590.7Z" fill="#f8f4e9" stroke="#f8f4e9"></path><path d="M569.2 535.8L581.4 536.8L573.2 480.5Z" fill="#e0d4aa" stroke="#e0d4aa"></path><path d="M612.8 499.5L703.9 454.8L644.5 427.4Z" fill="#bbab57" stroke="#bbab57"></path><path d="M466.3 5.2L408.7 0L407.9 42.5Z" fill="#b1a141" stroke="#b1a141"></path><path d="M210.5 18.3L217.5 100.5L240.6 105.3Z" fill="#b1a141" stroke="#b1a141"></path><path d="M701.5 390.1L740.5 322.9L679.8 334.1Z" fill="#cebf80" stroke="#cebf80"></path><path d="M519.1 0L518.3 0L512.7 23.3Z" fill="#c5b56b" stroke="#c5b56b"></path><path d="M466.3 5.2L629.2 -48.8L408.7 0Z" fill="#f8f4e9" stroke="#f8f4e9"></path><path d="M533.8 0L519.1 0L512.7 23.3Z" fill="#c5b56b" stroke="#c5b56b"></path><path d="M586.4 0L553.4 9.2L569.2 31.3Z" fill="#bbab57" stroke="#bbab57"></path><path d="M569.2 31.3L553.4 9.2L512.7 23.3Z" fill="#a69729" stroke="#a69729"></path><path d="M747.5 307.2L743.9 258.6L686.2 271.1Z" fill="#ffffff" stroke="#ffffff"></path><path d="M748.2 145.6L670.5 139.8L670.2 184.5Z" fill="#ffffff" stroke="#ffffff"></path><path d="M670.5 139.8L741.3 97.2L646.5 83.5Z" fill="#e0d4aa" stroke="#e0d4aa"></path><path d="M144.7 294.2L194.8 245.6L193.1 243.6Z" fill="#e0d4aa" stroke="#e0d4aa"></path><path d="M144.7 294.2L233.1 318.8L194.8 245.6Z" fill="#b1a141" stroke="#b1a141"></path><path d="M321.2 0L342.3 101.6L367.6 31.2Z" fill="#c5b56b" stroke="#c5b56b"></path><path d="M240.6 105.3L217.5 100.5L201.1 160.5Z" fill="#ffffff" stroke="#ffffff"></path><path d="M553.4 9.2L533.8 0L512.7 23.3Z" fill="#ffffff" stroke="#ffffff"></path><path d="M740.5 322.9L747.5 307.2L686.2 271.1Z" fill="#f0e9d4" stroke="#f0e9d4"></path><path d="M553.4 9.2L539.8 0.3L533.8 0Z" fill="#bbab57" stroke="#bbab57"></path><path d="M93.4 304.2L158.7 361.1L161.1 351.1Z" fill="#a69729" stroke="#a69729"></path><path d="M161.1 351.1L158.7 361.1L232.8 327.9Z" fill="#bbab57" stroke="#bbab57"></path><path d="M124.5 225.8L144.7 294.2L193.1 243.6Z" fill="#b1a141" stroke="#b1a141"></path><path d="M124.5 225.8L193.1 243.6L189.7 209.9Z" fill="#b1a141" stroke="#b1a141"></path><path d="M124.5 225.8L189.7 209.9L141.8 158.8Z" fill="#e0d4aa" stroke="#e0d4aa"></path><path d="M158.7 361.1L205.2 468.5L261.8 409.2Z" fill="#a69729" stroke="#a69729"></path><path d="M254.8 463.8L249.6 529.8L277.5 460.2Z" fill="#cebf80" stroke="#cebf80"></path><path d="M707.8 486.7L703.9 454.8L612.8 499.5Z" fill="#e8debf" stroke="#e8debf"></path><path d="M676.9 423.7L713.5 451.5L701.5 390.1Z" fill="#a69729" stroke="#a69729"></path><path d="M701.5 390.1L749.9 373.2L740.5 322.9Z" fill="#f8f4e9" stroke="#f8f4e9"></path><path d="M740.5 322.9L822.3 338.9L747.5 307.2Z" fill="#f8f4e9" stroke="#f8f4e9"></path><path d="M561.1 600L569.2 535.8L557.1 531.8Z" fill="#a69729" stroke="#a69729"></path><path d="M581.4 536.8L602.1 552.7L612.8 499.5Z" fill="#f8f4e9" stroke="#f8f4e9"></path><path d="M707.8 486.7L713.5 451.5L703.9 454.8Z" fill="#f8f4e9" stroke="#f8f4e9"></path><path d="M703.9 454.8L713.5 451.5L676.9 423.7Z" fill="#cebf80" stroke="#cebf80"></path><path d="M749.3 389.4L749.9 373.2L701.5 390.1Z" fill="#c5b56b" stroke="#c5b56b"></path><path d="M408.7 0L321.2 0L367.6 31.2Z" fill="#d7c995" stroke="#d7c995"></path><path d="M416.6 600L468.4 510.5L358.6 523.5Z" fill="#cebf80" stroke="#cebf80"></path><path d="M416.6 600L457.3 599.8L468.4 510.5Z" fill="#a69729" stroke="#a69729"></path><path d="M457.3 599.8L476.9 600L468.4 510.5Z" fill="#f0e9d4" stroke="#f0e9d4"></path><path d="M201.5 508.5L249.6 529.8L254.8 463.8Z" fill="#f0e9d4" stroke="#f0e9d4"></path><path d="M331.8 584.7L416.6 600L358.6 523.5Z" fill="#f0e9d4" stroke="#f0e9d4"></path><path d="M457.3 599.8L424.9 613.8L476.9 600Z" fill="#e8debf" stroke="#e8debf"></path><path d="M624.2 0L586.4 0L569.2 31.3Z" fill="#bbab57" stroke="#bbab57"></path><path d="M553.4 9.2L586.4 0L539.8 0.3Z" fill="#c5b56b" stroke="#c5b56b"></path><path d="M539.8 0.3L629.2 -48.8L533.8 0Z" fill="#f0e9d4" stroke="#f0e9d4"></path><path d="M476.9 600L484.7 600L468.4 510.5Z" fill="#f8f4e9" stroke="#f8f4e9"></path><path d="M713.5 451.5L749.3 389.4L701.5 390.1Z" fill="#f0e9d4" stroke="#f0e9d4"></path><path d="M484.7 600L516.3 600L468.4 510.5Z" fill="#f8f4e9" stroke="#f8f4e9"></path><path d="M249.6 529.8L331.8 584.7L358.6 523.5Z" fill="#f8f4e9" stroke="#f8f4e9"></path><path d="M748.2 145.6L670.2 184.5L712.5 240.6Z" fill="#f8f4e9" stroke="#f8f4e9"></path><path d="M653.5 19.3L624.2 0L569.2 31.3Z" fill="#b1a141" stroke="#b1a141"></path><path d="M748.2 145.6L712.5 240.6L795.6 194.6Z" fill="#e0d4aa" stroke="#e0d4aa"></path><path d="M321.2 0L289.9 0L342.3 101.6Z" fill="#e0d4aa" stroke="#e0d4aa"></path><path d="M822.3 338.9L776.9 280.9L747.5 307.2Z" fill="#d7c995" stroke="#d7c995"></path><path d="M747.5 307.2L776.9 280.9L743.9 258.6Z" fill="#f0e9d4" stroke="#f0e9d4"></path><path d="M822.3 338.9L740.5 322.9L749.9 373.2Z" fill="#cebf80" stroke="#cebf80"></path><path d="M707.3 518.8L707.8 486.7L612.8 499.5Z" fill="#e0d4aa" stroke="#e0d4aa"></path><path d="M713.5 451.5L758.9 401.4L749.3 389.4Z" fill="#f8f4e9" stroke="#f8f4e9"></path><path d="M394.7 623.8L424.9 613.8L416.6 600Z" fill="#d7c995" stroke="#d7c995"></path><path d="M416.6 600L424.9 613.8L457.3 599.8Z" fill="#f8f4e9" stroke="#f8f4e9"></path><path d="M476.9 600L424.9 613.8L484.7 600Z" fill="#e0d4aa" stroke="#e0d4aa"></path><path d="M484.7 600L424.9 613.8L516.3 600Z" fill="#b1a141" stroke="#b1a141"></path><path d="M795.6 194.6L712.5 240.6L743.9 258.6Z" fill="#c5b56b" stroke="#c5b56b"></path><path d="M759.3 433.2L758.9 401.4L713.5 451.5Z" fill="#f0e9d4" stroke="#f0e9d4"></path><path d="M749.3 389.4L758.9 401.4L749.9 373.2Z" fill="#bbab57" stroke="#bbab57"></path><path d="M141.8 158.8L201.1 160.5L141.4 150.3Z" fill="#bbab57" stroke="#bbab57"></path><path d="M141.8 158.8L189.7 209.9L201.1 160.5Z" fill="#b1a141" stroke="#b1a141"></path><path d="M117.1 444.4L150.1 454.2L158.7 361.1Z" fill="#bbab57" stroke="#bbab57"></path><path d="M141.4 150.3L201.1 160.5L146.5 116.6Z" fill="#c5b56b" stroke="#c5b56b"></path><path d="M516.3 600L561.1 600L557.1 531.8Z" fill="#a69729" stroke="#a69729"></path><path d="M602.1 552.7L707.3 518.8L612.8 499.5Z" fill="#f0e9d4" stroke="#f0e9d4"></path><path d="M695.8 632.8L561.1 600L516.3 600Z" fill="#a69729" stroke="#a69729"></path><path d="M205.2 468.5L201.5 508.5L254.8 463.8Z" fill="#cebf80" stroke="#cebf80"></path><path d="M249.6 529.8L308.2 600L331.8 584.7Z" fill="#ffffff" stroke="#ffffff"></path><path d="M150.1 454.2L201.5 508.5L205.2 468.5Z" fill="#c5b56b" stroke="#c5b56b"></path><path d="M561.1 600L585.2 590.7L569.2 535.8Z" fill="#e8debf" stroke="#e8debf"></path><path d="M653.5 19.3L569.2 31.3L646.5 83.5Z" fill="#cebf80" stroke="#cebf80"></path><path d="M741.3 97.2L653.5 19.3L646.5 83.5Z" fill="#b1a141" stroke="#b1a141"></path><path d="M289.9 0L272.6 0L291.9 116.3Z" fill="#a69729" stroke="#a69729"></path><path d="M146.5 116.6L201.1 160.5L217.5 100.5Z" fill="#ffffff" stroke="#ffffff"></path><path d="M141.8 158.8L101.5 176.9L124.5 225.8Z" fill="#a69729" stroke="#a69729"></path><path d="M695.8 632.8L582.4 600L561.1 600Z" fill="#f0e9d4" stroke="#f0e9d4"></path><path d="M561.1 600L582.4 600L585.2 590.7Z" fill="#f8f4e9" stroke="#f8f4e9"></path><path d="M628.8 600L707.3 518.8L602.1 552.7Z" fill="#d7c995" stroke="#d7c995"></path><path d="M331.8 584.7L394.7 623.8L416.6 600Z" fill="#f0e9d4" stroke="#f0e9d4"></path><path d="M424.9 613.8L394.7 623.8L516.3 600Z" fill="#e0d4aa" stroke="#e0d4aa"></path><path d="M301.2 636.8L394.7 623.8L331.8 584.7Z" fill="#f0e9d4" stroke="#f0e9d4"></path><path d="M707.8 486.7L759.3 433.2L713.5 451.5Z" fill="#e0d4aa" stroke="#e0d4aa"></path><path d="M819.3 188.5L812.9 191.8L847.3 288.1Z" fill="#e0d4aa" stroke="#e0d4aa"></path><path d="M93.4 304.2L161.1 351.1L144.7 294.2Z" fill="#e8debf" stroke="#e8debf"></path><path d="M158.7 361.1L150.1 454.2L205.2 468.5Z" fill="#cebf80" stroke="#cebf80"></path><path d="M288.5 613.8L308.2 600L249.6 529.8Z" fill="#e8debf" stroke="#e8debf"></path><path d="M289.9 0L261.2 -3.8L272.6 0Z" fill="#b1a141" stroke="#b1a141"></path><path d="M272.6 0L252.8 0L240.6 105.3Z" fill="#f8f4e9" stroke="#f8f4e9"></path><path d="M321.2 0L261.2 -3.8L289.9 0Z" fill="#f8f4e9" stroke="#f8f4e9"></path><path d="M629.2 -48.8L261.2 -3.8L321.2 0Z" fill="#cebf80" stroke="#cebf80"></path><path d="M629.2 -48.8L321.2 0L408.7 0Z" fill="#f0e9d4" stroke="#f0e9d4"></path><path d="M629.2 -48.8L466.3 5.2L518.3 0Z" fill="#c5b56b" stroke="#c5b56b"></path><path d="M629.2 -48.8L518.3 0L519.1 0Z" fill="#b1a141" stroke="#b1a141"></path><path d="M629.2 -48.8L519.1 0L533.8 0Z" fill="#bbab57" stroke="#bbab57"></path><path d="M629.2 -48.8L539.8 0.3L586.4 0Z" fill="#e0d4aa" stroke="#e0d4aa"></path><path d="M261.2 -3.8L252.8 0L272.6 0Z" fill="#f8f4e9" stroke="#f8f4e9"></path><path d="M134.4 90.5L146.5 116.6L144.8 66.3Z" fill="#f0e9d4" stroke="#f0e9d4"></path><path d="M83.4 220.6L101.1 271.9L124.5 225.8Z" fill="#a69729" stroke="#a69729"></path><path d="M748.2 145.6L741.3 97.2L736.3 128.6Z" fill="#a69729" stroke="#a69729"></path><path d="M736.3 128.6L741.3 97.2L670.5 139.8Z" fill="#a69729" stroke="#a69729"></path><path d="M787.9 83.5L741.3 97.2L748.2 145.6Z" fill="#a69729" stroke="#a69729"></path><path d="M612.5 600L602.1 552.7L585.2 590.7Z" fill="#ffffff" stroke="#ffffff"></path><path d="M707.8 486.7L832.3 524.7L759.3 433.2Z" fill="#f8f4e9" stroke="#f8f4e9"></path><path d="M101.5 176.9L141.8 158.8L141.4 150.3Z" fill="#d7c995" stroke="#d7c995"></path><path d="M124.5 225.8L101.1 271.9L144.7 294.2Z" fill="#cebf80" stroke="#cebf80"></path><path d="M230.5 0L237.1 4.2L252.8 0Z" fill="#f8f4e9" stroke="#f8f4e9"></path><path d="M252.8 0L237.1 4.2L240.6 105.3Z" fill="#c5b56b" stroke="#c5b56b"></path><path d="M676.5 0L653.4 -3.7L653.5 19.3Z" fill="#e0d4aa" stroke="#e0d4aa"></path><path d="M653.5 19.3L653.4 -3.7L624.2 0Z" fill="#d7c995" stroke="#d7c995"></path><path d="M624.2 0L636.5 -35.8L586.4 0Z" fill="#e0d4aa" stroke="#e0d4aa"></path><path d="M628.8 600L612.5 600L695.8 632.8Z" fill="#d7c995" stroke="#d7c995"></path><path d="M582.4 600L612.5 600L585.2 590.7Z" fill="#ffffff" stroke="#ffffff"></path><path d="M101.1 271.9L93.4 304.2L144.7 294.2Z" fill="#bbab57" stroke="#bbab57"></path><path d="M812.9 191.8L795.6 194.6L776.9 280.9Z" fill="#c5b56b" stroke="#c5b56b"></path><path d="M776.9 280.9L795.6 194.6L743.9 258.6Z" fill="#e8debf" stroke="#e8debf"></path><path d="M134.4 90.5L131.1 121.3L146.5 116.6Z" fill="#f0e9d4" stroke="#f0e9d4"></path><path d="M146.5 116.6L131.1 121.3L141.4 150.3Z" fill="#cebf80" stroke="#cebf80"></path><path d="M101.1 271.9L51.4 257.1L93.4 304.2Z" fill="#c5b56b" stroke="#c5b56b"></path><path d="M237.1 4.2L210.5 18.3L240.6 105.3Z" fill="#a69729" stroke="#a69729"></path><path d="M261.2 -3.8L230.5 0L252.8 0Z" fill="#e8debf" stroke="#e8debf"></path><path d="M237.1 4.2L230.5 0L210.5 18.3Z" fill="#c5b56b" stroke="#c5b56b"></path><path d="M685.5 604.7L628.8 600L695.8 632.8Z" fill="#ffffff" stroke="#ffffff"></path><path d="M612.5 600L628.8 600L602.1 552.7Z" fill="#cebf80" stroke="#cebf80"></path><path d="M721.9 0L676.5 0L653.5 19.3Z" fill="#c5b56b" stroke="#c5b56b"></path><path d="M131.1 121.3L101.5 176.9L141.4 150.3Z" fill="#ffffff" stroke="#ffffff"></path><path d="M189.1 551.8L249.6 529.8L201.5 508.5Z" fill="#f0e9d4" stroke="#f0e9d4"></path><path d="M220.5 600L288.5 613.8L249.6 529.8Z" fill="#f0e9d4" stroke="#f0e9d4"></path><path d="M308.2 600L301.2 636.8L331.8 584.7Z" fill="#f0e9d4" stroke="#f0e9d4"></path><path d="M93.4 304.2L117.1 444.4L158.7 361.1Z" fill="#f8f4e9" stroke="#f8f4e9"></path><path d="M144.8 515.5L183.5 540.7L201.5 508.5Z" fill="#ffffff" stroke="#ffffff"></path><path d="M144.8 515.5L201.5 508.5L150.1 454.2Z" fill="#c5b56b" stroke="#c5b56b"></path><path d="M144.8 66.3L146.5 116.6L217.5 100.5Z" fill="#ffffff" stroke="#ffffff"></path><path d="M131.1 121.3L86.7 107.6L101.5 176.9Z" fill="#b1a141" stroke="#b1a141"></path><path d="M676.5 0L636.5 -35.8L653.4 -3.7Z" fill="#ffffff" stroke="#ffffff"></path><path d="M653.4 -3.7L636.5 -35.8L624.2 0Z" fill="#cebf80" stroke="#cebf80"></path><path d="M76.7 212.8L83.4 220.6L101.5 176.9Z" fill="#bbab57" stroke="#bbab57"></path><path d="M101.5 176.9L83.4 220.6L124.5 225.8Z" fill="#e0d4aa" stroke="#e0d4aa"></path><path d="M135.4 531.5L189.1 551.8L183.5 540.7Z" fill="#f8f4e9" stroke="#f8f4e9"></path><path d="M183.5 540.7L189.1 551.8L201.5 508.5Z" fill="#f0e9d4" stroke="#f0e9d4"></path><path d="M795.6 194.6L798.9 153.3L748.2 145.6Z" fill="#a69729" stroke="#a69729"></path><path d="M741.3 97.2L721.9 0L653.5 19.3Z" fill="#c5b56b" stroke="#c5b56b"></path><path d="M822.3 338.9L749.9 373.2L822.9 343.1Z" fill="#b1a141" stroke="#b1a141"></path><path d="M795.6 194.6L812.9 191.8L798.9 153.3Z" fill="#bbab57" stroke="#bbab57"></path><path d="M210.5 18.3L144.8 66.3L217.5 100.5Z" fill="#e8debf" stroke="#e8debf"></path><path d="M136.8 61.2L144.8 66.3L210.5 18.3Z" fill="#b1a141" stroke="#b1a141"></path><path d="M822.9 343.1L758.9 401.4L851.6 366.5Z" fill="#c5b56b" stroke="#c5b56b"></path><path d="M822.9 343.1L749.9 373.2L758.9 401.4Z" fill="#e8debf" stroke="#e8debf"></path><path d="M851.6 366.5L758.9 401.4L759.3 433.2Z" fill="#cebf80" stroke="#cebf80"></path><path d="M847.3 288.1L812.9 191.8L776.9 280.9Z" fill="#f8f4e9" stroke="#f8f4e9"></path><path d="M721.9 0L629.2 -48.8L636.5 -35.8Z" fill="#b1a141" stroke="#b1a141"></path><path d="M636.5 -35.8L629.2 -48.8L586.4 0Z" fill="#bbab57" stroke="#bbab57"></path><path d="M135.4 531.5L119.7 473.5L106.4 544.8Z" fill="#e8debf" stroke="#e8debf"></path><path d="M117.1 444.4L119.7 473.5L150.1 454.2Z" fill="#e8debf" stroke="#e8debf"></path><path d="M29.4 220.9L76.7 212.8L101.5 176.9Z" fill="#bbab57" stroke="#bbab57"></path><path d="M83.4 220.6L51.4 257.1L101.1 271.9Z" fill="#e8debf" stroke="#e8debf"></path><path d="M0 372.1L38.7 450.4L117.1 444.4Z" fill="#f0e9d4" stroke="#f0e9d4"></path><path d="M86.7 107.6L131.1 121.3L134.4 90.5Z" fill="#ffffff" stroke="#ffffff"></path><path d="M220.5 600L301.2 636.8L288.5 613.8Z" fill="#ffffff" stroke="#ffffff"></path><path d="M288.5 613.8L301.2 636.8L308.2 600Z" fill="#cebf80" stroke="#cebf80"></path><path d="M695.8 632.8L612.5 600L582.4 600Z" fill="#bbab57" stroke="#bbab57"></path><path d="M119.7 473.5L144.8 515.5L150.1 454.2Z" fill="#b1a141" stroke="#b1a141"></path><path d="M847.3 288.1L776.9 280.9L822.3 338.9Z" fill="#cebf80" stroke="#cebf80"></path><path d="M812.9 191.8L819.3 188.5L798.9 153.3Z" fill="#ffffff" stroke="#ffffff"></path><path d="M125.4 0L136.8 61.2L210.5 18.3Z" fill="#f8f4e9" stroke="#f8f4e9"></path><path d="M144.8 66.3L136.8 61.2L134.4 90.5Z" fill="#e0d4aa" stroke="#e0d4aa"></path><path d="M695.9 600L723.5 557.8L707.3 518.8Z" fill="#bbab57" stroke="#bbab57"></path><path d="M707.3 518.8L832.3 524.7L707.8 486.7Z" fill="#ffffff" stroke="#ffffff"></path><path d="M185.8 600L220.5 600L189.1 551.8Z" fill="#cebf80" stroke="#cebf80"></path><path d="M189.1 551.8L220.5 600L249.6 529.8Z" fill="#cebf80" stroke="#cebf80"></path><path d="M798.9 153.3L787.9 83.5L748.2 145.6Z" fill="#b1a141" stroke="#b1a141"></path><path d="M676.5 0L721.9 0L636.5 -35.8Z" fill="#d7c995" stroke="#d7c995"></path><path d="M844.9 102.2L787.9 83.5L798.9 153.3Z" fill="#e0d4aa" stroke="#e0d4aa"></path><path d="M787.9 83.5L721.9 0L741.3 97.2Z" fill="#d7c995" stroke="#d7c995"></path><path d="M628.8 600L685.5 604.7L707.3 518.8Z" fill="#e8debf" stroke="#e8debf"></path><path d="M695.8 632.8L516.3 600L394.7 623.8Z" fill="#bbab57" stroke="#bbab57"></path><path d="M851.3 303.8L847.3 288.1L822.3 338.9Z" fill="#cebf80" stroke="#cebf80"></path><path d="M119.7 473.5L135.4 531.5L144.8 515.5Z" fill="#bbab57" stroke="#bbab57"></path><path d="M144.8 515.5L135.4 531.5L183.5 540.7Z" fill="#ffffff" stroke="#ffffff"></path><path d="M29.4 220.9L51.4 257.1L76.7 212.8Z" fill="#c5b56b" stroke="#c5b56b"></path><path d="M76.7 212.8L51.4 257.1L83.4 220.6Z" fill="#c5b56b" stroke="#c5b56b"></path><path d="M106.4 544.8L113.1 544.7L135.4 531.5Z" fill="#f8f4e9" stroke="#f8f4e9"></path><path d="M685.5 604.7L695.9 600L707.3 518.8Z" fill="#c5b56b" stroke="#c5b56b"></path><path d="M851.6 366.5L851.3 303.8L822.3 338.9Z" fill="#ffffff" stroke="#ffffff"></path><path d="M851.6 366.5L822.3 338.9L822.9 343.1Z" fill="#e0d4aa" stroke="#e0d4aa"></path><path d="M136.8 61.2L86.7 107.6L134.4 90.5Z" fill="#b1a141" stroke="#b1a141"></path><path d="M851.3 303.8L854.6 291.8L847.3 288.1Z" fill="#bbab57" stroke="#bbab57"></path><path d="M847.3 288.1L851.3 182.3L819.3 188.5Z" fill="#a69729" stroke="#a69729"></path><path d="M819.3 188.5L851.3 182.3L798.9 153.3Z" fill="#a69729" stroke="#a69729"></path><path d="M695.9 600L707.2 600L723.5 557.8Z" fill="#f8f4e9" stroke="#f8f4e9"></path><path d="M891.3 394.5L851.6 366.5L759.3 433.2Z" fill="#ffffff" stroke="#ffffff"></path><path d="M695.8 632.8L707.2 600L695.9 600Z" fill="#d7c995" stroke="#d7c995"></path><path d="M832.3 524.7L707.3 518.8L723.5 557.8Z" fill="#d7c995" stroke="#d7c995"></path><path d="M851.3 303.8L900 293.1L854.6 291.8Z" fill="#e8debf" stroke="#e8debf"></path><path d="M220.5 600L180.7 630.8L301.2 636.8Z" fill="#f0e9d4" stroke="#f0e9d4"></path><path d="M120.1 600L185.8 600L189.1 551.8Z" fill="#b1a141" stroke="#b1a141"></path><path d="M900 234.5L851.3 182.3L847.3 288.1Z" fill="#cebf80" stroke="#cebf80"></path><path d="M106.4 544.8L119.7 473.5L81.1 550.5Z" fill="#e0d4aa" stroke="#e0d4aa"></path><path d="M135.4 531.5L120.1 600L189.1 551.8Z" fill="#a69729" stroke="#a69729"></path><path d="M0 123.6L29.4 220.9L101.5 176.9Z" fill="#bbab57" stroke="#bbab57"></path><path d="M51.4 257.1L0 297.2L93.4 304.2Z" fill="#b1a141" stroke="#b1a141"></path><path d="M685.5 604.7L695.8 632.8L695.9 600Z" fill="#c5b56b" stroke="#c5b56b"></path><path d="M814.3 600L832.3 524.7L723.5 557.8Z" fill="#e8debf" stroke="#e8debf"></path><path d="M301.2 636.8L695.8 632.8L394.7 623.8Z" fill="#cebf80" stroke="#cebf80"></path><path d="M29.4 220.9L21.4 247.8L51.4 257.1Z" fill="#f8f4e9" stroke="#f8f4e9"></path><path d="M38.7 450.4L119.7 473.5L117.1 444.4Z" fill="#cebf80" stroke="#cebf80"></path><path d="M120.1 600L180.7 630.8L185.8 600Z" fill="#bbab57" stroke="#bbab57"></path><path d="M136.8 61.2L98.1 0L86.7 107.6Z" fill="#b1a141" stroke="#b1a141"></path><path d="M0 123.6L0 250.9L29.4 220.9Z" fill="#e0d4aa" stroke="#e0d4aa"></path><path d="M230.5 0L125.4 0L210.5 18.3Z" fill="#cebf80" stroke="#cebf80"></path><path d="M100.5 -10.8L125.4 0L91.4 -23.8Z" fill="#e8debf" stroke="#e8debf"></path><path d="M116.7 0L125.4 0L100.5 -10.8Z" fill="#d7c995" stroke="#d7c995"></path><path d="M851.3 182.3L844.9 102.2L798.9 153.3Z" fill="#b1a141" stroke="#b1a141"></path><path d="M787.9 83.5L785.3 0L721.9 0Z" fill="#ffffff" stroke="#ffffff"></path><path d="M185.8 600L180.7 630.8L220.5 600Z" fill="#d7c995" stroke="#d7c995"></path><path d="M120.1 600L135.4 531.5L113.1 544.7Z" fill="#a69729" stroke="#a69729"></path><path d="M125.4 0L230.5 0L91.4 -23.8Z" fill="#ffffff" stroke="#ffffff"></path><path d="M125.4 0L116.7 0L136.8 61.2Z" fill="#f0e9d4" stroke="#f0e9d4"></path><path d="M844.9 102.2L785.3 0L787.9 83.5Z" fill="#b1a141" stroke="#b1a141"></path><path d="M721.9 0L785.3 0L629.2 -48.8Z" fill="#e8debf" stroke="#e8debf"></path><path d="M0 372.1L117.1 444.4L93.4 304.2Z" fill="#d7c995" stroke="#d7c995"></path><path d="M0 250.9L0 297.2L21.4 247.8Z" fill="#f0e9d4" stroke="#f0e9d4"></path><path d="M21.4 247.8L0 297.2L51.4 257.1Z" fill="#e8debf" stroke="#e8debf"></path><path d="M900 340.9L900 293.1L851.3 303.8Z" fill="#f0e9d4" stroke="#f0e9d4"></path><path d="M854.6 291.8L900 234.5L847.3 288.1Z" fill="#cebf80" stroke="#cebf80"></path><path d="M851.3 182.3L900 188.8L844.9 102.2Z" fill="#e8debf" stroke="#e8debf"></path><path d="M900 340.9L851.3 303.8L851.6 366.5Z" fill="#c5b56b" stroke="#c5b56b"></path><path d="M0 297.2L0 311.8L93.4 304.2Z" fill="#cebf80" stroke="#cebf80"></path><path d="M0 123.6L101.5 176.9L86.7 107.6Z" fill="#e0d4aa" stroke="#e0d4aa"></path><path d="M29.4 220.9L0 250.9L21.4 247.8Z" fill="#bbab57" stroke="#bbab57"></path><path d="M814.3 600L723.5 557.8L707.2 600Z" fill="#e8debf" stroke="#e8debf"></path><path d="M100.5 -10.8L98.1 0L116.7 0Z" fill="#bbab57" stroke="#bbab57"></path><path d="M116.7 0L98.1 0L136.8 61.2Z" fill="#f8f4e9" stroke="#f8f4e9"></path><path d="M900 293.1L900 234.5L854.6 291.8Z" fill="#e0d4aa" stroke="#e0d4aa"></path><path d="M900 358.2L900 340.9L851.6 366.5Z" fill="#b1a141" stroke="#b1a141"></path><path d="M38.7 450.4L81.1 550.5L119.7 473.5Z" fill="#f0e9d4" stroke="#f0e9d4"></path><path d="M98.7 584.7L120.1 600L113.1 544.7Z" fill="#f8f4e9" stroke="#f8f4e9"></path><path d="M900 486.5L891.3 394.5L759.3 433.2Z" fill="#bbab57" stroke="#bbab57"></path><path d="M98.7 584.7L113.1 544.7L106.4 544.8Z" fill="#cebf80" stroke="#cebf80"></path><path d="M891.3 394.5L900 358.2L851.6 366.5Z" fill="#f8f4e9" stroke="#f8f4e9"></path><path d="M91.4 -23.8L230.5 0L261.2 -3.8Z" fill="#b1a141" stroke="#b1a141"></path><path d="M0 116.2L0 123.6L86.7 107.6Z" fill="#bbab57" stroke="#bbab57"></path><path d="M0 311.8L0 372.1L93.4 304.2Z" fill="#d7c995" stroke="#d7c995"></path><path d="M38.7 450.4L0 500.4L81.1 550.5Z" fill="#b1a141" stroke="#b1a141"></path><path d="M900 234.5L900 193.6L851.3 182.3Z" fill="#ffffff" stroke="#ffffff"></path><path d="M844.9 102.2L900 51.2L785.3 0Z" fill="#ffffff" stroke="#ffffff"></path><path d="M900 193.6L900 188.8L851.3 182.3Z" fill="#e8debf" stroke="#e8debf"></path><path d="M81.1 550.5L98.7 584.7L106.4 544.8Z" fill="#e0d4aa" stroke="#e0d4aa"></path><path d="M917.6 388.1L900 386.4L891.3 394.5Z" fill="#c5b56b" stroke="#c5b56b"></path><path d="M891.3 394.5L900 386.4L900 358.2Z" fill="#ffffff" stroke="#ffffff"></path><path d="M98.7 584.7L102.7 600L120.1 600Z" fill="#e0d4aa" stroke="#e0d4aa"></path><path d="M120.1 600L102.7 600L180.7 630.8Z" fill="#ffffff" stroke="#ffffff"></path><path d="M42.4 600L102.7 600L98.7 584.7Z" fill="#c5b56b" stroke="#c5b56b"></path><path d="M42.4 600L98.7 584.7L81.1 550.5Z" fill="#b1a141" stroke="#b1a141"></path><path d="M629.2 -48.8L91.4 -23.8L261.2 -3.8Z" fill="#f0e9d4" stroke="#f0e9d4"></path><path d="M100.5 -10.8L91.4 -23.8L98.1 0Z" fill="#c5b56b" stroke="#c5b56b"></path><path d="M0 116.2L86.7 107.6L4.7 70.5Z" fill="#ffffff" stroke="#ffffff"></path><path d="M927.6 406.4L917.6 388.1L891.3 394.5Z" fill="#f8f4e9" stroke="#f8f4e9"></path><path d="M900 386.4L917.6 388.1L900 358.2Z" fill="#f0e9d4" stroke="#f0e9d4"></path><path d="M900 358.2L934.6 370.9L900 340.9Z" fill="#f0e9d4" stroke="#f0e9d4"></path><path d="M900 340.9L947.6 328.2L900 293.1Z" fill="#bbab57" stroke="#bbab57"></path><path d="M900 293.1L947.6 328.2L900 234.5Z" fill="#f8f4e9" stroke="#f8f4e9"></path><path d="M900 234.5L947.6 328.2L900 193.6Z" fill="#e8debf" stroke="#e8debf"></path><path d="M900 193.6L947.6 328.2L900 188.8Z" fill="#e8debf" stroke="#e8debf"></path><path d="M4.7 70.5L86.7 107.6L10.7 39.3Z" fill="#a69729" stroke="#a69729"></path><path d="M695.8 632.8L814.3 600L707.2 600Z" fill="#ffffff" stroke="#ffffff"></path><path d="M900 486.5L927.6 406.4L891.3 394.5Z" fill="#bbab57" stroke="#bbab57"></path><path d="M814.3 600L849.9 560.5L832.3 524.7Z" fill="#f8f4e9" stroke="#f8f4e9"></path><path d="M927.6 406.4L934.6 370.9L917.6 388.1Z" fill="#cebf80" stroke="#cebf80"></path><path d="M917.6 388.1L934.6 370.9L900 358.2Z" fill="#bbab57" stroke="#bbab57"></path><path d="M900 486.5L759.3 433.2L832.3 524.7Z" fill="#ffffff" stroke="#ffffff"></path><path d="M879.6 546.8L900 486.5L832.3 524.7Z" fill="#c5b56b" stroke="#c5b56b"></path><path d="M0 372.1L0 488.7L38.7 450.4Z" fill="#f0e9d4" stroke="#f0e9d4"></path><path d="M10.7 39.3L86.7 107.6L98.1 0Z" fill="#c5b56b" stroke="#c5b56b"></path><path d="M0 488.7L0 500.4L38.7 450.4Z" fill="#f8f4e9" stroke="#f8f4e9"></path><path d="M927.6 406.4L947.6 328.2L934.6 370.9Z" fill="#bbab57" stroke="#bbab57"></path><path d="M934.6 370.9L947.6 328.2L900 340.9Z" fill="#e0d4aa" stroke="#e0d4aa"></path><path d="M0 372.1L-2.6 500.4L0 488.7Z" fill="#e8debf" stroke="#e8debf"></path><path d="M0 488.7L-2.6 500.4L0 500.4Z" fill="#bbab57" stroke="#bbab57"></path><path d="M0 552.5L42.4 600L81.1 550.5Z" fill="#f8f4e9" stroke="#f8f4e9"></path><path d="M0 311.8L-2.6 500.4L0 372.1Z" fill="#a69729" stroke="#a69729"></path><path d="M0 297.2L-2.6 500.4L0 311.8Z" fill="#e0d4aa" stroke="#e0d4aa"></path><path d="M0 250.9L-2.6 500.4L0 297.2Z" fill="#d7c995" stroke="#d7c995"></path><path d="M0 123.6L-2.6 500.4L0 250.9Z" fill="#a69729" stroke="#a69729"></path><path d="M0 116.2L-2.6 500.4L0 123.6Z" fill="#f8f4e9" stroke="#f8f4e9"></path><path d="M36.7 -6.8L10.7 39.3L98.1 0Z" fill="#c5b56b" stroke="#c5b56b"></path><path d="M901.6 581.7L879.6 546.8L849.9 560.5Z" fill="#e0d4aa" stroke="#e0d4aa"></path><path d="M849.9 560.5L879.6 546.8L832.3 524.7Z" fill="#d7c995" stroke="#d7c995"></path><path d="M900 486.5L945.6 600L927.6 406.4Z" fill="#a69729" stroke="#a69729"></path><path d="M917.6 77.5L844.9 102.2L900 188.8Z" fill="#e8debf" stroke="#e8debf"></path><path d="M917.6 77.5L900 55.3L844.9 102.2Z" fill="#e0d4aa" stroke="#e0d4aa"></path><path d="M91.4 -23.8L36.7 -6.8L98.1 0Z" fill="#f8f4e9" stroke="#f8f4e9"></path><path d="M913.6 61.2L900 51.2L900 55.3Z" fill="#c5b56b" stroke="#c5b56b"></path><path d="M900 55.3L900 51.2L844.9 102.2Z" fill="#c5b56b" stroke="#c5b56b"></path><path d="M0 9.3L0 42.5L10.7 39.3Z" fill="#d7c995" stroke="#d7c995"></path><path d="M10.7 39.3L0 42.5L4.7 70.5Z" fill="#f0e9d4" stroke="#f0e9d4"></path><path d="M4.7 70.5L0 42.5L0 116.2Z" fill="#ffffff" stroke="#ffffff"></path><path d="M0 116.2L0 42.5L-2.6 500.4Z" fill="#f8f4e9" stroke="#f8f4e9"></path><path d="M947.6 328.2L917.6 77.5L900 188.8Z" fill="#a69729" stroke="#a69729"></path><path d="M913.6 61.2L901.6 43.3L900 51.2Z" fill="#e0d4aa" stroke="#e0d4aa"></path><path d="M900 51.2L901.6 43.3L785.3 0Z" fill="#b1a141" stroke="#b1a141"></path><path d="M901.6 581.7L900 532.7L879.6 546.8Z" fill="#e0d4aa" stroke="#e0d4aa"></path><path d="M879.6 546.8L900 532.7L900 486.5Z" fill="#f0e9d4" stroke="#f0e9d4"></path><path d="M927.6 406.4L945.6 600L947.6 328.2Z" fill="#e0d4aa" stroke="#e0d4aa"></path><path d="M0 550.8L81.1 550.5L0 500.4Z" fill="#f0e9d4" stroke="#f0e9d4"></path><path d="M102.7 600L42.4 600L180.7 630.8Z" fill="#ffffff" stroke="#ffffff"></path><path d="M917.6 77.5L913.6 61.2L900 55.3Z" fill="#f8f4e9" stroke="#f8f4e9"></path><path d="M-2.6 500.4L0 550.8L0 500.4Z" fill="#ffffff" stroke="#ffffff"></path><path d="M-2.6 500.4L0 552.5L0 550.8Z" fill="#f0e9d4" stroke="#f0e9d4"></path><path d="M0 550.8L0 552.5L81.1 550.5Z" fill="#f8f4e9" stroke="#f8f4e9"></path><path d="M36.7 -6.8L0 9.3L10.7 39.3Z" fill="#ffffff" stroke="#ffffff"></path><path d="M0 42.5L0 9.3L-2.6 500.4Z" fill="#e0d4aa" stroke="#e0d4aa"></path><path d="M0 552.5L19.4 597.7L42.4 600Z" fill="#bbab57" stroke="#bbab57"></path><path d="M42.4 600L0 600L180.7 630.8Z" fill="#c5b56b" stroke="#c5b56b"></path><path d="M91.4 -23.8L0 0L36.7 -6.8Z" fill="#cebf80" stroke="#cebf80"></path><path d="M36.7 -6.8L0 0L0 9.3Z" fill="#f0e9d4" stroke="#f0e9d4"></path><path d="M0 9.3L0 0L-2.6 500.4Z" fill="#e0d4aa" stroke="#e0d4aa"></path><path d="M901.6 43.3L900 0L785.3 0Z" fill="#a69729" stroke="#a69729"></path><path d="M785.3 0L900 0L629.2 -48.8Z" fill="#e0d4aa" stroke="#e0d4aa"></path><path d="M908.6 0L900 0L901.6 43.3Z" fill="#bbab57" stroke="#bbab57"></path><path d="M908.6 0L901.6 43.3L913.6 61.2Z" fill="#b1a141" stroke="#b1a141"></path><path d="M900 600L849.9 560.5L814.3 600Z" fill="#b1a141" stroke="#b1a141"></path><path d="M900 600L901.6 581.7L849.9 560.5Z" fill="#a69729" stroke="#a69729"></path><path d="M900 532.7L945.6 600L900 486.5Z" fill="#e8debf" stroke="#e8debf"></path><path d="M917.6 77.5L908.6 0L913.6 61.2Z" fill="#f0e9d4" stroke="#f0e9d4"></path><path d="M900 0L908.6 0L629.2 -48.8Z" fill="#cebf80" stroke="#cebf80"></path><path d="M947.6 328.2L908.6 0L917.6 77.5Z" fill="#cebf80" stroke="#cebf80"></path><path d="M-2.6 500.4L0 600L0 552.5Z" fill="#cebf80" stroke="#cebf80"></path><path d="M0 552.5L0 600L19.4 597.7Z" fill="#bbab57" stroke="#bbab57"></path><path d="M19.4 597.7L0 600L42.4 600Z" fill="#a69729" stroke="#a69729"></path><path d="M900 619.8L900 600L814.3 600Z" fill="#e0d4aa" stroke="#e0d4aa"></path><path d="M901.6 581.7L945.6 600L900 532.7Z" fill="#b1a141" stroke="#b1a141"></path><path d="M695.8 632.8L900 619.8L814.3 600Z" fill="#c5b56b" stroke="#c5b56b"></path><path d="M900 600L945.6 600L901.6 581.7Z" fill="#bbab57" stroke="#bbab57"></path><path d="M900 619.8L945.6 600L900 600Z" fill="#f0e9d4" stroke="#f0e9d4"></path></g></svg>