<svg id="visual" viewBox="0 0 900 600" width="900" height="600" xmlns="http://www.w3.org/2000/svg" xmlns:xlink="http://www.w3.org/1999/xlink" version="1.1"><rect x="0" y="0" width="900" height="600" fill="#001829"></rect><g fill="#909f63"><path d="M0 -13.2L3 -4.1L12.6 -4.1L4.8 1.6L7.8 10.7L0 5L-7.8 10.7L-4.8 1.6L-12.6 -4.1L-3 -4.1Z" transform="translate(800 76)"></path><path d="M0 -0.9L0.2 -0.3L0.9 -0.3L0.3 0.1L0.6 0.8L0 0.4L-0.6 0.8L-0.3 0.1L-0.9 -0.3L-0.2 -0.3Z" transform="translate(542 84)"></path><path d="M0 0L0 0L0 0L0 0L0 0L0 0L0 0L0 0L0 0L0 0Z" transform="translate(13 145)"></path><path d="M0 -8.5L1.9 -2.6L8.1 -2.6L3.1 1L5 6.9L0 3.2L-5 6.9L-3.1 1L-8.1 -2.6L-1.9 -2.6Z" transform="translate(710 191)"></path><path d="M0 -7.6L1.7 -2.3L7.2 -2.3L2.7 0.9L4.4 6.1L0 2.9L-4.4 6.1L-2.7 0.9L-7.2 -2.3L-1.7 -2.3Z" transform="translate(475 415)"></path><path d="M0 -0.9L0.2 -0.3L0.9 -0.3L0.3 0.1L0.6 0.8L0 0.4L-0.6 0.8L-0.3 0.1L-0.9 -0.3L-0.2 -0.3Z" transform="translate(285 449)"></path><path d="M0 -0.9L0.2 -0.3L0.9 -0.3L0.3 0.1L0.6 0.8L0 0.4L-0.6 0.8L-0.3 0.1L-0.9 -0.3L-0.2 -0.3Z" transform="translate(408 27)"></path><path d="M0 -7.6L1.7 -2.3L7.2 -2.3L2.7 0.9L4.4 6.1L0 2.9L-4.4 6.1L-2.7 0.9L-7.2 -2.3L-1.7 -2.3Z" transform="translate(4 29)"></path><path d="M0 -0.9L0.2 -0.3L0.9 -0.3L0.3 0.1L0.6 0.8L0 0.4L-0.6 0.8L-0.3 0.1L-0.9 -0.3L-0.2 -0.3Z" transform="translate(644 162)"></path><path d="M0 0L0 0L0 0L0 0L0 0L0 0L0 0L0 0L0 0L0 0Z" transform="translate(676 523)"></path><path d="M0 -8.5L1.9 -2.6L8.1 -2.6L3.1 1L5 6.9L0 3.2L-5 6.9L-3.1 1L-8.1 -2.6L-1.9 -2.6Z" transform="translate(355 499)"></path><path d="M0 -1.9L0.4 -0.6L1.8 -0.6L0.7 0.2L1.1 1.5L0 0.7L-1.1 1.5L-0.7 0.2L-1.8 -0.6L-0.4 -0.6Z" transform="translate(205 547)"></path><path d="M0 -7.6L1.7 -2.3L7.2 -2.3L2.7 0.9L4.4 6.1L0 2.9L-4.4 6.1L-2.7 0.9L-7.2 -2.3L-1.7 -2.3Z" transform="translate(19 583)"></path><path d="M0 -0.9L0.2 -0.3L0.9 -0.3L0.3 0.1L0.6 0.8L0 0.4L-0.6 0.8L-0.3 0.1L-0.9 -0.3L-0.2 -0.3Z" transform="translate(812 47)"></path><path d="M0 -0.9L0.2 -0.3L0.9 -0.3L0.3 0.1L0.6 0.8L0 0.4L-0.6 0.8L-0.3 0.1L-0.9 -0.3L-0.2 -0.3Z" transform="translate(397 432)"></path><path d="M0 -6.6L1.5 -2L6.3 -2L2.4 0.8L3.9 5.3L0 2.5L-3.9 5.3L-2.4 0.8L-6.3 -2L-1.5 -2Z" transform="translate(526 256)"></path><path d="M0 -11.3L2.5 -3.5L10.8 -3.5L4.1 1.3L6.7 9.2L0 4.3L-6.7 9.2L-4.1 1.3L-10.8 -3.5L-2.5 -3.5Z" transform="translate(815 504)"></path><path d="M0 -10.4L2.3 -3.2L9.9 -3.2L3.8 1.2L6.1 8.4L0 4L-6.1 8.4L-3.8 1.2L-9.9 -3.2L-2.3 -3.2Z" transform="translate(222 430)"></path><path d="M0 -6.6L1.5 -2L6.3 -2L2.4 0.8L3.9 5.3L0 2.5L-3.9 5.3L-2.4 0.8L-6.3 -2L-1.5 -2Z" transform="translate(481 31)"></path><path d="M0 -6.6L1.5 -2L6.3 -2L2.4 0.8L3.9 5.3L0 2.5L-3.9 5.3L-2.4 0.8L-6.3 -2L-1.5 -2Z" transform="translate(767 65)"></path><path d="M0 -10.4L2.3 -3.2L9.9 -3.2L3.8 1.2L6.1 8.4L0 4L-6.1 8.4L-3.8 1.2L-9.9 -3.2L-2.3 -3.2Z" transform="translate(509 220)"></path><path d="M0 -3.8L0.8 -1.2L3.6 -1.2L1.4 0.4L2.2 3.1L0 1.4L-2.2 3.1L-1.4 0.4L-3.6 -1.2L-0.8 -1.2Z" transform="translate(374 583)"></path><path d="M0 -2.8L0.6 -0.9L2.7 -0.9L1 0.3L1.7 2.3L0 1.1L-1.7 2.3L-1 0.3L-2.7 -0.9L-0.6 -0.9Z" transform="translate(17 554)"></path><path d="M0 0L0 0L0 0L0 0L0 0L0 0L0 0L0 0L0 0L0 0Z" transform="translate(534 356)"></path><path d="M0 -5.7L1.3 -1.7L5.4 -1.7L2.1 0.7L3.3 4.6L0 2.2L-3.3 4.6L-2.1 0.7L-5.4 -1.7L-1.3 -1.7Z" transform="translate(207 106)"></path><path d="M0 -8.5L1.9 -2.6L8.1 -2.6L3.1 1L5 6.9L0 3.2L-5 6.9L-3.1 1L-8.1 -2.6L-1.9 -2.6Z" transform="translate(377 297)"></path><path d="M0 -1.9L0.4 -0.6L1.8 -0.6L0.7 0.2L1.1 1.5L0 0.7L-1.1 1.5L-0.7 0.2L-1.8 -0.6L-0.4 -0.6Z" transform="translate(565 231)"></path><path d="M0 0L0 0L0 0L0 0L0 0L0 0L0 0L0 0L0 0L0 0Z" transform="translate(136 508)"></path><path d="M0 -2.8L0.6 -0.9L2.7 -0.9L1 0.3L1.7 2.3L0 1.1L-1.7 2.3L-1 0.3L-2.7 -0.9L-0.6 -0.9Z" transform="translate(674 472)"></path><path d="M0 -11.3L2.5 -3.5L10.8 -3.5L4.1 1.3L6.7 9.2L0 4.3L-6.7 9.2L-4.1 1.3L-10.8 -3.5L-2.5 -3.5Z" transform="translate(394 80)"></path><path d="M0 -8.5L1.9 -2.6L8.1 -2.6L3.1 1L5 6.9L0 3.2L-5 6.9L-3.1 1L-8.1 -2.6L-1.9 -2.6Z" transform="translate(695 114)"></path><path d="M0 -3.8L0.8 -1.2L3.6 -1.2L1.4 0.4L2.2 3.1L0 1.4L-2.2 3.1L-1.4 0.4L-3.6 -1.2L-0.8 -1.2Z" transform="translate(713 349)"></path><path d="M0 -2.8L0.6 -0.9L2.7 -0.9L1 0.3L1.7 2.3L0 1.1L-1.7 2.3L-1 0.3L-2.7 -0.9L-0.6 -0.9Z" transform="translate(420 237)"></path><path d="M0 -4.7L1.1 -1.5L4.5 -1.5L1.7 0.6L2.8 3.8L0 1.8L-2.8 3.8L-1.7 0.6L-4.5 -1.5L-1.1 -1.5Z" transform="translate(6 299)"></path><path d="M0 -8.5L1.9 -2.6L8.1 -2.6L3.1 1L5 6.9L0 3.2L-5 6.9L-3.1 1L-8.1 -2.6L-1.9 -2.6Z" transform="translate(637 336)"></path><path d="M0 -4.7L1.1 -1.5L4.5 -1.5L1.7 0.6L2.8 3.8L0 1.8L-2.8 3.8L-1.7 0.6L-4.5 -1.5L-1.1 -1.5Z" transform="translate(335 129)"></path><path d="M0 0L0 0L0 0L0 0L0 0L0 0L0 0L0 0L0 0L0 0Z" transform="translate(756 186)"></path><path d="M0 -5.7L1.3 -1.7L5.4 -1.7L2.1 0.7L3.3 4.6L0 2.2L-3.3 4.6L-2.1 0.7L-5.4 -1.7L-1.3 -1.7Z" transform="translate(832 542)"></path><path d="M0 -5.7L1.3 -1.7L5.4 -1.7L2.1 0.7L3.3 4.6L0 2.2L-3.3 4.6L-2.1 0.7L-5.4 -1.7L-1.3 -1.7Z" transform="translate(695 496)"></path><path d="M0 -5.7L1.3 -1.7L5.4 -1.7L2.1 0.7L3.3 4.6L0 2.2L-3.3 4.6L-2.1 0.7L-5.4 -1.7L-1.3 -1.7Z" transform="translate(761 380)"></path><path d="M0 0L0 0L0 0L0 0L0 0L0 0L0 0L0 0L0 0L0 0Z" transform="translate(308 484)"></path><path d="M0 -7.6L1.7 -2.3L7.2 -2.3L2.7 0.9L4.4 6.1L0 2.9L-4.4 6.1L-2.7 0.9L-7.2 -2.3L-1.7 -2.3Z" transform="translate(32 357)"></path><path d="M0 -2.8L0.6 -0.9L2.7 -0.9L1 0.3L1.7 2.3L0 1.1L-1.7 2.3L-1 0.3L-2.7 -0.9L-0.6 -0.9Z" transform="translate(866 479)"></path><path d="M0 0L0 0L0 0L0 0L0 0L0 0L0 0L0 0L0 0L0 0Z" transform="translate(275 303)"></path><path d="M0 -9.4L2.1 -2.9L9 -2.9L3.4 1.1L5.5 7.6L0 3.6L-5.5 7.6L-3.4 1.1L-9 -2.9L-2.1 -2.9Z" transform="translate(245 351)"></path><path d="M0 -6.6L1.5 -2L6.3 -2L2.4 0.8L3.9 5.3L0 2.5L-3.9 5.3L-2.4 0.8L-6.3 -2L-1.5 -2Z" transform="translate(562 373)"></path><path d="M0 0L0 0L0 0L0 0L0 0L0 0L0 0L0 0L0 0L0 0Z" transform="translate(526 432)"></path><path d="M0 0L0 0L0 0L0 0L0 0L0 0L0 0L0 0L0 0L0 0Z" transform="translate(53 311)"></path><path d="M0 -3.8L0.8 -1.2L3.6 -1.2L1.4 0.4L2.2 3.1L0 1.4L-2.2 3.1L-1.4 0.4L-3.6 -1.2L-0.8 -1.2Z" transform="translate(218 398)"></path><path d="M0 -7.6L1.7 -2.3L7.2 -2.3L2.7 0.9L4.4 6.1L0 2.9L-4.4 6.1L-2.7 0.9L-7.2 -2.3L-1.7 -2.3Z" transform="translate(174 333)"></path><path d="M0 -2.8L0.6 -0.9L2.7 -0.9L1 0.3L1.7 2.3L0 1.1L-1.7 2.3L-1 0.3L-2.7 -0.9L-0.6 -0.9Z" transform="translate(329 226)"></path><path d="M0 -9.4L2.1 -2.9L9 -2.9L3.4 1.1L5.5 7.6L0 3.6L-5.5 7.6L-3.4 1.1L-9 -2.9L-2.1 -2.9Z" transform="translate(98 323)"></path><path d="M0 -1.9L0.4 -0.6L1.8 -0.6L0.7 0.2L1.1 1.5L0 0.7L-1.1 1.5L-0.7 0.2L-1.8 -0.6L-0.4 -0.6Z" transform="translate(568 443)"></path><path d="M0 -1.9L0.4 -0.6L1.8 -0.6L0.7 0.2L1.1 1.5L0 0.7L-1.1 1.5L-0.7 0.2L-1.8 -0.6L-0.4 -0.6Z" transform="translate(508 584)"></path><path d="M0 -0.9L0.2 -0.3L0.9 -0.3L0.3 0.1L0.6 0.8L0 0.4L-0.6 0.8L-0.3 0.1L-0.9 -0.3L-0.2 -0.3Z" transform="translate(27 460)"></path><path d="M0 -8.5L1.9 -2.6L8.1 -2.6L3.1 1L5 6.9L0 3.2L-5 6.9L-3.1 1L-8.1 -2.6L-1.9 -2.6Z" transform="translate(33 432)"></path><path d="M0 0L0 0L0 0L0 0L0 0L0 0L0 0L0 0L0 0L0 0Z" transform="translate(140 327)"></path><path d="M0 -9.4L2.1 -2.9L9 -2.9L3.4 1.1L5.5 7.6L0 3.6L-5.5 7.6L-3.4 1.1L-9 -2.9L-2.1 -2.9Z" transform="translate(887 340)"></path><path d="M0 -1.9L0.4 -0.6L1.8 -0.6L0.7 0.2L1.1 1.5L0 0.7L-1.1 1.5L-0.7 0.2L-1.8 -0.6L-0.4 -0.6Z" transform="translate(801 420)"></path><path d="M0 -9.4L2.1 -2.9L9 -2.9L3.4 1.1L5.5 7.6L0 3.6L-5.5 7.6L-3.4 1.1L-9 -2.9L-2.1 -2.9Z" transform="translate(563 337)"></path><path d="M0 -6.6L1.5 -2L6.3 -2L2.4 0.8L3.9 5.3L0 2.5L-3.9 5.3L-2.4 0.8L-6.3 -2L-1.5 -2Z" transform="translate(32 85)"></path><path d="M0 -1.9L0.4 -0.6L1.8 -0.6L0.7 0.2L1.1 1.5L0 0.7L-1.1 1.5L-0.7 0.2L-1.8 -0.6L-0.4 -0.6Z" transform="translate(737 69)"></path><path d="M0 -11.3L2.5 -3.5L10.8 -3.5L4.1 1.3L6.7 9.2L0 4.3L-6.7 9.2L-4.1 1.3L-10.8 -3.5L-2.5 -3.5Z" transform="translate(549 281)"></path><path d="M0 -10.4L2.3 -3.2L9.9 -3.2L3.8 1.2L6.1 8.4L0 4L-6.1 8.4L-3.8 1.2L-9.9 -3.2L-2.3 -3.2Z" transform="translate(312 595)"></path><path d="M0 -9.4L2.1 -2.9L9 -2.9L3.4 1.1L5.5 7.6L0 3.6L-5.5 7.6L-3.4 1.1L-9 -2.9L-2.1 -2.9Z" transform="translate(661 554)"></path><path d="M0 -10.4L2.3 -3.2L9.9 -3.2L3.8 1.2L6.1 8.4L0 4L-6.1 8.4L-3.8 1.2L-9.9 -3.2L-2.3 -3.2Z" transform="translate(652 581)"></path><path d="M0 -6.6L1.5 -2L6.3 -2L2.4 0.8L3.9 5.3L0 2.5L-3.9 5.3L-2.4 0.8L-6.3 -2L-1.5 -2Z" transform="translate(22 386)"></path><path d="M0 -6.6L1.5 -2L6.3 -2L2.4 0.8L3.9 5.3L0 2.5L-3.9 5.3L-2.4 0.8L-6.3 -2L-1.5 -2Z" transform="translate(662 252)"></path><path d="M0 -4.7L1.1 -1.5L4.5 -1.5L1.7 0.6L2.8 3.8L0 1.8L-2.8 3.8L-1.7 0.6L-4.5 -1.5L-1.1 -1.5Z" transform="translate(178 229)"></path><path d="M0 -1.9L0.4 -0.6L1.8 -0.6L0.7 0.2L1.1 1.5L0 0.7L-1.1 1.5L-0.7 0.2L-1.8 -0.6L-0.4 -0.6Z" transform="translate(816 258)"></path><path d="M0 -11.3L2.5 -3.5L10.8 -3.5L4.1 1.3L6.7 9.2L0 4.3L-6.7 9.2L-4.1 1.3L-10.8 -3.5L-2.5 -3.5Z" transform="translate(64 100)"></path><path d="M0 -4.7L1.1 -1.5L4.5 -1.5L1.7 0.6L2.8 3.8L0 1.8L-2.8 3.8L-1.7 0.6L-4.5 -1.5L-1.1 -1.5Z" transform="translate(577 38)"></path><path d="M0 -7.6L1.7 -2.3L7.2 -2.3L2.7 0.9L4.4 6.1L0 2.9L-4.4 6.1L-2.7 0.9L-7.2 -2.3L-1.7 -2.3Z" transform="translate(620 289)"></path><path d="M0 0L0 0L0 0L0 0L0 0L0 0L0 0L0 0L0 0L0 0Z" transform="translate(232 550)"></path><path d="M0 -2.8L0.6 -0.9L2.7 -0.9L1 0.3L1.7 2.3L0 1.1L-1.7 2.3L-1 0.3L-2.7 -0.9L-0.6 -0.9Z" transform="translate(327 376)"></path><path d="M0 -5.7L1.3 -1.7L5.4 -1.7L2.1 0.7L3.3 4.6L0 2.2L-3.3 4.6L-2.1 0.7L-5.4 -1.7L-1.3 -1.7Z" transform="translate(166 81)"></path><path d="M0 -2.8L0.6 -0.9L2.7 -0.9L1 0.3L1.7 2.3L0 1.1L-1.7 2.3L-1 0.3L-2.7 -0.9L-0.6 -0.9Z" transform="translate(264 264)"></path><path d="M0 -9.4L2.1 -2.9L9 -2.9L3.4 1.1L5.5 7.6L0 3.6L-5.5 7.6L-3.4 1.1L-9 -2.9L-2.1 -2.9Z" transform="translate(138 130)"></path><path d="M0 -8.5L1.9 -2.6L8.1 -2.6L3.1 1L5 6.9L0 3.2L-5 6.9L-3.1 1L-8.1 -2.6L-1.9 -2.6Z" transform="translate(519 115)"></path><path d="M0 -5.7L1.3 -1.7L5.4 -1.7L2.1 0.7L3.3 4.6L0 2.2L-3.3 4.6L-2.1 0.7L-5.4 -1.7L-1.3 -1.7Z" transform="translate(369 146)"></path><path d="M0 -0.9L0.2 -0.3L0.9 -0.3L0.3 0.1L0.6 0.8L0 0.4L-0.6 0.8L-0.3 0.1L-0.9 -0.3L-0.2 -0.3Z" transform="translate(450 141)"></path><path d="M0 0L0 0L0 0L0 0L0 0L0 0L0 0L0 0L0 0L0 0Z" transform="translate(732 521)"></path><path d="M0 -9.4L2.1 -2.9L9 -2.9L3.4 1.1L5.5 7.6L0 3.6L-5.5 7.6L-3.4 1.1L-9 -2.9L-2.1 -2.9Z" transform="translate(772 433)"></path><path d="M0 -1.9L0.4 -0.6L1.8 -0.6L0.7 0.2L1.1 1.5L0 0.7L-1.1 1.5L-0.7 0.2L-1.8 -0.6L-0.4 -0.6Z" transform="translate(306 166)"></path><path d="M0 -3.8L0.8 -1.2L3.6 -1.2L1.4 0.4L2.2 3.1L0 1.4L-2.2 3.1L-1.4 0.4L-3.6 -1.2L-0.8 -1.2Z" transform="translate(866 288)"></path><path d="M0 -8.5L1.9 -2.6L8.1 -2.6L3.1 1L5 6.9L0 3.2L-5 6.9L-3.1 1L-8.1 -2.6L-1.9 -2.6Z" transform="translate(296 63)"></path><path d="M0 0L0 0L0 0L0 0L0 0L0 0L0 0L0 0L0 0L0 0Z" transform="translate(149 587)"></path><path d="M0 -8.5L1.9 -2.6L8.1 -2.6L3.1 1L5 6.9L0 3.2L-5 6.9L-3.1 1L-8.1 -2.6L-1.9 -2.6Z" transform="translate(639 104)"></path><path d="M0 -4.7L1.1 -1.5L4.5 -1.5L1.7 0.6L2.8 3.8L0 1.8L-2.8 3.8L-1.7 0.6L-4.5 -1.5L-1.1 -1.5Z" transform="translate(805 123)"></path><path d="M0 -9.4L2.1 -2.9L9 -2.9L3.4 1.1L5.5 7.6L0 3.6L-5.5 7.6L-3.4 1.1L-9 -2.9L-2.1 -2.9Z" transform="translate(834 582)"></path><path d="M0 0L0 0L0 0L0 0L0 0L0 0L0 0L0 0L0 0L0 0Z" transform="translate(628 3)"></path><path d="M0 -6.6L1.5 -2L6.3 -2L2.4 0.8L3.9 5.3L0 2.5L-3.9 5.3L-2.4 0.8L-6.3 -2L-1.5 -2Z" transform="translate(79 586)"></path><path d="M0 -5.7L1.3 -1.7L5.4 -1.7L2.1 0.7L3.3 4.6L0 2.2L-3.3 4.6L-2.1 0.7L-5.4 -1.7L-1.3 -1.7Z" transform="translate(440 374)"></path><path d="M0 -11.3L2.5 -3.5L10.8 -3.5L4.1 1.3L6.7 9.2L0 4.3L-6.7 9.2L-4.1 1.3L-10.8 -3.5L-2.5 -3.5Z" transform="translate(258 100)"></path><path d="M0 -8.5L1.9 -2.6L8.1 -2.6L3.1 1L5 6.9L0 3.2L-5 6.9L-3.1 1L-8.1 -2.6L-1.9 -2.6Z" transform="translate(83 211)"></path><path d="M0 -3.8L0.8 -1.2L3.6 -1.2L1.4 0.4L2.2 3.1L0 1.4L-2.2 3.1L-1.4 0.4L-3.6 -1.2L-0.8 -1.2Z" transform="translate(884 413)"></path><path d="M0 -0.9L0.2 -0.3L0.9 -0.3L0.3 0.1L0.6 0.8L0 0.4L-0.6 0.8L-0.3 0.1L-0.9 -0.3L-0.2 -0.3Z" transform="translate(781 347)"></path><path d="M0 -1.9L0.4 -0.6L1.8 -0.6L0.7 0.2L1.1 1.5L0 0.7L-1.1 1.5L-0.7 0.2L-1.8 -0.6L-0.4 -0.6Z" transform="translate(833 189)"></path><path d="M0 -11.3L2.5 -3.5L10.8 -3.5L4.1 1.3L6.7 9.2L0 4.3L-6.7 9.2L-4.1 1.3L-10.8 -3.5L-2.5 -3.5Z" transform="translate(581 77)"></path><path d="M0 -2.8L0.6 -0.9L2.7 -0.9L1 0.3L1.7 2.3L0 1.1L-1.7 2.3L-1 0.3L-2.7 -0.9L-0.6 -0.9Z" transform="translate(479 364)"></path><path d="M0 0L0 0L0 0L0 0L0 0L0 0L0 0L0 0L0 0L0 0Z" transform="translate(584 314)"></path><path d="M0 -4.7L1.1 -1.5L4.5 -1.5L1.7 0.6L2.8 3.8L0 1.8L-2.8 3.8L-1.7 0.6L-4.5 -1.5L-1.1 -1.5Z" transform="translate(189 430)"></path><path d="M0 -0.9L0.2 -0.3L0.9 -0.3L0.3 0.1L0.6 0.8L0 0.4L-0.6 0.8L-0.3 0.1L-0.9 -0.3L-0.2 -0.3Z" transform="translate(545 203)"></path><path d="M0 -10.4L2.3 -3.2L9.9 -3.2L3.8 1.2L6.1 8.4L0 4L-6.1 8.4L-3.8 1.2L-9.9 -3.2L-2.3 -3.2Z" transform="translate(473 573)"></path><path d="M0 -4.7L1.1 -1.5L4.5 -1.5L1.7 0.6L2.8 3.8L0 1.8L-2.8 3.8L-1.7 0.6L-4.5 -1.5L-1.1 -1.5Z" transform="translate(64 408)"></path><path d="M0 -7.6L1.7 -2.3L7.2 -2.3L2.7 0.9L4.4 6.1L0 2.9L-4.4 6.1L-2.7 0.9L-7.2 -2.3L-1.7 -2.3Z" transform="translate(192 356)"></path><path d="M0 -3.8L0.8 -1.2L3.6 -1.2L1.4 0.4L2.2 3.1L0 1.4L-2.2 3.1L-1.4 0.4L-3.6 -1.2L-0.8 -1.2Z" transform="translate(280 364)"></path><path d="M0 -3.8L0.8 -1.2L3.6 -1.2L1.4 0.4L2.2 3.1L0 1.4L-2.2 3.1L-1.4 0.4L-3.6 -1.2L-0.8 -1.2Z" transform="translate(515 77)"></path><path d="M0 -8.5L1.9 -2.6L8.1 -2.6L3.1 1L5 6.9L0 3.2L-5 6.9L-3.1 1L-8.1 -2.6L-1.9 -2.6Z" transform="translate(628 459)"></path><path d="M0 -3.8L0.8 -1.2L3.6 -1.2L1.4 0.4L2.2 3.1L0 1.4L-2.2 3.1L-1.4 0.4L-3.6 -1.2L-0.8 -1.2Z" transform="translate(899 303)"></path><path d="M0 -4.7L1.1 -1.5L4.5 -1.5L1.7 0.6L2.8 3.8L0 1.8L-2.8 3.8L-1.7 0.6L-4.5 -1.5L-1.1 -1.5Z" transform="translate(524 176)"></path><path d="M0 -7.6L1.7 -2.3L7.2 -2.3L2.7 0.9L4.4 6.1L0 2.9L-4.4 6.1L-2.7 0.9L-7.2 -2.3L-1.7 -2.3Z" transform="translate(212 171)"></path><path d="M0 -3.8L0.8 -1.2L3.6 -1.2L1.4 0.4L2.2 3.1L0 1.4L-2.2 3.1L-1.4 0.4L-3.6 -1.2L-0.8 -1.2Z" transform="translate(355 551)"></path><path d="M0 -1.9L0.4 -0.6L1.8 -0.6L0.7 0.2L1.1 1.5L0 0.7L-1.1 1.5L-0.7 0.2L-1.8 -0.6L-0.4 -0.6Z" transform="translate(65 365)"></path><path d="M0 -2.8L0.6 -0.9L2.7 -0.9L1 0.3L1.7 2.3L0 1.1L-1.7 2.3L-1 0.3L-2.7 -0.9L-0.6 -0.9Z" transform="translate(897 571)"></path><path d="M0 -11.3L2.5 -3.5L10.8 -3.5L4.1 1.3L6.7 9.2L0 4.3L-6.7 9.2L-4.1 1.3L-10.8 -3.5L-2.5 -3.5Z" transform="translate(364 6)"></path><path d="M0 -8.5L1.9 -2.6L8.1 -2.6L3.1 1L5 6.9L0 3.2L-5 6.9L-3.1 1L-8.1 -2.6L-1.9 -2.6Z" transform="translate(863 178)"></path><path d="M0 -8.5L1.9 -2.6L8.1 -2.6L3.1 1L5 6.9L0 3.2L-5 6.9L-3.1 1L-8.1 -2.6L-1.9 -2.6Z" transform="translate(277 202)"></path><path d="M0 0L0 0L0 0L0 0L0 0L0 0L0 0L0 0L0 0L0 0Z" transform="translate(400 276)"></path><path d="M0 -0.9L0.2 -0.3L0.9 -0.3L0.3 0.1L0.6 0.8L0 0.4L-0.6 0.8L-0.3 0.1L-0.9 -0.3L-0.2 -0.3Z" transform="translate(347 418)"></path><path d="M0 -9.4L2.1 -2.9L9 -2.9L3.4 1.1L5.5 7.6L0 3.6L-5.5 7.6L-3.4 1.1L-9 -2.9L-2.1 -2.9Z" transform="translate(614 77)"></path><path d="M0 -5.7L1.3 -1.7L5.4 -1.7L2.1 0.7L3.3 4.6L0 2.2L-3.3 4.6L-2.1 0.7L-5.4 -1.7L-1.3 -1.7Z" transform="translate(60 456)"></path><path d="M0 -11.3L2.5 -3.5L10.8 -3.5L4.1 1.3L6.7 9.2L0 4.3L-6.7 9.2L-4.1 1.3L-10.8 -3.5L-2.5 -3.5Z" transform="translate(778 572)"></path><path d="M0 -1.9L0.4 -0.6L1.8 -0.6L0.7 0.2L1.1 1.5L0 0.7L-1.1 1.5L-0.7 0.2L-1.8 -0.6L-0.4 -0.6Z" transform="translate(275 487)"></path><path d="M0 -3.8L0.8 -1.2L3.6 -1.2L1.4 0.4L2.2 3.1L0 1.4L-2.2 3.1L-1.4 0.4L-3.6 -1.2L-0.8 -1.2Z" transform="translate(715 232)"></path><path d="M0 -3.8L0.8 -1.2L3.6 -1.2L1.4 0.4L2.2 3.1L0 1.4L-2.2 3.1L-1.4 0.4L-3.6 -1.2L-0.8 -1.2Z" transform="translate(692 400)"></path><path d="M0 0L0 0L0 0L0 0L0 0L0 0L0 0L0 0L0 0L0 0Z" transform="translate(427 314)"></path><path d="M0 -1.9L0.4 -0.6L1.8 -0.6L0.7 0.2L1.1 1.5L0 0.7L-1.1 1.5L-0.7 0.2L-1.8 -0.6L-0.4 -0.6Z" transform="translate(567 535)"></path><path d="M0 -0.9L0.2 -0.3L0.9 -0.3L0.3 0.1L0.6 0.8L0 0.4L-0.6 0.8L-0.3 0.1L-0.9 -0.3L-0.2 -0.3Z" transform="translate(383 239)"></path><path d="M0 -3.8L0.8 -1.2L3.6 -1.2L1.4 0.4L2.2 3.1L0 1.4L-2.2 3.1L-1.4 0.4L-3.6 -1.2L-0.8 -1.2Z" transform="translate(806 371)"></path><path d="M0 -8.5L1.9 -2.6L8.1 -2.6L3.1 1L5 6.9L0 3.2L-5 6.9L-3.1 1L-8.1 -2.6L-1.9 -2.6Z" transform="translate(235 593)"></path><path d="M0 -3.8L0.8 -1.2L3.6 -1.2L1.4 0.4L2.2 3.1L0 1.4L-2.2 3.1L-1.4 0.4L-3.6 -1.2L-0.8 -1.2Z" transform="translate(425 486)"></path><path d="M0 -1.9L0.4 -0.6L1.8 -0.6L0.7 0.2L1.1 1.5L0 0.7L-1.1 1.5L-0.7 0.2L-1.8 -0.6L-0.4 -0.6Z" transform="translate(118 468)"></path><path d="M0 -0.9L0.2 -0.3L0.9 -0.3L0.3 0.1L0.6 0.8L0 0.4L-0.6 0.8L-0.3 0.1L-0.9 -0.3L-0.2 -0.3Z" transform="translate(862 374)"></path><path d="M0 -8.5L1.9 -2.6L8.1 -2.6L3.1 1L5 6.9L0 3.2L-5 6.9L-3.1 1L-8.1 -2.6L-1.9 -2.6Z" transform="translate(450 524)"></path><path d="M0 0L0 0L0 0L0 0L0 0L0 0L0 0L0 0L0 0L0 0Z" transform="translate(674 134)"></path><path d="M0 -0.9L0.2 -0.3L0.9 -0.3L0.3 0.1L0.6 0.8L0 0.4L-0.6 0.8L-0.3 0.1L-0.9 -0.3L-0.2 -0.3Z" transform="translate(888 227)"></path><path d="M0 -4.7L1.1 -1.5L4.5 -1.5L1.7 0.6L2.8 3.8L0 1.8L-2.8 3.8L-1.7 0.6L-4.5 -1.5L-1.1 -1.5Z" transform="translate(75 516)"></path><path d="M0 -10.4L2.3 -3.2L9.9 -3.2L3.8 1.2L6.1 8.4L0 4L-6.1 8.4L-3.8 1.2L-9.9 -3.2L-2.3 -3.2Z" transform="translate(222 503)"></path><path d="M0 -6.6L1.5 -2L6.3 -2L2.4 0.8L3.9 5.3L0 2.5L-3.9 5.3L-2.4 0.8L-6.3 -2L-1.5 -2Z" transform="translate(651 290)"></path><path d="M0 -2.8L0.6 -0.9L2.7 -0.9L1 0.3L1.7 2.3L0 1.1L-1.7 2.3L-1 0.3L-2.7 -0.9L-0.6 -0.9Z" transform="translate(57 156)"></path><path d="M0 -9.4L2.1 -2.9L9 -2.9L3.4 1.1L5.5 7.6L0 3.6L-5.5 7.6L-3.4 1.1L-9 -2.9L-2.1 -2.9Z" transform="translate(732 400)"></path><path d="M0 -3.8L0.8 -1.2L3.6 -1.2L1.4 0.4L2.2 3.1L0 1.4L-2.2 3.1L-1.4 0.4L-3.6 -1.2L-0.8 -1.2Z" transform="translate(406 161)"></path><path d="M0 -5.7L1.3 -1.7L5.4 -1.7L2.1 0.7L3.3 4.6L0 2.2L-3.3 4.6L-2.1 0.7L-5.4 -1.7L-1.3 -1.7Z" transform="translate(706 51)"></path><path d="M0 -3.8L0.8 -1.2L3.6 -1.2L1.4 0.4L2.2 3.1L0 1.4L-2.2 3.1L-1.4 0.4L-3.6 -1.2L-0.8 -1.2Z" transform="translate(519 12)"></path><path d="M0 -3.8L0.8 -1.2L3.6 -1.2L1.4 0.4L2.2 3.1L0 1.4L-2.2 3.1L-1.4 0.4L-3.6 -1.2L-0.8 -1.2Z" transform="translate(207 199)"></path><path d="M0 -1.9L0.4 -0.6L1.8 -0.6L0.7 0.2L1.1 1.5L0 0.7L-1.1 1.5L-0.7 0.2L-1.8 -0.6L-0.4 -0.6Z" transform="translate(850 346)"></path><path d="M0 -1.9L0.4 -0.6L1.8 -0.6L0.7 0.2L1.1 1.5L0 0.7L-1.1 1.5L-0.7 0.2L-1.8 -0.6L-0.4 -0.6Z" transform="translate(220 477)"></path><path d="M0 -1.9L0.4 -0.6L1.8 -0.6L0.7 0.2L1.1 1.5L0 0.7L-1.1 1.5L-0.7 0.2L-1.8 -0.6L-0.4 -0.6Z" transform="translate(2 443)"></path><path d="M0 -6.6L1.5 -2L6.3 -2L2.4 0.8L3.9 5.3L0 2.5L-3.9 5.3L-2.4 0.8L-6.3 -2L-1.5 -2Z" transform="translate(124 568)"></path><path d="M0 -5.7L1.3 -1.7L5.4 -1.7L2.1 0.7L3.3 4.6L0 2.2L-3.3 4.6L-2.1 0.7L-5.4 -1.7L-1.3 -1.7Z" transform="translate(227 55)"></path><path d="M0 -7.6L1.7 -2.3L7.2 -2.3L2.7 0.9L4.4 6.1L0 2.9L-4.4 6.1L-2.7 0.9L-7.2 -2.3L-1.7 -2.3Z" transform="translate(659 433)"></path><path d="M0 -2.8L0.6 -0.9L2.7 -0.9L1 0.3L1.7 2.3L0 1.1L-1.7 2.3L-1 0.3L-2.7 -0.9L-0.6 -0.9Z" transform="translate(843 464)"></path><path d="M0 -6.6L1.5 -2L6.3 -2L2.4 0.8L3.9 5.3L0 2.5L-3.9 5.3L-2.4 0.8L-6.3 -2L-1.5 -2Z" transform="translate(50 495)"></path><path d="M0 -6.6L1.5 -2L6.3 -2L2.4 0.8L3.9 5.3L0 2.5L-3.9 5.3L-2.4 0.8L-6.3 -2L-1.5 -2Z" transform="translate(630 226)"></path><path d="M0 -11.3L2.5 -3.5L10.8 -3.5L4.1 1.3L6.7 9.2L0 4.3L-6.7 9.2L-4.1 1.3L-10.8 -3.5L-2.5 -3.5Z" transform="translate(729 552)"></path><path d="M0 -3.8L0.8 -1.2L3.6 -1.2L1.4 0.4L2.2 3.1L0 1.4L-2.2 3.1L-1.4 0.4L-3.6 -1.2L-0.8 -1.2Z" transform="translate(281 148)"></path><path d="M0 -9.4L2.1 -2.9L9 -2.9L3.4 1.1L5.5 7.6L0 3.6L-5.5 7.6L-3.4 1.1L-9 -2.9L-2.1 -2.9Z" transform="translate(270 579)"></path><path d="M0 -3.8L0.8 -1.2L3.6 -1.2L1.4 0.4L2.2 3.1L0 1.4L-2.2 3.1L-1.4 0.4L-3.6 -1.2L-0.8 -1.2Z" transform="translate(341 29)"></path><path d="M0 -7.6L1.7 -2.3L7.2 -2.3L2.7 0.9L4.4 6.1L0 2.9L-4.4 6.1L-2.7 0.9L-7.2 -2.3L-1.7 -2.3Z" transform="translate(116 165)"></path><path d="M0 -1.9L0.4 -0.6L1.8 -0.6L0.7 0.2L1.1 1.5L0 0.7L-1.1 1.5L-0.7 0.2L-1.8 -0.6L-0.4 -0.6Z" transform="translate(139 373)"></path><path d="M0 -1.9L0.4 -0.6L1.8 -0.6L0.7 0.2L1.1 1.5L0 0.7L-1.1 1.5L-0.7 0.2L-1.8 -0.6L-0.4 -0.6Z" transform="translate(92 265)"></path><path d="M0 -9.4L2.1 -2.9L9 -2.9L3.4 1.1L5.5 7.6L0 3.6L-5.5 7.6L-3.4 1.1L-9 -2.9L-2.1 -2.9Z" transform="translate(549 21)"></path><path d="M0 -4.7L1.1 -1.5L4.5 -1.5L1.7 0.6L2.8 3.8L0 1.8L-2.8 3.8L-1.7 0.6L-4.5 -1.5L-1.1 -1.5Z" transform="translate(57 565)"></path><path d="M0 -3.8L0.8 -1.2L3.6 -1.2L1.4 0.4L2.2 3.1L0 1.4L-2.2 3.1L-1.4 0.4L-3.6 -1.2L-0.8 -1.2Z" transform="translate(190 152)"></path><path d="M0 -8.5L1.9 -2.6L8.1 -2.6L3.1 1L5 6.9L0 3.2L-5 6.9L-3.1 1L-8.1 -2.6L-1.9 -2.6Z" transform="translate(804 469)"></path><path d="M0 -5.7L1.3 -1.7L5.4 -1.7L2.1 0.7L3.3 4.6L0 2.2L-3.3 4.6L-2.1 0.7L-5.4 -1.7L-1.3 -1.7Z" transform="translate(263 519)"></path><path d="M0 0L0 0L0 0L0 0L0 0L0 0L0 0L0 0L0 0L0 0Z" transform="translate(738 160)"></path><path d="M0 -3.8L0.8 -1.2L3.6 -1.2L1.4 0.4L2.2 3.1L0 1.4L-2.2 3.1L-1.4 0.4L-3.6 -1.2L-0.8 -1.2Z" transform="translate(437 88)"></path><path d="M0 -8.5L1.9 -2.6L8.1 -2.6L3.1 1L5 6.9L0 3.2L-5 6.9L-3.1 1L-8.1 -2.6L-1.9 -2.6Z" transform="translate(147 220)"></path><path d="M0 -3.8L0.8 -1.2L3.6 -1.2L1.4 0.4L2.2 3.1L0 1.4L-2.2 3.1L-1.4 0.4L-3.6 -1.2L-0.8 -1.2Z" transform="translate(513 326)"></path><path d="M0 -5.7L1.3 -1.7L5.4 -1.7L2.1 0.7L3.3 4.6L0 2.2L-3.3 4.6L-2.1 0.7L-5.4 -1.7L-1.3 -1.7Z" transform="translate(787 207)"></path><path d="M0 -4.7L1.1 -1.5L4.5 -1.5L1.7 0.6L2.8 3.8L0 1.8L-2.8 3.8L-1.7 0.6L-4.5 -1.5L-1.1 -1.5Z" transform="translate(704 529)"></path><path d="M0 -2.8L0.6 -0.9L2.7 -0.9L1 0.3L1.7 2.3L0 1.1L-1.7 2.3L-1 0.3L-2.7 -0.9L-0.6 -0.9Z" transform="translate(684 88)"></path><path d="M0 -4.7L1.1 -1.5L4.5 -1.5L1.7 0.6L2.8 3.8L0 1.8L-2.8 3.8L-1.7 0.6L-4.5 -1.5L-1.1 -1.5Z" transform="translate(767 461)"></path><path d="M0 0L0 0L0 0L0 0L0 0L0 0L0 0L0 0L0 0L0 0Z" transform="translate(705 281)"></path><path d="M0 -11.3L2.5 -3.5L10.8 -3.5L4.1 1.3L6.7 9.2L0 4.3L-6.7 9.2L-4.1 1.3L-10.8 -3.5L-2.5 -3.5Z" transform="translate(394 203)"></path><path d="M0 0L0 0L0 0L0 0L0 0L0 0L0 0L0 0L0 0L0 0Z" transform="translate(168 255)"></path><path d="M0 -5.7L1.3 -1.7L5.4 -1.7L2.1 0.7L3.3 4.6L0 2.2L-3.3 4.6L-2.1 0.7L-5.4 -1.7L-1.3 -1.7Z" transform="translate(417 2)"></path><path d="M0 -0.9L0.2 -0.3L0.9 -0.3L0.3 0.1L0.6 0.8L0 0.4L-0.6 0.8L-0.3 0.1L-0.9 -0.3L-0.2 -0.3Z" transform="translate(205 75)"></path><path d="M0 -11.3L2.5 -3.5L10.8 -3.5L4.1 1.3L6.7 9.2L0 4.3L-6.7 9.2L-4.1 1.3L-10.8 -3.5L-2.5 -3.5Z" transform="translate(882 158)"></path><path d="M0 -7.6L1.7 -2.3L7.2 -2.3L2.7 0.9L4.4 6.1L0 2.9L-4.4 6.1L-2.7 0.9L-7.2 -2.3L-1.7 -2.3Z" transform="translate(501 400)"></path><path d="M0 -6.6L1.5 -2L6.3 -2L2.4 0.8L3.9 5.3L0 2.5L-3.9 5.3L-2.4 0.8L-6.3 -2L-1.5 -2Z" transform="translate(729 431)"></path><path d="M0 -10.4L2.3 -3.2L9.9 -3.2L3.8 1.2L6.1 8.4L0 4L-6.1 8.4L-3.8 1.2L-9.9 -3.2L-2.3 -3.2Z" transform="translate(719 258)"></path><path d="M0 -11.3L2.5 -3.5L10.8 -3.5L4.1 1.3L6.7 9.2L0 4.3L-6.7 9.2L-4.1 1.3L-10.8 -3.5L-2.5 -3.5Z" transform="translate(440 280)"></path><path d="M0 -9.4L2.1 -2.9L9 -2.9L3.4 1.1L5.5 7.6L0 3.6L-5.5 7.6L-3.4 1.1L-9 -2.9L-2.1 -2.9Z" transform="translate(283 36)"></path><path d="M0 -11.3L2.5 -3.5L10.8 -3.5L4.1 1.3L6.7 9.2L0 4.3L-6.7 9.2L-4.1 1.3L-10.8 -3.5L-2.5 -3.5Z" transform="translate(61 128)"></path><path d="M0 -9.4L2.1 -2.9L9 -2.9L3.4 1.1L5.5 7.6L0 3.6L-5.5 7.6L-3.4 1.1L-9 -2.9L-2.1 -2.9Z" transform="translate(556 131)"></path><path d="M0 -3.8L0.8 -1.2L3.6 -1.2L1.4 0.4L2.2 3.1L0 1.4L-2.2 3.1L-1.4 0.4L-3.6 -1.2L-0.8 -1.2Z" transform="translate(850 145)"></path><path d="M0 -5.7L1.3 -1.7L5.4 -1.7L2.1 0.7L3.3 4.6L0 2.2L-3.3 4.6L-2.1 0.7L-5.4 -1.7L-1.3 -1.7Z" transform="translate(887 64)"></path><path d="M0 -1.9L0.4 -0.6L1.8 -0.6L0.7 0.2L1.1 1.5L0 0.7L-1.1 1.5L-0.7 0.2L-1.8 -0.6L-0.4 -0.6Z" transform="translate(79 296)"></path><path d="M0 -9.4L2.1 -2.9L9 -2.9L3.4 1.1L5.5 7.6L0 3.6L-5.5 7.6L-3.4 1.1L-9 -2.9L-2.1 -2.9Z" transform="translate(35 21)"></path><path d="M0 -0.9L0.2 -0.3L0.9 -0.3L0.3 0.1L0.6 0.8L0 0.4L-0.6 0.8L-0.3 0.1L-0.9 -0.3L-0.2 -0.3Z" transform="translate(312 203)"></path><path d="M0 -2.8L0.6 -0.9L2.7 -0.9L1 0.3L1.7 2.3L0 1.1L-1.7 2.3L-1 0.3L-2.7 -0.9L-0.6 -0.9Z" transform="translate(784 174)"></path><path d="M0 -11.3L2.5 -3.5L10.8 -3.5L4.1 1.3L6.7 9.2L0 4.3L-6.7 9.2L-4.1 1.3L-10.8 -3.5L-2.5 -3.5Z" transform="translate(813 564)"></path><path d="M0 -4.7L1.1 -1.5L4.5 -1.5L1.7 0.6L2.8 3.8L0 1.8L-2.8 3.8L-1.7 0.6L-4.5 -1.5L-1.1 -1.5Z" transform="translate(595 140)"></path><path d="M0 -2.8L0.6 -0.9L2.7 -0.9L1 0.3L1.7 2.3L0 1.1L-1.7 2.3L-1 0.3L-2.7 -0.9L-0.6 -0.9Z" transform="translate(252 154)"></path><path d="M0 -5.7L1.3 -1.7L5.4 -1.7L2.1 0.7L3.3 4.6L0 2.2L-3.3 4.6L-2.1 0.7L-5.4 -1.7L-1.3 -1.7Z" transform="translate(814 163)"></path><path d="M0 -5.7L1.3 -1.7L5.4 -1.7L2.1 0.7L3.3 4.6L0 2.2L-3.3 4.6L-2.1 0.7L-5.4 -1.7L-1.3 -1.7Z" transform="translate(782 496)"></path><path d="M0 -5.7L1.3 -1.7L5.4 -1.7L2.1 0.7L3.3 4.6L0 2.2L-3.3 4.6L-2.1 0.7L-5.4 -1.7L-1.3 -1.7Z" transform="translate(752 327)"></path><path d="M0 -4.7L1.1 -1.5L4.5 -1.5L1.7 0.6L2.8 3.8L0 1.8L-2.8 3.8L-1.7 0.6L-4.5 -1.5L-1.1 -1.5Z" transform="translate(46 260)"></path><path d="M0 -5.7L1.3 -1.7L5.4 -1.7L2.1 0.7L3.3 4.6L0 2.2L-3.3 4.6L-2.1 0.7L-5.4 -1.7L-1.3 -1.7Z" transform="translate(453 465)"></path><path d="M0 -6.6L1.5 -2L6.3 -2L2.4 0.8L3.9 5.3L0 2.5L-3.9 5.3L-2.4 0.8L-6.3 -2L-1.5 -2Z" transform="translate(779 271)"></path><path d="M0 -10.4L2.3 -3.2L9.9 -3.2L3.8 1.2L6.1 8.4L0 4L-6.1 8.4L-3.8 1.2L-9.9 -3.2L-2.3 -3.2Z" transform="translate(345 310)"></path><path d="M0 0L0 0L0 0L0 0L0 0L0 0L0 0L0 0L0 0L0 0Z" transform="translate(33 526)"></path><path d="M0 -2.8L0.6 -0.9L2.7 -0.9L1 0.3L1.7 2.3L0 1.1L-1.7 2.3L-1 0.3L-2.7 -0.9L-0.6 -0.9Z" transform="translate(483 5)"></path><path d="M0 -9.4L2.1 -2.9L9 -2.9L3.4 1.1L5.5 7.6L0 3.6L-5.5 7.6L-3.4 1.1L-9 -2.9L-2.1 -2.9Z" transform="translate(384 478)"></path><path d="M0 -3.8L0.8 -1.2L3.6 -1.2L1.4 0.4L2.2 3.1L0 1.4L-2.2 3.1L-1.4 0.4L-3.6 -1.2L-0.8 -1.2Z" transform="translate(100 56)"></path><path d="M0 -1.9L0.4 -0.6L1.8 -0.6L0.7 0.2L1.1 1.5L0 0.7L-1.1 1.5L-0.7 0.2L-1.8 -0.6L-0.4 -0.6Z" transform="translate(157 160)"></path><path d="M0 0L0 0L0 0L0 0L0 0L0 0L0 0L0 0L0 0L0 0Z" transform="translate(552 422)"></path><path d="M0 -1.9L0.4 -0.6L1.8 -0.6L0.7 0.2L1.1 1.5L0 0.7L-1.1 1.5L-0.7 0.2L-1.8 -0.6L-0.4 -0.6Z" transform="translate(147 29)"></path><path d="M0 -8.5L1.9 -2.6L8.1 -2.6L3.1 1L5 6.9L0 3.2L-5 6.9L-3.1 1L-8.1 -2.6L-1.9 -2.6Z" transform="translate(361 442)"></path><path d="M0 -9.4L2.1 -2.9L9 -2.9L3.4 1.1L5.5 7.6L0 3.6L-5.5 7.6L-3.4 1.1L-9 -2.9L-2.1 -2.9Z" transform="translate(499 541)"></path><path d="M0 -3.8L0.8 -1.2L3.6 -1.2L1.4 0.4L2.2 3.1L0 1.4L-2.2 3.1L-1.4 0.4L-3.6 -1.2L-0.8 -1.2Z" transform="translate(604 43)"></path><path d="M0 -7.6L1.7 -2.3L7.2 -2.3L2.7 0.9L4.4 6.1L0 2.9L-4.4 6.1L-2.7 0.9L-7.2 -2.3L-1.7 -2.3Z" transform="translate(412 408)"></path><path d="M0 -9.4L2.1 -2.9L9 -2.9L3.4 1.1L5.5 7.6L0 3.6L-5.5 7.6L-3.4 1.1L-9 -2.9L-2.1 -2.9Z" transform="translate(190 501)"></path><path d="M0 -8.5L1.9 -2.6L8.1 -2.6L3.1 1L5 6.9L0 3.2L-5 6.9L-3.1 1L-8.1 -2.6L-1.9 -2.6Z" transform="translate(412 513)"></path><path d="M0 0L0 0L0 0L0 0L0 0L0 0L0 0L0 0L0 0L0 0Z" transform="translate(894 191)"></path><path d="M0 -2.8L0.6 -0.9L2.7 -0.9L1 0.3L1.7 2.3L0 1.1L-1.7 2.3L-1 0.3L-2.7 -0.9L-0.6 -0.9Z" transform="translate(638 134)"></path><path d="M0 -4.7L1.1 -1.5L4.5 -1.5L1.7 0.6L2.8 3.8L0 1.8L-2.8 3.8L-1.7 0.6L-4.5 -1.5L-1.1 -1.5Z" transform="translate(596 537)"></path><path d="M0 -9.4L2.1 -2.9L9 -2.9L3.4 1.1L5.5 7.6L0 3.6L-5.5 7.6L-3.4 1.1L-9 -2.9L-2.1 -2.9Z" transform="translate(865 110)"></path><path d="M0 -1.9L0.4 -0.6L1.8 -0.6L0.7 0.2L1.1 1.5L0 0.7L-1.1 1.5L-0.7 0.2L-1.8 -0.6L-0.4 -0.6Z" transform="translate(648 503)"></path><path d="M0 -6.6L1.5 -2L6.3 -2L2.4 0.8L3.9 5.3L0 2.5L-3.9 5.3L-2.4 0.8L-6.3 -2L-1.5 -2Z" transform="translate(169 464)"></path><path d="M0 -0.9L0.2 -0.3L0.9 -0.3L0.3 0.1L0.6 0.8L0 0.4L-0.6 0.8L-0.3 0.1L-0.9 -0.3L-0.2 -0.3Z" transform="translate(93 135)"></path><path d="M0 -10.4L2.3 -3.2L9.9 -3.2L3.8 1.2L6.1 8.4L0 4L-6.1 8.4L-3.8 1.2L-9.9 -3.2L-2.3 -3.2Z" transform="translate(68 34)"></path><path d="M0 -11.3L2.5 -3.5L10.8 -3.5L4.1 1.3L6.7 9.2L0 4.3L-6.7 9.2L-4.1 1.3L-10.8 -3.5L-2.5 -3.5Z" transform="translate(878 262)"></path><path d="M0 -9.4L2.1 -2.9L9 -2.9L3.4 1.1L5.5 7.6L0 3.6L-5.5 7.6L-3.4 1.1L-9 -2.9L-2.1 -2.9Z" transform="translate(452 31)"></path><path d="M0 -7.6L1.7 -2.3L7.2 -2.3L2.7 0.9L4.4 6.1L0 2.9L-4.4 6.1L-2.7 0.9L-7.2 -2.3L-1.7 -2.3Z" transform="translate(135 399)"></path><path d="M0 -7.6L1.7 -2.3L7.2 -2.3L2.7 0.9L4.4 6.1L0 2.9L-4.4 6.1L-2.7 0.9L-7.2 -2.3L-1.7 -2.3Z" transform="translate(151 276)"></path><path d="M0 -10.4L2.3 -3.2L9.9 -3.2L3.8 1.2L6.1 8.4L0 4L-6.1 8.4L-3.8 1.2L-9.9 -3.2L-2.3 -3.2Z" transform="translate(832 437)"></path><path d="M0 -9.4L2.1 -2.9L9 -2.9L3.4 1.1L5.5 7.6L0 3.6L-5.5 7.6L-3.4 1.1L-9 -2.9L-2.1 -2.9Z" transform="translate(723 313)"></path><path d="M0 0L0 0L0 0L0 0L0 0L0 0L0 0L0 0L0 0L0 0Z" transform="translate(584 212)"></path><path d="M0 -8.5L1.9 -2.6L8.1 -2.6L3.1 1L5 6.9L0 3.2L-5 6.9L-3.1 1L-8.1 -2.6L-1.9 -2.6Z" transform="translate(604 372)"></path><path d="M0 -7.6L1.7 -2.3L7.2 -2.3L2.7 0.9L4.4 6.1L0 2.9L-4.4 6.1L-2.7 0.9L-7.2 -2.3L-1.7 -2.3Z" transform="translate(860 68)"></path><path d="M0 -2.8L0.6 -0.9L2.7 -0.9L1 0.3L1.7 2.3L0 1.1L-1.7 2.3L-1 0.3L-2.7 -0.9L-0.6 -0.9Z" transform="translate(443 570)"></path><path d="M0 -7.6L1.7 -2.3L7.2 -2.3L2.7 0.9L4.4 6.1L0 2.9L-4.4 6.1L-2.7 0.9L-7.2 -2.3L-1.7 -2.3Z" transform="translate(179 599)"></path><path d="M0 -6.6L1.5 -2L6.3 -2L2.4 0.8L3.9 5.3L0 2.5L-3.9 5.3L-2.4 0.8L-6.3 -2L-1.5 -2Z" transform="translate(609 430)"></path><path d="M0 -7.6L1.7 -2.3L7.2 -2.3L2.7 0.9L4.4 6.1L0 2.9L-4.4 6.1L-2.7 0.9L-7.2 -2.3L-1.7 -2.3Z" transform="translate(403 556)"></path><path d="M0 -9.4L2.1 -2.9L9 -2.9L3.4 1.1L5.5 7.6L0 3.6L-5.5 7.6L-3.4 1.1L-9 -2.9L-2.1 -2.9Z" transform="translate(666 15)"></path><path d="M0 -2.8L0.6 -0.9L2.7 -0.9L1 0.3L1.7 2.3L0 1.1L-1.7 2.3L-1 0.3L-2.7 -0.9L-0.6 -0.9Z" transform="translate(438 195)"></path><path d="M0 -9.4L2.1 -2.9L9 -2.9L3.4 1.1L5.5 7.6L0 3.6L-5.5 7.6L-3.4 1.1L-9 -2.9L-2.1 -2.9Z" transform="translate(121 106)"></path><path d="M0 -0.9L0.2 -0.3L0.9 -0.3L0.3 0.1L0.6 0.8L0 0.4L-0.6 0.8L-0.3 0.1L-0.9 -0.3L-0.2 -0.3Z" transform="translate(320 337)"></path><path d="M0 -10.4L2.3 -3.2L9.9 -3.2L3.8 1.2L6.1 8.4L0 4L-6.1 8.4L-3.8 1.2L-9.9 -3.2L-2.3 -3.2Z" transform="translate(419 454)"></path><path d="M0 0L0 0L0 0L0 0L0 0L0 0L0 0L0 0L0 0L0 0Z" transform="translate(440 115)"></path><path d="M0 0L0 0L0 0L0 0L0 0L0 0L0 0L0 0L0 0L0 0Z" transform="translate(288 231)"></path><path d="M0 -6.6L1.5 -2L6.3 -2L2.4 0.8L3.9 5.3L0 2.5L-3.9 5.3L-2.4 0.8L-6.3 -2L-1.5 -2Z" transform="translate(119 235)"></path><path d="M0 0L0 0L0 0L0 0L0 0L0 0L0 0L0 0L0 0L0 0Z" transform="translate(825 91)"></path><path d="M0 -7.6L1.7 -2.3L7.2 -2.3L2.7 0.9L4.4 6.1L0 2.9L-4.4 6.1L-2.7 0.9L-7.2 -2.3L-1.7 -2.3Z" transform="translate(255 389)"></path><path d="M0 -4.7L1.1 -1.5L4.5 -1.5L1.7 0.6L2.8 3.8L0 1.8L-2.8 3.8L-1.7 0.6L-4.5 -1.5L-1.1 -1.5Z" transform="translate(340 259)"></path><path d="M0 -5.7L1.3 -1.7L5.4 -1.7L2.1 0.7L3.3 4.6L0 2.2L-3.3 4.6L-2.1 0.7L-5.4 -1.7L-1.3 -1.7Z" transform="translate(310 456)"></path><path d="M0 -11.3L2.5 -3.5L10.8 -3.5L4.1 1.3L6.7 9.2L0 4.3L-6.7 9.2L-4.1 1.3L-10.8 -3.5L-2.5 -3.5Z" transform="translate(714 472)"></path><path d="M0 -2.8L0.6 -0.9L2.7 -0.9L1 0.3L1.7 2.3L0 1.1L-1.7 2.3L-1 0.3L-2.7 -0.9L-0.6 -0.9Z" transform="translate(447 63)"></path><path d="M0 -4.7L1.1 -1.5L4.5 -1.5L1.7 0.6L2.8 3.8L0 1.8L-2.8 3.8L-1.7 0.6L-4.5 -1.5L-1.1 -1.5Z" transform="translate(484 151)"></path><path d="M0 -0.9L0.2 -0.3L0.9 -0.3L0.3 0.1L0.6 0.8L0 0.4L-0.6 0.8L-0.3 0.1L-0.9 -0.3L-0.2 -0.3Z" transform="translate(253 70)"></path><path d="M0 -7.6L1.7 -2.3L7.2 -2.3L2.7 0.9L4.4 6.1L0 2.9L-4.4 6.1L-2.7 0.9L-7.2 -2.3L-1.7 -2.3Z" transform="translate(33 195)"></path><path d="M0 -7.6L1.7 -2.3L7.2 -2.3L2.7 0.9L4.4 6.1L0 2.9L-4.4 6.1L-2.7 0.9L-7.2 -2.3L-1.7 -2.3Z" transform="translate(404 112)"></path><path d="M0 -2.8L0.6 -0.9L2.7 -0.9L1 0.3L1.7 2.3L0 1.1L-1.7 2.3L-1 0.3L-2.7 -0.9L-0.6 -0.9Z" transform="translate(852 212)"></path><path d="M0 -2.8L0.6 -0.9L2.7 -0.9L1 0.3L1.7 2.3L0 1.1L-1.7 2.3L-1 0.3L-2.7 -0.9L-0.6 -0.9Z" transform="translate(305 415)"></path><path d="M0 -8.5L1.9 -2.6L8.1 -2.6L3.1 1L5 6.9L0 3.2L-5 6.9L-3.1 1L-8.1 -2.6L-1.9 -2.6Z" transform="translate(371 42)"></path><path d="M0 -8.5L1.9 -2.6L8.1 -2.6L3.1 1L5 6.9L0 3.2L-5 6.9L-3.1 1L-8.1 -2.6L-1.9 -2.6Z" transform="translate(749 108)"></path><path d="M0 -5.7L1.3 -1.7L5.4 -1.7L2.1 0.7L3.3 4.6L0 2.2L-3.3 4.6L-2.1 0.7L-5.4 -1.7L-1.3 -1.7Z" transform="translate(653 81)"></path><path d="M0 -10.4L2.3 -3.2L9.9 -3.2L3.8 1.2L6.1 8.4L0 4L-6.1 8.4L-3.8 1.2L-9.9 -3.2L-2.3 -3.2Z" transform="translate(451 252)"></path><path d="M0 -1.9L0.4 -0.6L1.8 -0.6L0.7 0.2L1.1 1.5L0 0.7L-1.1 1.5L-0.7 0.2L-1.8 -0.6L-0.4 -0.6Z" transform="translate(642 53)"></path><path d="M0 -2.8L0.6 -0.9L2.7 -0.9L1 0.3L1.7 2.3L0 1.1L-1.7 2.3L-1 0.3L-2.7 -0.9L-0.6 -0.9Z" transform="translate(365 370)"></path><path d="M0 -4.7L1.1 -1.5L4.5 -1.5L1.7 0.6L2.8 3.8L0 1.8L-2.8 3.8L-1.7 0.6L-4.5 -1.5L-1.1 -1.5Z" transform="translate(370 193)"></path><path d="M0 -6.6L1.5 -2L6.3 -2L2.4 0.8L3.9 5.3L0 2.5L-3.9 5.3L-2.4 0.8L-6.3 -2L-1.5 -2Z" transform="translate(723 598)"></path><path d="M0 0L0 0L0 0L0 0L0 0L0 0L0 0L0 0L0 0L0 0Z" transform="translate(59 74)"></path><path d="M0 -9.4L2.1 -2.9L9 -2.9L3.4 1.1L5.5 7.6L0 3.6L-5.5 7.6L-3.4 1.1L-9 -2.9L-2.1 -2.9Z" transform="translate(771 133)"></path><path d="M0 -9.4L2.1 -2.9L9 -2.9L3.4 1.1L5.5 7.6L0 3.6L-5.5 7.6L-3.4 1.1L-9 -2.9L-2.1 -2.9Z" transform="translate(816 20)"></path><path d="M0 -11.3L2.5 -3.5L10.8 -3.5L4.1 1.3L6.7 9.2L0 4.3L-6.7 9.2L-4.1 1.3L-10.8 -3.5L-2.5 -3.5Z" transform="translate(729 18)"></path><path d="M0 -1.9L0.4 -0.6L1.8 -0.6L0.7 0.2L1.1 1.5L0 0.7L-1.1 1.5L-0.7 0.2L-1.8 -0.6L-0.4 -0.6Z" transform="translate(137 80)"></path><path d="M0 -1.9L0.4 -0.6L1.8 -0.6L0.7 0.2L1.1 1.5L0 0.7L-1.1 1.5L-0.7 0.2L-1.8 -0.6L-0.4 -0.6Z" transform="translate(829 392)"></path><path d="M0 -7.6L1.7 -2.3L7.2 -2.3L2.7 0.9L4.4 6.1L0 2.9L-4.4 6.1L-2.7 0.9L-7.2 -2.3L-1.7 -2.3Z" transform="translate(281 541)"></path><path d="M0 0L0 0L0 0L0 0L0 0L0 0L0 0L0 0L0 0L0 0Z" transform="translate(122 537)"></path><path d="M0 0L0 0L0 0L0 0L0 0L0 0L0 0L0 0L0 0L0 0Z" transform="translate(783 317)"></path><path d="M0 -4.7L1.1 -1.5L4.5 -1.5L1.7 0.6L2.8 3.8L0 1.8L-2.8 3.8L-1.7 0.6L-4.5 -1.5L-1.1 -1.5Z" transform="translate(333 58)"></path><path d="M0 -11.3L2.5 -3.5L10.8 -3.5L4.1 1.3L6.7 9.2L0 4.3L-6.7 9.2L-4.1 1.3L-10.8 -3.5L-2.5 -3.5Z" transform="translate(700 449)"></path><path d="M0 -4.7L1.1 -1.5L4.5 -1.5L1.7 0.6L2.8 3.8L0 1.8L-2.8 3.8L-1.7 0.6L-4.5 -1.5L-1.1 -1.5Z" transform="translate(684 228)"></path><path d="M0 -0.9L0.2 -0.3L0.9 -0.3L0.3 0.1L0.6 0.8L0 0.4L-0.6 0.8L-0.3 0.1L-0.9 -0.3L-0.2 -0.3Z" transform="translate(605 570)"></path><path d="M0 -10.4L2.3 -3.2L9.9 -3.2L3.8 1.2L6.1 8.4L0 4L-6.1 8.4L-3.8 1.2L-9.9 -3.2L-2.3 -3.2Z" transform="translate(480 210)"></path><path d="M0 -4.7L1.1 -1.5L4.5 -1.5L1.7 0.6L2.8 3.8L0 1.8L-2.8 3.8L-1.7 0.6L-4.5 -1.5L-1.1 -1.5Z" transform="translate(218 322)"></path><path d="M0 -10.4L2.3 -3.2L9.9 -3.2L3.8 1.2L6.1 8.4L0 4L-6.1 8.4L-3.8 1.2L-9.9 -3.2L-2.3 -3.2Z" transform="translate(167 386)"></path><path d="M0 0L0 0L0 0L0 0L0 0L0 0L0 0L0 0L0 0L0 0Z" transform="translate(439 432)"></path><path d="M0 -2.8L0.6 -0.9L2.7 -0.9L1 0.3L1.7 2.3L0 1.1L-1.7 2.3L-1 0.3L-2.7 -0.9L-0.6 -0.9Z" transform="translate(615 320)"></path><path d="M0 -0.9L0.2 -0.3L0.9 -0.3L0.3 0.1L0.6 0.8L0 0.4L-0.6 0.8L-0.3 0.1L-0.9 -0.3L-0.2 -0.3Z" transform="translate(861 425)"></path><path d="M0 -0.9L0.2 -0.3L0.9 -0.3L0.3 0.1L0.6 0.8L0 0.4L-0.6 0.8L-0.3 0.1L-0.9 -0.3L-0.2 -0.3Z" transform="translate(6 256)"></path><path d="M0 -6.6L1.5 -2L6.3 -2L2.4 0.8L3.9 5.3L0 2.5L-3.9 5.3L-2.4 0.8L-6.3 -2L-1.5 -2Z" transform="translate(577 186)"></path><path d="M0 -10.4L2.3 -3.2L9.9 -3.2L3.8 1.2L6.1 8.4L0 4L-6.1 8.4L-3.8 1.2L-9.9 -3.2L-2.3 -3.2Z" transform="translate(198 270)"></path><path d="M0 -10.4L2.3 -3.2L9.9 -3.2L3.8 1.2L6.1 8.4L0 4L-6.1 8.4L-3.8 1.2L-9.9 -3.2L-2.3 -3.2Z" transform="translate(581 105)"></path><path d="M0 -10.4L2.3 -3.2L9.9 -3.2L3.8 1.2L6.1 8.4L0 4L-6.1 8.4L-3.8 1.2L-9.9 -3.2L-2.3 -3.2Z" transform="translate(151 435)"></path><path d="M0 -8.5L1.9 -2.6L8.1 -2.6L3.1 1L5 6.9L0 3.2L-5 6.9L-3.1 1L-8.1 -2.6L-1.9 -2.6Z" transform="translate(812 334)"></path><path d="M0 -5.7L1.3 -1.7L5.4 -1.7L2.1 0.7L3.3 4.6L0 2.2L-3.3 4.6L-2.1 0.7L-5.4 -1.7L-1.3 -1.7Z" transform="translate(239 233)"></path><path d="M0 -4.7L1.1 -1.5L4.5 -1.5L1.7 0.6L2.8 3.8L0 1.8L-2.8 3.8L-1.7 0.6L-4.5 -1.5L-1.1 -1.5Z" transform="translate(658 187)"></path><path d="M0 -9.4L2.1 -2.9L9 -2.9L3.4 1.1L5.5 7.6L0 3.6L-5.5 7.6L-3.4 1.1L-9 -2.9L-2.1 -2.9Z" transform="translate(485 312)"></path><path d="M0 -6.6L1.5 -2L6.3 -2L2.4 0.8L3.9 5.3L0 2.5L-3.9 5.3L-2.4 0.8L-6.3 -2L-1.5 -2Z" transform="translate(252 321)"></path><path d="M0 -7.6L1.7 -2.3L7.2 -2.3L2.7 0.9L4.4 6.1L0 2.9L-4.4 6.1L-2.7 0.9L-7.2 -2.3L-1.7 -2.3Z" transform="translate(530 516)"></path><path d="M0 -1.9L0.4 -0.6L1.8 -0.6L0.7 0.2L1.1 1.5L0 0.7L-1.1 1.5L-0.7 0.2L-1.8 -0.6L-0.4 -0.6Z" transform="translate(516 376)"></path><path d="M0 -8.5L1.9 -2.6L8.1 -2.6L3.1 1L5 6.9L0 3.2L-5 6.9L-3.1 1L-8.1 -2.6L-1.9 -2.6Z" transform="translate(120 436)"></path><path d="M0 -11.3L2.5 -3.5L10.8 -3.5L4.1 1.3L6.7 9.2L0 4.3L-6.7 9.2L-4.1 1.3L-10.8 -3.5L-2.5 -3.5Z" transform="translate(580 508)"></path><path d="M0 -4.7L1.1 -1.5L4.5 -1.5L1.7 0.6L2.8 3.8L0 1.8L-2.8 3.8L-1.7 0.6L-4.5 -1.5L-1.1 -1.5Z" transform="translate(660 405)"></path><path d="M0 -3.8L0.8 -1.2L3.6 -1.2L1.4 0.4L2.2 3.1L0 1.4L-2.2 3.1L-1.4 0.4L-3.6 -1.2L-0.8 -1.2Z" transform="translate(537 576)"></path><path d="M0 -9.4L2.1 -2.9L9 -2.9L3.4 1.1L5.5 7.6L0 3.6L-5.5 7.6L-3.4 1.1L-9 -2.9L-2.1 -2.9Z" transform="translate(715 144)"></path><path d="M0 -11.3L2.5 -3.5L10.8 -3.5L4.1 1.3L6.7 9.2L0 4.3L-6.7 9.2L-4.1 1.3L-10.8 -3.5L-2.5 -3.5Z" transform="translate(396 386)"></path><path d="M0 -11.3L2.5 -3.5L10.8 -3.5L4.1 1.3L6.7 9.2L0 4.3L-6.7 9.2L-4.1 1.3L-10.8 -3.5L-2.5 -3.5Z" transform="translate(174 16)"></path><path d="M0 -8.5L1.9 -2.6L8.1 -2.6L3.1 1L5 6.9L0 3.2L-5 6.9L-3.1 1L-8.1 -2.6L-1.9 -2.6Z" transform="translate(478 110)"></path><path d="M0 -4.7L1.1 -1.5L4.5 -1.5L1.7 0.6L2.8 3.8L0 1.8L-2.8 3.8L-1.7 0.6L-4.5 -1.5L-1.1 -1.5Z" transform="translate(753 30)"></path><path d="M0 -10.4L2.3 -3.2L9.9 -3.2L3.8 1.2L6.1 8.4L0 4L-6.1 8.4L-3.8 1.2L-9.9 -3.2L-2.3 -3.2Z" transform="translate(377 521)"></path><path d="M0 -11.3L2.5 -3.5L10.8 -3.5L4.1 1.3L6.7 9.2L0 4.3L-6.7 9.2L-4.1 1.3L-10.8 -3.5L-2.5 -3.5Z" transform="translate(703 569)"></path><path d="M0 0L0 0L0 0L0 0L0 0L0 0L0 0L0 0L0 0L0 0Z" transform="translate(810 223)"></path><path d="M0 -11.3L2.5 -3.5L10.8 -3.5L4.1 1.3L6.7 9.2L0 4.3L-6.7 9.2L-4.1 1.3L-10.8 -3.5L-2.5 -3.5Z" transform="translate(799 296)"></path><path d="M0 -11.3L2.5 -3.5L10.8 -3.5L4.1 1.3L6.7 9.2L0 4.3L-6.7 9.2L-4.1 1.3L-10.8 -3.5L-2.5 -3.5Z" transform="translate(329 180)"></path><path d="M0 -5.7L1.3 -1.7L5.4 -1.7L2.1 0.7L3.3 4.6L0 2.2L-3.3 4.6L-2.1 0.7L-5.4 -1.7L-1.3 -1.7Z" transform="translate(742 290)"></path><path d="M0 -4.7L1.1 -1.5L4.5 -1.5L1.7 0.6L2.8 3.8L0 1.8L-2.8 3.8L-1.7 0.6L-4.5 -1.5L-1.1 -1.5Z" transform="translate(334 536)"></path><path d="M0 -6.6L1.5 -2L6.3 -2L2.4 0.8L3.9 5.3L0 2.5L-3.9 5.3L-2.4 0.8L-6.3 -2L-1.5 -2Z" transform="translate(858 532)"></path><path d="M0 -10.4L2.3 -3.2L9.9 -3.2L3.8 1.2L6.1 8.4L0 4L-6.1 8.4L-3.8 1.2L-9.9 -3.2L-2.3 -3.2Z" transform="translate(308 130)"></path><path d="M0 -1.9L0.4 -0.6L1.8 -0.6L0.7 0.2L1.1 1.5L0 0.7L-1.1 1.5L-0.7 0.2L-1.8 -0.6L-0.4 -0.6Z" transform="translate(324 504)"></path><path d="M0 -2.8L0.6 -0.9L2.7 -0.9L1 0.3L1.7 2.3L0 1.1L-1.7 2.3L-1 0.3L-2.7 -0.9L-0.6 -0.9Z" transform="translate(84 426)"></path><path d="M0 -11.3L2.5 -3.5L10.8 -3.5L4.1 1.3L6.7 9.2L0 4.3L-6.7 9.2L-4.1 1.3L-10.8 -3.5L-2.5 -3.5Z" transform="translate(295 107)"></path><path d="M0 -8.5L1.9 -2.6L8.1 -2.6L3.1 1L5 6.9L0 3.2L-5 6.9L-3.1 1L-8.1 -2.6L-1.9 -2.6Z" transform="translate(250 438)"></path><path d="M0 -5.7L1.3 -1.7L5.4 -1.7L2.1 0.7L3.3 4.6L0 2.2L-3.3 4.6L-2.1 0.7L-5.4 -1.7L-1.3 -1.7Z" transform="translate(527 45)"></path><path d="M0 -0.9L0.2 -0.3L0.9 -0.3L0.3 0.1L0.6 0.8L0 0.4L-0.6 0.8L-0.3 0.1L-0.9 -0.3L-0.2 -0.3Z" transform="translate(492 465)"></path><path d="M0 -1.9L0.4 -0.6L1.8 -0.6L0.7 0.2L1.1 1.5L0 0.7L-1.1 1.5L-0.7 0.2L-1.8 -0.6L-0.4 -0.6Z" transform="translate(689 162)"></path><path d="M0 -9.4L2.1 -2.9L9 -2.9L3.4 1.1L5.5 7.6L0 3.6L-5.5 7.6L-3.4 1.1L-9 -2.9L-2.1 -2.9Z" transform="translate(848 21)"></path><path d="M0 -9.4L2.1 -2.9L9 -2.9L3.4 1.1L5.5 7.6L0 3.6L-5.5 7.6L-3.4 1.1L-9 -2.9L-2.1 -2.9Z" transform="translate(389 325)"></path><path d="M0 -3.8L0.8 -1.2L3.6 -1.2L1.4 0.4L2.2 3.1L0 1.4L-2.2 3.1L-1.4 0.4L-3.6 -1.2L-0.8 -1.2Z" transform="translate(875 29)"></path><path d="M0 -10.4L2.3 -3.2L9.9 -3.2L3.8 1.2L6.1 8.4L0 4L-6.1 8.4L-3.8 1.2L-9.9 -3.2L-2.3 -3.2Z" transform="translate(806 590)"></path><path d="M0 -9.4L2.1 -2.9L9 -2.9L3.4 1.1L5.5 7.6L0 3.6L-5.5 7.6L-3.4 1.1L-9 -2.9L-2.1 -2.9Z" transform="translate(639 375)"></path><path d="M0 -6.6L1.5 -2L6.3 -2L2.4 0.8L3.9 5.3L0 2.5L-3.9 5.3L-2.4 0.8L-6.3 -2L-1.5 -2Z" transform="translate(837 301)"></path><path d="M0 -8.5L1.9 -2.6L8.1 -2.6L3.1 1L5 6.9L0 3.2L-5 6.9L-3.1 1L-8.1 -2.6L-1.9 -2.6Z" transform="translate(784 4)"></path><path d="M0 -9.4L2.1 -2.9L9 -2.9L3.4 1.1L5.5 7.6L0 3.6L-5.5 7.6L-3.4 1.1L-9 -2.9L-2.1 -2.9Z" transform="translate(92 355)"></path><path d="M0 0L0 0L0 0L0 0L0 0L0 0L0 0L0 0L0 0L0 0Z" transform="translate(692 595)"></path><path d="M0 -5.7L1.3 -1.7L5.4 -1.7L2.1 0.7L3.3 4.6L0 2.2L-3.3 4.6L-2.1 0.7L-5.4 -1.7L-1.3 -1.7Z" transform="translate(419 595)"></path><path d="M0 -3.8L0.8 -1.2L3.6 -1.2L1.4 0.4L2.2 3.1L0 1.4L-2.2 3.1L-1.4 0.4L-3.6 -1.2L-0.8 -1.2Z" transform="translate(851 251)"></path><path d="M0 0L0 0L0 0L0 0L0 0L0 0L0 0L0 0L0 0L0 0Z" transform="translate(275 422)"></path><path d="M0 -6.6L1.5 -2L6.3 -2L2.4 0.8L3.9 5.3L0 2.5L-3.9 5.3L-2.4 0.8L-6.3 -2L-1.5 -2Z" transform="translate(249 125)"></path><path d="M0 -0.9L0.2 -0.3L0.9 -0.3L0.3 0.1L0.6 0.8L0 0.4L-0.6 0.8L-0.3 0.1L-0.9 -0.3L-0.2 -0.3Z" transform="translate(339 576)"></path><path d="M0 -8.5L1.9 -2.6L8.1 -2.6L3.1 1L5 6.9L0 3.2L-5 6.9L-3.1 1L-8.1 -2.6L-1.9 -2.6Z" transform="translate(520 468)"></path><path d="M0 -4.7L1.1 -1.5L4.5 -1.5L1.7 0.6L2.8 3.8L0 1.8L-2.8 3.8L-1.7 0.6L-4.5 -1.5L-1.1 -1.5Z" transform="translate(687 313)"></path><path d="M0 0L0 0L0 0L0 0L0 0L0 0L0 0L0 0L0 0L0 0Z" transform="translate(882 453)"></path><path d="M0 -0.9L0.2 -0.3L0.9 -0.3L0.3 0.1L0.6 0.8L0 0.4L-0.6 0.8L-0.3 0.1L-0.9 -0.3L-0.2 -0.3Z" transform="translate(740 352)"></path><path d="M0 -10.4L2.3 -3.2L9.9 -3.2L3.8 1.2L6.1 8.4L0 4L-6.1 8.4L-3.8 1.2L-9.9 -3.2L-2.3 -3.2Z" transform="translate(755 214)"></path><path d="M0 0L0 0L0 0L0 0L0 0L0 0L0 0L0 0L0 0L0 0Z" transform="translate(429 542)"></path><path d="M0 -0.9L0.2 -0.3L0.9 -0.3L0.3 0.1L0.6 0.8L0 0.4L-0.6 0.8L-0.3 0.1L-0.9 -0.3L-0.2 -0.3Z" transform="translate(667 42)"></path><path d="M0 -9.4L2.1 -2.9L9 -2.9L3.4 1.1L5.5 7.6L0 3.6L-5.5 7.6L-3.4 1.1L-9 -2.9L-2.1 -2.9Z" transform="translate(600 454)"></path><path d="M0 -8.5L1.9 -2.6L8.1 -2.6L3.1 1L5 6.9L0 3.2L-5 6.9L-3.1 1L-8.1 -2.6L-1.9 -2.6Z" transform="translate(249 472)"></path><path d="M0 -1.9L0.4 -0.6L1.8 -0.6L0.7 0.2L1.1 1.5L0 0.7L-1.1 1.5L-0.7 0.2L-1.8 -0.6L-0.4 -0.6Z" transform="translate(126 290)"></path><path d="M0 -10.4L2.3 -3.2L9.9 -3.2L3.8 1.2L6.1 8.4L0 4L-6.1 8.4L-3.8 1.2L-9.9 -3.2L-2.3 -3.2Z" transform="translate(179 202)"></path><path d="M0 -7.6L1.7 -2.3L7.2 -2.3L2.7 0.9L4.4 6.1L0 2.9L-4.4 6.1L-2.7 0.9L-7.2 -2.3L-1.7 -2.3Z" transform="translate(490 85)"></path><path d="M0 -8.5L1.9 -2.6L8.1 -2.6L3.1 1L5 6.9L0 3.2L-5 6.9L-3.1 1L-8.1 -2.6L-1.9 -2.6Z" transform="translate(488 241)"></path><path d="M0 -11.3L2.5 -3.5L10.8 -3.5L4.1 1.3L6.7 9.2L0 4.3L-6.7 9.2L-4.1 1.3L-10.8 -3.5L-2.5 -3.5Z" transform="translate(881 546)"></path><path d="M0 -5.7L1.3 -1.7L5.4 -1.7L2.1 0.7L3.3 4.6L0 2.2L-3.3 4.6L-2.1 0.7L-5.4 -1.7L-1.3 -1.7Z" transform="translate(605 502)"></path><path d="M0 -0.9L0.2 -0.3L0.9 -0.3L0.3 0.1L0.6 0.8L0 0.4L-0.6 0.8L-0.3 0.1L-0.9 -0.3L-0.2 -0.3Z" transform="translate(162 305)"></path><path d="M0 -10.4L2.3 -3.2L9.9 -3.2L3.8 1.2L6.1 8.4L0 4L-6.1 8.4L-3.8 1.2L-9.9 -3.2L-2.3 -3.2Z" transform="translate(705 4)"></path><path d="M0 -9.4L2.1 -2.9L9 -2.9L3.4 1.1L5.5 7.6L0 3.6L-5.5 7.6L-3.4 1.1L-9 -2.9L-2.1 -2.9Z" transform="translate(896 134)"></path><path d="M0 -0.9L0.2 -0.3L0.9 -0.3L0.3 0.1L0.6 0.8L0 0.4L-0.6 0.8L-0.3 0.1L-0.9 -0.3L-0.2 -0.3Z" transform="translate(711 90)"></path><path d="M0 -7.6L1.7 -2.3L7.2 -2.3L2.7 0.9L4.4 6.1L0 2.9L-4.4 6.1L-2.7 0.9L-7.2 -2.3L-1.7 -2.3Z" transform="translate(867 594)"></path><path d="M0 -11.3L2.5 -3.5L10.8 -3.5L4.1 1.3L6.7 9.2L0 4.3L-6.7 9.2L-4.1 1.3L-10.8 -3.5L-2.5 -3.5Z" transform="translate(800 540)"></path><path d="M0 -7.6L1.7 -2.3L7.2 -2.3L2.7 0.9L4.4 6.1L0 2.9L-4.4 6.1L-2.7 0.9L-7.2 -2.3L-1.7 -2.3Z" transform="translate(624 261)"></path><path d="M0 -2.8L0.6 -0.9L2.7 -0.9L1 0.3L1.7 2.3L0 1.1L-1.7 2.3L-1 0.3L-2.7 -0.9L-0.6 -0.9Z" transform="translate(680 345)"></path><path d="M0 -5.7L1.3 -1.7L5.4 -1.7L2.1 0.7L3.3 4.6L0 2.2L-3.3 4.6L-2.1 0.7L-5.4 -1.7L-1.3 -1.7Z" transform="translate(506 293)"></path><path d="M0 -5.7L1.3 -1.7L5.4 -1.7L2.1 0.7L3.3 4.6L0 2.2L-3.3 4.6L-2.1 0.7L-5.4 -1.7L-1.3 -1.7Z" transform="translate(563 579)"></path><path d="M0 -7.6L1.7 -2.3L7.2 -2.3L2.7 0.9L4.4 6.1L0 2.9L-4.4 6.1L-2.7 0.9L-7.2 -2.3L-1.7 -2.3Z" transform="translate(350 473)"></path><path d="M0 -9.4L2.1 -2.9L9 -2.9L3.4 1.1L5.5 7.6L0 3.6L-5.5 7.6L-3.4 1.1L-9 -2.9L-2.1 -2.9Z" transform="translate(191 398)"></path><path d="M0 -6.6L1.5 -2L6.3 -2L2.4 0.8L3.9 5.3L0 2.5L-3.9 5.3L-2.4 0.8L-6.3 -2L-1.5 -2Z" transform="translate(259 4)"></path><path d="M0 -8.5L1.9 -2.6L8.1 -2.6L3.1 1L5 6.9L0 3.2L-5 6.9L-3.1 1L-8.1 -2.6L-1.9 -2.6Z" transform="translate(368 97)"></path><path d="M0 -5.7L1.3 -1.7L5.4 -1.7L2.1 0.7L3.3 4.6L0 2.2L-3.3 4.6L-2.1 0.7L-5.4 -1.7L-1.3 -1.7Z" transform="translate(516 147)"></path><path d="M0 -6.6L1.5 -2L6.3 -2L2.4 0.8L3.9 5.3L0 2.5L-3.9 5.3L-2.4 0.8L-6.3 -2L-1.5 -2Z" transform="translate(611 181)"></path><path d="M0 -5.7L1.3 -1.7L5.4 -1.7L2.1 0.7L3.3 4.6L0 2.2L-3.3 4.6L-2.1 0.7L-5.4 -1.7L-1.3 -1.7Z" transform="translate(207 582)"></path><path d="M0 -5.7L1.3 -1.7L5.4 -1.7L2.1 0.7L3.3 4.6L0 2.2L-3.3 4.6L-2.1 0.7L-5.4 -1.7L-1.3 -1.7Z" transform="translate(754 505)"></path><path d="M0 -8.5L1.9 -2.6L8.1 -2.6L3.1 1L5 6.9L0 3.2L-5 6.9L-3.1 1L-8.1 -2.6L-1.9 -2.6Z" transform="translate(493 507)"></path><path d="M0 -9.4L2.1 -2.9L9 -2.9L3.4 1.1L5.5 7.6L0 3.6L-5.5 7.6L-3.4 1.1L-9 -2.9L-2.1 -2.9Z" transform="translate(83 553)"></path><path d="M0 -8.5L1.9 -2.6L8.1 -2.6L3.1 1L5 6.9L0 3.2L-5 6.9L-3.1 1L-8.1 -2.6L-1.9 -2.6Z" transform="translate(321 10)"></path><path d="M0 -9.4L2.1 -2.9L9 -2.9L3.4 1.1L5.5 7.6L0 3.6L-5.5 7.6L-3.4 1.1L-9 -2.9L-2.1 -2.9Z" transform="translate(867 507)"></path><path d="M0 -4.7L1.1 -1.5L4.5 -1.5L1.7 0.6L2.8 3.8L0 1.8L-2.8 3.8L-1.7 0.6L-4.5 -1.5L-1.1 -1.5Z" transform="translate(762 530)"></path><path d="M0 -10.4L2.3 -3.2L9.9 -3.2L3.8 1.2L6.1 8.4L0 4L-6.1 8.4L-3.8 1.2L-9.9 -3.2L-2.3 -3.2Z" transform="translate(342 155)"></path><path d="M0 -11.3L2.5 -3.5L10.8 -3.5L4.1 1.3L6.7 9.2L0 4.3L-6.7 9.2L-4.1 1.3L-10.8 -3.5L-2.5 -3.5Z" transform="translate(100 495)"></path><path d="M0 -10.4L2.3 -3.2L9.9 -3.2L3.8 1.2L6.1 8.4L0 4L-6.1 8.4L-3.8 1.2L-9.9 -3.2L-2.3 -3.2Z" transform="translate(210 243)"></path><path d="M0 -3.8L0.8 -1.2L3.6 -1.2L1.4 0.4L2.2 3.1L0 1.4L-2.2 3.1L-1.4 0.4L-3.6 -1.2L-0.8 -1.2Z" transform="translate(238 277)"></path><path d="M0 -3.8L0.8 -1.2L3.6 -1.2L1.4 0.4L2.2 3.1L0 1.4L-2.2 3.1L-1.4 0.4L-3.6 -1.2L-0.8 -1.2Z" transform="translate(667 371)"></path><path d="M0 -6.6L1.5 -2L6.3 -2L2.4 0.8L3.9 5.3L0 2.5L-3.9 5.3L-2.4 0.8L-6.3 -2L-1.5 -2Z" transform="translate(119 598)"></path><path d="M0 -9.4L2.1 -2.9L9 -2.9L3.4 1.1L5.5 7.6L0 3.6L-5.5 7.6L-3.4 1.1L-9 -2.9L-2.1 -2.9Z" transform="translate(322 100)"></path><path d="M0 -3.8L0.8 -1.2L3.6 -1.2L1.4 0.4L2.2 3.1L0 1.4L-2.2 3.1L-1.4 0.4L-3.6 -1.2L-0.8 -1.2Z" transform="translate(157 537)"></path><path d="M0 -11.3L2.5 -3.5L10.8 -3.5L4.1 1.3L6.7 9.2L0 4.3L-6.7 9.2L-4.1 1.3L-10.8 -3.5L-2.5 -3.5Z" transform="translate(893 8)"></path><path d="M0 -7.6L1.7 -2.3L7.2 -2.3L2.7 0.9L4.4 6.1L0 2.9L-4.4 6.1L-2.7 0.9L-7.2 -2.3L-1.7 -2.3Z" transform="translate(899 481)"></path><path d="M0 -1.9L0.4 -0.6L1.8 -0.6L0.7 0.2L1.1 1.5L0 0.7L-1.1 1.5L-0.7 0.2L-1.8 -0.6L-0.4 -0.6Z" transform="translate(3 70)"></path><path d="M0 -6.6L1.5 -2L6.3 -2L2.4 0.8L3.9 5.3L0 2.5L-3.9 5.3L-2.4 0.8L-6.3 -2L-1.5 -2Z" transform="translate(204 14)"></path><path d="M0 -10.4L2.3 -3.2L9.9 -3.2L3.8 1.2L6.1 8.4L0 4L-6.1 8.4L-3.8 1.2L-9.9 -3.2L-2.3 -3.2Z" transform="translate(609 108)"></path><path d="M0 -3.8L0.8 -1.2L3.6 -1.2L1.4 0.4L2.2 3.1L0 1.4L-2.2 3.1L-1.4 0.4L-3.6 -1.2L-0.8 -1.2Z" transform="translate(223 141)"></path><path d="M0 -5.7L1.3 -1.7L5.4 -1.7L2.1 0.7L3.3 4.6L0 2.2L-3.3 4.6L-2.1 0.7L-5.4 -1.7L-1.3 -1.7Z" transform="translate(571 474)"></path><path d="M0 -4.7L1.1 -1.5L4.5 -1.5L1.7 0.6L2.8 3.8L0 1.8L-2.8 3.8L-1.7 0.6L-4.5 -1.5L-1.1 -1.5Z" transform="translate(599 6)"></path><path d="M0 -0.9L0.2 -0.3L0.9 -0.3L0.3 0.1L0.6 0.8L0 0.4L-0.6 0.8L-0.3 0.1L-0.9 -0.3L-0.2 -0.3Z" transform="translate(309 275)"></path><path d="M0 -3.8L0.8 -1.2L3.6 -1.2L1.4 0.4L2.2 3.1L0 1.4L-2.2 3.1L-1.4 0.4L-3.6 -1.2L-0.8 -1.2Z" transform="translate(476 179)"></path><path d="M0 -1.9L0.4 -0.6L1.8 -0.6L0.7 0.2L1.1 1.5L0 0.7L-1.1 1.5L-0.7 0.2L-1.8 -0.6L-0.4 -0.6Z" transform="translate(91 101)"></path><path d="M0 -8.5L1.9 -2.6L8.1 -2.6L3.1 1L5 6.9L0 3.2L-5 6.9L-3.1 1L-8.1 -2.6L-1.9 -2.6Z" transform="translate(179 53)"></path><path d="M0 -10.4L2.3 -3.2L9.9 -3.2L3.8 1.2L6.1 8.4L0 4L-6.1 8.4L-3.8 1.2L-9.9 -3.2L-2.3 -3.2Z" transform="translate(753 590)"></path><path d="M0 -11.3L2.5 -3.5L10.8 -3.5L4.1 1.3L6.7 9.2L0 4.3L-6.7 9.2L-4.1 1.3L-10.8 -3.5L-2.5 -3.5Z" transform="translate(452 305)"></path><path d="M0 -6.6L1.5 -2L6.3 -2L2.4 0.8L3.9 5.3L0 2.5L-3.9 5.3L-2.4 0.8L-6.3 -2L-1.5 -2Z" transform="translate(118 203)"></path><path d="M0 -2.8L0.6 -0.9L2.7 -0.9L1 0.3L1.7 2.3L0 1.1L-1.7 2.3L-1 0.3L-2.7 -0.9L-0.6 -0.9Z" transform="translate(114 32)"></path><path d="M0 -11.3L2.5 -3.5L10.8 -3.5L4.1 1.3L6.7 9.2L0 4.3L-6.7 9.2L-4.1 1.3L-10.8 -3.5L-2.5 -3.5Z" transform="translate(73 481)"></path><path d="M0 -9.4L2.1 -2.9L9 -2.9L3.4 1.1L5.5 7.6L0 3.6L-5.5 7.6L-3.4 1.1L-9 -2.9L-2.1 -2.9Z" transform="translate(73 239)"></path><path d="M0 -0.9L0.2 -0.3L0.9 -0.3L0.3 0.1L0.6 0.8L0 0.4L-0.6 0.8L-0.3 0.1L-0.9 -0.3L-0.2 -0.3Z" transform="translate(570 160)"></path><path d="M0 -7.6L1.7 -2.3L7.2 -2.3L2.7 0.9L4.4 6.1L0 2.9L-4.4 6.1L-2.7 0.9L-7.2 -2.3L-1.7 -2.3Z" transform="translate(595 258)"></path><path d="M0 -3.8L0.8 -1.2L3.6 -1.2L1.4 0.4L2.2 3.1L0 1.4L-2.2 3.1L-1.4 0.4L-3.6 -1.2L-0.8 -1.2Z" transform="translate(419 53)"></path><path d="M0 -11.3L2.5 -3.5L10.8 -3.5L4.1 1.3L6.7 9.2L0 4.3L-6.7 9.2L-4.1 1.3L-10.8 -3.5L-2.5 -3.5Z" transform="translate(3 332)"></path><path d="M0 -6.6L1.5 -2L6.3 -2L2.4 0.8L3.9 5.3L0 2.5L-3.9 5.3L-2.4 0.8L-6.3 -2L-1.5 -2Z" transform="translate(894 366)"></path><path d="M0 0L0 0L0 0L0 0L0 0L0 0L0 0L0 0L0 0L0 0Z" transform="translate(63 184)"></path><path d="M0 -11.3L2.5 -3.5L10.8 -3.5L4.1 1.3L6.7 9.2L0 4.3L-6.7 9.2L-4.1 1.3L-10.8 -3.5L-2.5 -3.5Z" transform="translate(423 348)"></path><path d="M0 -2.8L0.6 -0.9L2.7 -0.9L1 0.3L1.7 2.3L0 1.1L-1.7 2.3L-1 0.3L-2.7 -0.9L-0.6 -0.9Z" transform="translate(598 402)"></path><path d="M0 -2.8L0.6 -0.9L2.7 -0.9L1 0.3L1.7 2.3L0 1.1L-1.7 2.3L-1 0.3L-2.7 -0.9L-0.6 -0.9Z" transform="translate(625 536)"></path><path d="M0 -4.7L1.1 -1.5L4.5 -1.5L1.7 0.6L2.8 3.8L0 1.8L-2.8 3.8L-1.7 0.6L-4.5 -1.5L-1.1 -1.5Z" transform="translate(495 267)"></path><path d="M0 -11.3L2.5 -3.5L10.8 -3.5L4.1 1.3L6.7 9.2L0 4.3L-6.7 9.2L-4.1 1.3L-10.8 -3.5L-2.5 -3.5Z" transform="translate(779 33)"></path><path d="M0 -6.6L1.5 -2L6.3 -2L2.4 0.8L3.9 5.3L0 2.5L-3.9 5.3L-2.4 0.8L-6.3 -2L-1.5 -2Z" transform="translate(32 114)"></path><path d="M0 -8.5L1.9 -2.6L8.1 -2.6L3.1 1L5 6.9L0 3.2L-5 6.9L-3.1 1L-8.1 -2.6L-1.9 -2.6Z" transform="translate(756 249)"></path><path d="M0 -10.4L2.3 -3.2L9.9 -3.2L3.8 1.2L6.1 8.4L0 4L-6.1 8.4L-3.8 1.2L-9.9 -3.2L-2.3 -3.2Z" transform="translate(440 403)"></path><path d="M0 -2.8L0.6 -0.9L2.7 -0.9L1 0.3L1.7 2.3L0 1.1L-1.7 2.3L-1 0.3L-2.7 -0.9L-0.6 -0.9Z" transform="translate(96 184)"></path><path d="M0 -1.9L0.4 -0.6L1.8 -0.6L0.7 0.2L1.1 1.5L0 0.7L-1.1 1.5L-0.7 0.2L-1.8 -0.6L-0.4 -0.6Z" transform="translate(230 6)"></path><path d="M0 -11.3L2.5 -3.5L10.8 -3.5L4.1 1.3L6.7 9.2L0 4.3L-6.7 9.2L-4.1 1.3L-10.8 -3.5L-2.5 -3.5Z" transform="translate(547 316)"></path><path d="M0 -2.8L0.6 -0.9L2.7 -0.9L1 0.3L1.7 2.3L0 1.1L-1.7 2.3L-1 0.3L-2.7 -0.9L-0.6 -0.9Z" transform="translate(278 332)"></path><path d="M0 -8.5L1.9 -2.6L8.1 -2.6L3.1 1L5 6.9L0 3.2L-5 6.9L-3.1 1L-8.1 -2.6L-1.9 -2.6Z" transform="translate(472 539)"></path><path d="M0 -5.7L1.3 -1.7L5.4 -1.7L2.1 0.7L3.3 4.6L0 2.2L-3.3 4.6L-2.1 0.7L-5.4 -1.7L-1.3 -1.7Z" transform="translate(373 399)"></path><path d="M0 -7.6L1.7 -2.3L7.2 -2.3L2.7 0.9L4.4 6.1L0 2.9L-4.4 6.1L-2.7 0.9L-7.2 -2.3L-1.7 -2.3Z" transform="translate(2 174)"></path><path d="M0 0L0 0L0 0L0 0L0 0L0 0L0 0L0 0L0 0L0 0Z" transform="translate(134 4)"></path><path d="M0 -2.8L0.6 -0.9L2.7 -0.9L1 0.3L1.7 2.3L0 1.1L-1.7 2.3L-1 0.3L-2.7 -0.9L-0.6 -0.9Z" transform="translate(630 412)"></path><path d="M0 -2.8L0.6 -0.9L2.7 -0.9L1 0.3L1.7 2.3L0 1.1L-1.7 2.3L-1 0.3L-2.7 -0.9L-0.6 -0.9Z" transform="translate(88 11)"></path><path d="M0 -1.9L0.4 -0.6L1.8 -0.6L0.7 0.2L1.1 1.5L0 0.7L-1.1 1.5L-0.7 0.2L-1.8 -0.6L-0.4 -0.6Z" transform="translate(84 390)"></path><path d="M0 -9.4L2.1 -2.9L9 -2.9L3.4 1.1L5.5 7.6L0 3.6L-5.5 7.6L-3.4 1.1L-9 -2.9L-2.1 -2.9Z" transform="translate(165 109)"></path><path d="M0 -4.7L1.1 -1.5L4.5 -1.5L1.7 0.6L2.8 3.8L0 1.8L-2.8 3.8L-1.7 0.6L-4.5 -1.5L-1.1 -1.5Z" transform="translate(37 230)"></path><path d="M0 -1.9L0.4 -0.6L1.8 -0.6L0.7 0.2L1.1 1.5L0 0.7L-1.1 1.5L-0.7 0.2L-1.8 -0.6L-0.4 -0.6Z" transform="translate(245 191)"></path><path d="M0 -2.8L0.6 -0.9L2.7 -0.9L1 0.3L1.7 2.3L0 1.1L-1.7 2.3L-1 0.3L-2.7 -0.9L-0.6 -0.9Z" transform="translate(313 305)"></path><path d="M0 -0.9L0.2 -0.3L0.9 -0.3L0.3 0.1L0.6 0.8L0 0.4L-0.6 0.8L-0.3 0.1L-0.9 -0.3L-0.2 -0.3Z" transform="translate(526 544)"></path><path d="M0 -3.8L0.8 -1.2L3.6 -1.2L1.4 0.4L2.2 3.1L0 1.4L-2.2 3.1L-1.4 0.4L-3.6 -1.2L-0.8 -1.2Z" transform="translate(624 592)"></path><path d="M0 -0.9L0.2 -0.3L0.9 -0.3L0.3 0.1L0.6 0.8L0 0.4L-0.6 0.8L-0.3 0.1L-0.9 -0.3L-0.2 -0.3Z" transform="translate(870 314)"></path><path d="M0 -3.8L0.8 -1.2L3.6 -1.2L1.4 0.4L2.2 3.1L0 1.4L-2.2 3.1L-1.4 0.4L-3.6 -1.2L-0.8 -1.2Z" transform="translate(697 373)"></path><path d="M0 -0.9L0.2 -0.3L0.9 -0.3L0.3 0.1L0.6 0.8L0 0.4L-0.6 0.8L-0.3 0.1L-0.9 -0.3L-0.2 -0.3Z" transform="translate(311 37)"></path><path d="M0 -6.6L1.5 -2L6.3 -2L2.4 0.8L3.9 5.3L0 2.5L-3.9 5.3L-2.4 0.8L-6.3 -2L-1.5 -2Z" transform="translate(475 61)"></path><path d="M0 -6.6L1.5 -2L6.3 -2L2.4 0.8L3.9 5.3L0 2.5L-3.9 5.3L-2.4 0.8L-6.3 -2L-1.5 -2Z" transform="translate(457 348)"></path><path d="M0 0L0 0L0 0L0 0L0 0L0 0L0 0L0 0L0 0L0 0Z" transform="translate(269 174)"></path><path d="M0 -7.6L1.7 -2.3L7.2 -2.3L2.7 0.9L4.4 6.1L0 2.9L-4.4 6.1L-2.7 0.9L-7.2 -2.3L-1.7 -2.3Z" transform="translate(245 32)"></path><path d="M0 -11.3L2.5 -3.5L10.8 -3.5L4.1 1.3L6.7 9.2L0 4.3L-6.7 9.2L-4.1 1.3L-10.8 -3.5L-2.5 -3.5Z" transform="translate(109 407)"></path><path d="M0 -9.4L2.1 -2.9L9 -2.9L3.4 1.1L5.5 7.6L0 3.6L-5.5 7.6L-3.4 1.1L-9 -2.9L-2.1 -2.9Z" transform="translate(26 278)"></path><path d="M0 -6.6L1.5 -2L6.3 -2L2.4 0.8L3.9 5.3L0 2.5L-3.9 5.3L-2.4 0.8L-6.3 -2L-1.5 -2Z" transform="translate(362 276)"></path><path d="M0 -2.8L0.6 -0.9L2.7 -0.9L1 0.3L1.7 2.3L0 1.1L-1.7 2.3L-1 0.3L-2.7 -0.9L-0.6 -0.9Z" transform="translate(349 342)"></path><path d="M0 -4.7L1.1 -1.5L4.5 -1.5L1.7 0.6L2.8 3.8L0 1.8L-2.8 3.8L-1.7 0.6L-4.5 -1.5L-1.1 -1.5Z" transform="translate(24 487)"></path><path d="M0 -6.6L1.5 -2L6.3 -2L2.4 0.8L3.9 5.3L0 2.5L-3.9 5.3L-2.4 0.8L-6.3 -2L-1.5 -2Z" transform="translate(3 528)"></path><path d="M0 -0.9L0.2 -0.3L0.9 -0.3L0.3 0.1L0.6 0.8L0 0.4L-0.6 0.8L-0.3 0.1L-0.9 -0.3L-0.2 -0.3Z" transform="translate(4 107)"></path><path d="M0 -11.3L2.5 -3.5L10.8 -3.5L4.1 1.3L6.7 9.2L0 4.3L-6.7 9.2L-4.1 1.3L-10.8 -3.5L-2.5 -3.5Z" transform="translate(484 599)"></path><path d="M0 -0.9L0.2 -0.3L0.9 -0.3L0.3 0.1L0.6 0.8L0 0.4L-0.6 0.8L-0.3 0.1L-0.9 -0.3L-0.2 -0.3Z" transform="translate(152 187)"></path><path d="M0 0L0 0L0 0L0 0L0 0L0 0L0 0L0 0L0 0L0 0Z" transform="translate(596 338)"></path><path d="M0 -11.3L2.5 -3.5L10.8 -3.5L4.1 1.3L6.7 9.2L0 4.3L-6.7 9.2L-4.1 1.3L-10.8 -3.5L-2.5 -3.5Z" transform="translate(181 526)"></path><path d="M0 -3.8L0.8 -1.2L3.6 -1.2L1.4 0.4L2.2 3.1L0 1.4L-2.2 3.1L-1.4 0.4L-3.6 -1.2L-0.8 -1.2Z" transform="translate(187 296)"></path><path d="M0 -10.4L2.3 -3.2L9.9 -3.2L3.8 1.2L6.1 8.4L0 4L-6.1 8.4L-3.8 1.2L-9.9 -3.2L-2.3 -3.2Z" transform="translate(304 527)"></path><path d="M0 -0.9L0.2 -0.3L0.9 -0.3L0.3 0.1L0.6 0.8L0 0.4L-0.6 0.8L-0.3 0.1L-0.9 -0.3L-0.2 -0.3Z" transform="translate(892 521)"></path><path d="M0 -3.8L0.8 -1.2L3.6 -1.2L1.4 0.4L2.2 3.1L0 1.4L-2.2 3.1L-1.4 0.4L-3.6 -1.2L-0.8 -1.2Z" transform="translate(316 559)"></path><path d="M0 -5.7L1.3 -1.7L5.4 -1.7L2.1 0.7L3.3 4.6L0 2.2L-3.3 4.6L-2.1 0.7L-5.4 -1.7L-1.3 -1.7Z" transform="translate(3 228)"></path><path d="M0 -2.8L0.6 -0.9L2.7 -0.9L1 0.3L1.7 2.3L0 1.1L-1.7 2.3L-1 0.3L-2.7 -0.9L-0.6 -0.9Z" transform="translate(464 493)"></path><path d="M0 -1.9L0.4 -0.6L1.8 -0.6L0.7 0.2L1.1 1.5L0 0.7L-1.1 1.5L-0.7 0.2L-1.8 -0.6L-0.4 -0.6Z" transform="translate(584 288)"></path><path d="M0 -4.7L1.1 -1.5L4.5 -1.5L1.7 0.6L2.8 3.8L0 1.8L-2.8 3.8L-1.7 0.6L-4.5 -1.5L-1.1 -1.5Z" transform="translate(544 490)"></path><path d="M0 -0.9L0.2 -0.3L0.9 -0.3L0.3 0.1L0.6 0.8L0 0.4L-0.6 0.8L-0.3 0.1L-0.9 -0.3L-0.2 -0.3Z" transform="translate(783 234)"></path><path d="M0 -10.4L2.3 -3.2L9.9 -3.2L3.8 1.2L6.1 8.4L0 4L-6.1 8.4L-3.8 1.2L-9.9 -3.2L-2.3 -3.2Z" transform="translate(91 452)"></path><path d="M0 -3.8L0.8 -1.2L3.6 -1.2L1.4 0.4L2.2 3.1L0 1.4L-2.2 3.1L-1.4 0.4L-3.6 -1.2L-0.8 -1.2Z" transform="translate(534 402)"></path><path d="M0 -2.8L0.6 -0.9L2.7 -0.9L1 0.3L1.7 2.3L0 1.1L-1.7 2.3L-1 0.3L-2.7 -0.9L-0.6 -0.9Z" transform="translate(163 503)"></path><path d="M0 -0.9L0.2 -0.3L0.9 -0.3L0.3 0.1L0.6 0.8L0 0.4L-0.6 0.8L-0.3 0.1L-0.9 -0.3L-0.2 -0.3Z" transform="translate(182 561)"></path><path d="M0 -5.7L1.3 -1.7L5.4 -1.7L2.1 0.7L3.3 4.6L0 2.2L-3.3 4.6L-2.1 0.7L-5.4 -1.7L-1.3 -1.7Z" transform="translate(589 591)"></path><path d="M0 -11.3L2.5 -3.5L10.8 -3.5L4.1 1.3L6.7 9.2L0 4.3L-6.7 9.2L-4.1 1.3L-10.8 -3.5L-2.5 -3.5Z" transform="translate(859 563)"></path><path d="M0 -4.7L1.1 -1.5L4.5 -1.5L1.7 0.6L2.8 3.8L0 1.8L-2.8 3.8L-1.7 0.6L-4.5 -1.5L-1.1 -1.5Z" transform="translate(781 101)"></path><path d="M0 -3.8L0.8 -1.2L3.6 -1.2L1.4 0.4L2.2 3.1L0 1.4L-2.2 3.1L-1.4 0.4L-3.6 -1.2L-0.8 -1.2Z" transform="translate(678 275)"></path><path d="M0 -8.5L1.9 -2.6L8.1 -2.6L3.1 1L5 6.9L0 3.2L-5 6.9L-3.1 1L-8.1 -2.6L-1.9 -2.6Z" transform="translate(45 592)"></path><path d="M0 -10.4L2.3 -3.2L9.9 -3.2L3.8 1.2L6.1 8.4L0 4L-6.1 8.4L-3.8 1.2L-9.9 -3.2L-2.3 -3.2Z" transform="translate(294 390)"></path><path d="M0 -9.4L2.1 -2.9L9 -2.9L3.4 1.1L5.5 7.6L0 3.6L-5.5 7.6L-3.4 1.1L-9 -2.9L-2.1 -2.9Z" transform="translate(492 436)"></path><path d="M0 -9.4L2.1 -2.9L9 -2.9L3.4 1.1L5.5 7.6L0 3.6L-5.5 7.6L-3.4 1.1L-9 -2.9L-2.1 -2.9Z" transform="translate(357 216)"></path><path d="M0 -10.4L2.3 -3.2L9.9 -3.2L3.8 1.2L6.1 8.4L0 4L-6.1 8.4L-3.8 1.2L-9.9 -3.2L-2.3 -3.2Z" transform="translate(739 459)"></path><path d="M0 -5.7L1.3 -1.7L5.4 -1.7L2.1 0.7L3.3 4.6L0 2.2L-3.3 4.6L-2.1 0.7L-5.4 -1.7L-1.3 -1.7Z" transform="translate(772 407)"></path><path d="M0 -3.8L0.8 -1.2L3.6 -1.2L1.4 0.4L2.2 3.1L0 1.4L-2.2 3.1L-1.4 0.4L-3.6 -1.2L-0.8 -1.2Z" transform="translate(552 57)"></path><path d="M0 -9.4L2.1 -2.9L9 -2.9L3.4 1.1L5.5 7.6L0 3.6L-5.5 7.6L-3.4 1.1L-9 -2.9L-2.1 -2.9Z" transform="translate(451 599)"></path><path d="M0 -4.7L1.1 -1.5L4.5 -1.5L1.7 0.6L2.8 3.8L0 1.8L-2.8 3.8L-1.7 0.6L-4.5 -1.5L-1.1 -1.5Z" transform="translate(30 52)"></path><path d="M0 -6.6L1.5 -2L6.3 -2L2.4 0.8L3.9 5.3L0 2.5L-3.9 5.3L-2.4 0.8L-6.3 -2L-1.5 -2Z" transform="translate(631 562)"></path><path d="M0 -1.9L0.4 -0.6L1.8 -0.6L0.7 0.2L1.1 1.5L0 0.7L-1.1 1.5L-0.7 0.2L-1.8 -0.6L-0.4 -0.6Z" transform="translate(450 219)"></path><path d="M0 -7.6L1.7 -2.3L7.2 -2.3L2.7 0.9L4.4 6.1L0 2.9L-4.4 6.1L-2.7 0.9L-7.2 -2.3L-1.7 -2.3Z" transform="translate(159 356)"></path><path d="M0 -2.8L0.6 -0.9L2.7 -0.9L1 0.3L1.7 2.3L0 1.1L-1.7 2.3L-1 0.3L-2.7 -0.9L-0.6 -0.9Z" transform="translate(13 4)"></path><path d="M0 -3.8L0.8 -1.2L3.6 -1.2L1.4 0.4L2.2 3.1L0 1.4L-2.2 3.1L-1.4 0.4L-3.6 -1.2L-0.8 -1.2Z" transform="translate(120 350)"></path><path d="M0 -6.6L1.5 -2L6.3 -2L2.4 0.8L3.9 5.3L0 2.5L-3.9 5.3L-2.4 0.8L-6.3 -2L-1.5 -2Z" transform="translate(843 48)"></path><path d="M0 -11.3L2.5 -3.5L10.8 -3.5L4.1 1.3L6.7 9.2L0 4.3L-6.7 9.2L-4.1 1.3L-10.8 -3.5L-2.5 -3.5Z" transform="translate(750 2)"></path><path d="M0 -8.5L1.9 -2.6L8.1 -2.6L3.1 1L5 6.9L0 3.2L-5 6.9L-3.1 1L-8.1 -2.6L-1.9 -2.6Z" transform="translate(634 198)"></path><path d="M0 -7.6L1.7 -2.3L7.2 -2.3L2.7 0.9L4.4 6.1L0 2.9L-4.4 6.1L-2.7 0.9L-7.2 -2.3L-1.7 -2.3Z" transform="translate(839 114)"></path><path d="M0 -4.7L1.1 -1.5L4.5 -1.5L1.7 0.6L2.8 3.8L0 1.8L-2.8 3.8L-1.7 0.6L-4.5 -1.5L-1.1 -1.5Z" transform="translate(500 51)"></path><path d="M0 -0.9L0.2 -0.3L0.9 -0.3L0.3 0.1L0.6 0.8L0 0.4L-0.6 0.8L-0.3 0.1L-0.9 -0.3L-0.2 -0.3Z" transform="translate(756 556)"></path><path d="M0 -6.6L1.5 -2L6.3 -2L2.4 0.8L3.9 5.3L0 2.5L-3.9 5.3L-2.4 0.8L-6.3 -2L-1.5 -2Z" transform="translate(232 90)"></path><path d="M0 -6.6L1.5 -2L6.3 -2L2.4 0.8L3.9 5.3L0 2.5L-3.9 5.3L-2.4 0.8L-6.3 -2L-1.5 -2Z" transform="translate(334 284)"></path><path d="M0 -2.8L0.6 -0.9L2.7 -0.9L1 0.3L1.7 2.3L0 1.1L-1.7 2.3L-1 0.3L-2.7 -0.9L-0.6 -0.9Z" transform="translate(655 316)"></path><path d="M0 -6.6L1.5 -2L6.3 -2L2.4 0.8L3.9 5.3L0 2.5L-3.9 5.3L-2.4 0.8L-6.3 -2L-1.5 -2Z" transform="translate(464 391)"></path><path d="M0 -4.7L1.1 -1.5L4.5 -1.5L1.7 0.6L2.8 3.8L0 1.8L-2.8 3.8L-1.7 0.6L-4.5 -1.5L-1.1 -1.5Z" transform="translate(571 404)"></path><path d="M0 -9.4L2.1 -2.9L9 -2.9L3.4 1.1L5.5 7.6L0 3.6L-5.5 7.6L-3.4 1.1L-9 -2.9L-2.1 -2.9Z" transform="translate(166 413)"></path><path d="M0 -5.7L1.3 -1.7L5.4 -1.7L2.1 0.7L3.3 4.6L0 2.2L-3.3 4.6L-2.1 0.7L-5.4 -1.7L-1.3 -1.7Z" transform="translate(293 8)"></path><path d="M0 -6.6L1.5 -2L6.3 -2L2.4 0.8L3.9 5.3L0 2.5L-3.9 5.3L-2.4 0.8L-6.3 -2L-1.5 -2Z" transform="translate(891 91)"></path><path d="M0 -7.6L1.7 -2.3L7.2 -2.3L2.7 0.9L4.4 6.1L0 2.9L-4.4 6.1L-2.7 0.9L-7.2 -2.3L-1.7 -2.3Z" transform="translate(58 537)"></path><path d="M0 0L0 0L0 0L0 0L0 0L0 0L0 0L0 0L0 0L0 0Z" transform="translate(52 340)"></path><path d="M0 -7.6L1.7 -2.3L7.2 -2.3L2.7 0.9L4.4 6.1L0 2.9L-4.4 6.1L-2.7 0.9L-7.2 -2.3L-1.7 -2.3Z" transform="translate(364 70)"></path><path d="M0 -1.9L0.4 -0.6L1.8 -0.6L0.7 0.2L1.1 1.5L0 0.7L-1.1 1.5L-0.7 0.2L-1.8 -0.6L-0.4 -0.6Z" transform="translate(844 494)"></path><path d="M0 -3.8L0.8 -1.2L3.6 -1.2L1.4 0.4L2.2 3.1L0 1.4L-2.2 3.1L-1.4 0.4L-3.6 -1.2L-0.8 -1.2Z" transform="translate(1 471)"></path><path d="M0 -2.8L0.6 -0.9L2.7 -0.9L1 0.3L1.7 2.3L0 1.1L-1.7 2.3L-1 0.3L-2.7 -0.9L-0.6 -0.9Z" transform="translate(33 169)"></path><path d="M0 -0.9L0.2 -0.3L0.9 -0.3L0.3 0.1L0.6 0.8L0 0.4L-0.6 0.8L-0.3 0.1L-0.9 -0.3L-0.2 -0.3Z" transform="translate(6 365)"></path><path d="M0 -6.6L1.5 -2L6.3 -2L2.4 0.8L3.9 5.3L0 2.5L-3.9 5.3L-2.4 0.8L-6.3 -2L-1.5 -2Z" transform="translate(457 4)"></path><path d="M0 -3.8L0.8 -1.2L3.6 -1.2L1.4 0.4L2.2 3.1L0 1.4L-2.2 3.1L-1.4 0.4L-3.6 -1.2L-0.8 -1.2Z" transform="translate(569 259)"></path><path d="M0 -2.8L0.6 -0.9L2.7 -0.9L1 0.3L1.7 2.3L0 1.1L-1.7 2.3L-1 0.3L-2.7 -0.9L-0.6 -0.9Z" transform="translate(660 214)"></path><path d="M0 -4.7L1.1 -1.5L4.5 -1.5L1.7 0.6L2.8 3.8L0 1.8L-2.8 3.8L-1.7 0.6L-4.5 -1.5L-1.1 -1.5Z" transform="translate(110 380)"></path><path d="M0 -3.8L0.8 -1.2L3.6 -1.2L1.4 0.4L2.2 3.1L0 1.4L-2.2 3.1L-1.4 0.4L-3.6 -1.2L-0.8 -1.2Z" transform="translate(218 369)"></path><path d="M0 -10.4L2.3 -3.2L9.9 -3.2L3.8 1.2L6.1 8.4L0 4L-6.1 8.4L-3.8 1.2L-9.9 -3.2L-2.3 -3.2Z" transform="translate(310 246)"></path><path d="M0 -3.8L0.8 -1.2L3.6 -1.2L1.4 0.4L2.2 3.1L0 1.4L-2.2 3.1L-1.4 0.4L-3.6 -1.2L-0.8 -1.2Z" transform="translate(200 457)"></path><path d="M0 -4.7L1.1 -1.5L4.5 -1.5L1.7 0.6L2.8 3.8L0 1.8L-2.8 3.8L-1.7 0.6L-4.5 -1.5L-1.1 -1.5Z" transform="translate(572 7)"></path><path d="M0 -11.3L2.5 -3.5L10.8 -3.5L4.1 1.3L6.7 9.2L0 4.3L-6.7 9.2L-4.1 1.3L-10.8 -3.5L-2.5 -3.5Z" transform="translate(682 198)"></path><path d="M0 -1.9L0.4 -0.6L1.8 -0.6L0.7 0.2L1.1 1.5L0 0.7L-1.1 1.5L-0.7 0.2L-1.8 -0.6L-0.4 -0.6Z" transform="translate(434 166)"></path><path d="M0 -2.8L0.6 -0.9L2.7 -0.9L1 0.3L1.7 2.3L0 1.1L-1.7 2.3L-1 0.3L-2.7 -0.9L-0.6 -0.9Z" transform="translate(398 358)"></path><path d="M0 -7.6L1.7 -2.3L7.2 -2.3L2.7 0.9L4.4 6.1L0 2.9L-4.4 6.1L-2.7 0.9L-7.2 -2.3L-1.7 -2.3Z" transform="translate(11 417)"></path><path d="M0 -1.9L0.4 -0.6L1.8 -0.6L0.7 0.2L1.1 1.5L0 0.7L-1.1 1.5L-0.7 0.2L-1.8 -0.6L-0.4 -0.6Z" transform="translate(543 455)"></path><path d="M0 -7.6L1.7 -2.3L7.2 -2.3L2.7 0.9L4.4 6.1L0 2.9L-4.4 6.1L-2.7 0.9L-7.2 -2.3L-1.7 -2.3Z" transform="translate(60 4)"></path><path d="M0 -11.3L2.5 -3.5L10.8 -3.5L4.1 1.3L6.7 9.2L0 4.3L-6.7 9.2L-4.1 1.3L-10.8 -3.5L-2.5 -3.5Z" transform="translate(893 598)"></path><path d="M0 -0.9L0.2 -0.3L0.9 -0.3L0.3 0.1L0.6 0.8L0 0.4L-0.6 0.8L-0.3 0.1L-0.9 -0.3L-0.2 -0.3Z" transform="translate(421 139)"></path><path d="M0 -5.7L1.3 -1.7L5.4 -1.7L2.1 0.7L3.3 4.6L0 2.2L-3.3 4.6L-2.1 0.7L-5.4 -1.7L-1.3 -1.7Z" transform="translate(468 279)"></path><path d="M0 -9.4L2.1 -2.9L9 -2.9L3.4 1.1L5.5 7.6L0 3.6L-5.5 7.6L-3.4 1.1L-9 -2.9L-2.1 -2.9Z" transform="translate(141 481)"></path><path d="M0 -6.6L1.5 -2L6.3 -2L2.4 0.8L3.9 5.3L0 2.5L-3.9 5.3L-2.4 0.8L-6.3 -2L-1.5 -2Z" transform="translate(170 135)"></path><path d="M0 -3.8L0.8 -1.2L3.6 -1.2L1.4 0.4L2.2 3.1L0 1.4L-2.2 3.1L-1.4 0.4L-3.6 -1.2L-0.8 -1.2Z" transform="translate(28 322)"></path><path d="M0 -4.7L1.1 -1.5L4.5 -1.5L1.7 0.6L2.8 3.8L0 1.8L-2.8 3.8L-1.7 0.6L-4.5 -1.5L-1.1 -1.5Z" transform="translate(204 43)"></path><path d="M0 -9.4L2.1 -2.9L9 -2.9L3.4 1.1L5.5 7.6L0 3.6L-5.5 7.6L-3.4 1.1L-9 -2.9L-2.1 -2.9Z" transform="translate(501 190)"></path><path d="M0 -0.9L0.2 -0.3L0.9 -0.3L0.3 0.1L0.6 0.8L0 0.4L-0.6 0.8L-0.3 0.1L-0.9 -0.3L-0.2 -0.3Z" transform="translate(129 261)"></path><path d="M0 -11.3L2.5 -3.5L10.8 -3.5L4.1 1.3L6.7 9.2L0 4.3L-6.7 9.2L-4.1 1.3L-10.8 -3.5L-2.5 -3.5Z" transform="translate(4 200)"></path><path d="M0 -2.8L0.6 -0.9L2.7 -0.9L1 0.3L1.7 2.3L0 1.1L-1.7 2.3L-1 0.3L-2.7 -0.9L-0.6 -0.9Z" transform="translate(580 559)"></path><path d="M0 -8.5L1.9 -2.6L8.1 -2.6L3.1 1L5 6.9L0 3.2L-5 6.9L-3.1 1L-8.1 -2.6L-1.9 -2.6Z" transform="translate(333 441)"></path><path d="M0 -1.9L0.4 -0.6L1.8 -0.6L0.7 0.2L1.1 1.5L0 0.7L-1.1 1.5L-0.7 0.2L-1.8 -0.6L-0.4 -0.6Z" transform="translate(126 55)"></path><path d="M0 -10.4L2.3 -3.2L9.9 -3.2L3.8 1.2L6.1 8.4L0 4L-6.1 8.4L-3.8 1.2L-9.9 -3.2L-2.3 -3.2Z" transform="translate(380 122)"></path><path d="M0 -0.9L0.2 -0.3L0.9 -0.3L0.3 0.1L0.6 0.8L0 0.4L-0.6 0.8L-0.3 0.1L-0.9 -0.3L-0.2 -0.3Z" transform="translate(723 118)"></path><path d="M0 -4.7L1.1 -1.5L4.5 -1.5L1.7 0.6L2.8 3.8L0 1.8L-2.8 3.8L-1.7 0.6L-4.5 -1.5L-1.1 -1.5Z" transform="translate(390 1)"></path></g></svg>